<?xml version="1.0" encoding="utf-8"?>
<svg xmlns="http://www.w3.org/2000/svg" xmlns:xlink="http://www.w3.org/1999/xlink" width="600" height="400" viewBox="0 0 2400 1600">
<defs>
  <clipPath id="clip540">
    <rect x="0" y="0" width="2400" height="1600"/>
  </clipPath>
</defs>
<path clip-path="url(#clip540)" d="M0 1600 L2400 1600 L2400 0 L0 0  Z" fill="#ffffff" fill-rule="evenodd" fill-opacity="1"/>
<defs>
  <clipPath id="clip541">
    <rect x="480" y="0" width="1681" height="1600"/>
  </clipPath>
</defs>
<path clip-path="url(#clip540)" d="M265.445 1423.18 L2352.76 1423.18 L2352.76 47.2441 L265.445 47.2441  Z" fill="#ffffff" fill-rule="evenodd" fill-opacity="1"/>
<defs>
  <clipPath id="clip542">
    <rect x="265" y="47" width="2088" height="1377"/>
  </clipPath>
</defs>
<polyline clip-path="url(#clip542)" style="stroke:#000000; stroke-linecap:round; stroke-linejoin:round; stroke-width:2; stroke-opacity:0.1; fill:none" points="306.618,1423.18 306.618,47.2441 "/>
<polyline clip-path="url(#clip542)" style="stroke:#000000; stroke-linecap:round; stroke-linejoin:round; stroke-width:2; stroke-opacity:0.1; fill:none" points="754.155,1423.18 754.155,47.2441 "/>
<polyline clip-path="url(#clip542)" style="stroke:#000000; stroke-linecap:round; stroke-linejoin:round; stroke-width:2; stroke-opacity:0.1; fill:none" points="1201.69,1423.18 1201.69,47.2441 "/>
<polyline clip-path="url(#clip542)" style="stroke:#000000; stroke-linecap:round; stroke-linejoin:round; stroke-width:2; stroke-opacity:0.1; fill:none" points="1649.23,1423.18 1649.23,47.2441 "/>
<polyline clip-path="url(#clip542)" style="stroke:#000000; stroke-linecap:round; stroke-linejoin:round; stroke-width:2; stroke-opacity:0.1; fill:none" points="2096.76,1423.18 2096.76,47.2441 "/>
<polyline clip-path="url(#clip540)" style="stroke:#000000; stroke-linecap:round; stroke-linejoin:round; stroke-width:4; stroke-opacity:1; fill:none" points="265.445,1423.18 2352.76,1423.18 "/>
<polyline clip-path="url(#clip540)" style="stroke:#000000; stroke-linecap:round; stroke-linejoin:round; stroke-width:4; stroke-opacity:1; fill:none" points="306.618,1423.18 306.618,1404.28 "/>
<polyline clip-path="url(#clip540)" style="stroke:#000000; stroke-linecap:round; stroke-linejoin:round; stroke-width:4; stroke-opacity:1; fill:none" points="754.155,1423.18 754.155,1404.28 "/>
<polyline clip-path="url(#clip540)" style="stroke:#000000; stroke-linecap:round; stroke-linejoin:round; stroke-width:4; stroke-opacity:1; fill:none" points="1201.69,1423.18 1201.69,1404.28 "/>
<polyline clip-path="url(#clip540)" style="stroke:#000000; stroke-linecap:round; stroke-linejoin:round; stroke-width:4; stroke-opacity:1; fill:none" points="1649.23,1423.18 1649.23,1404.28 "/>
<polyline clip-path="url(#clip540)" style="stroke:#000000; stroke-linecap:round; stroke-linejoin:round; stroke-width:4; stroke-opacity:1; fill:none" points="2096.76,1423.18 2096.76,1404.28 "/>
<path clip-path="url(#clip540)" d="M306.618 1454.1 Q303.007 1454.1 301.178 1457.66 Q299.373 1461.2 299.373 1468.33 Q299.373 1475.44 301.178 1479.01 Q303.007 1482.55 306.618 1482.55 Q310.252 1482.55 312.058 1479.01 Q313.887 1475.44 313.887 1468.33 Q313.887 1461.2 312.058 1457.66 Q310.252 1454.1 306.618 1454.1 M306.618 1450.39 Q312.428 1450.39 315.484 1455 Q318.562 1459.58 318.562 1468.33 Q318.562 1477.06 315.484 1481.67 Q312.428 1486.25 306.618 1486.25 Q300.808 1486.25 297.729 1481.67 Q294.674 1477.06 294.674 1468.33 Q294.674 1459.58 297.729 1455 Q300.808 1450.39 306.618 1450.39 Z" fill="#000000" fill-rule="nonzero" fill-opacity="1" /><path clip-path="url(#clip540)" d="M733.426 1481.64 L749.745 1481.64 L749.745 1485.58 L727.801 1485.58 L727.801 1481.64 Q730.463 1478.89 735.046 1474.26 Q739.653 1469.61 740.833 1468.27 Q743.078 1465.74 743.958 1464.01 Q744.861 1462.25 744.861 1460.56 Q744.861 1457.8 742.916 1456.07 Q740.995 1454.33 737.893 1454.33 Q735.694 1454.33 733.241 1455.09 Q730.81 1455.86 728.032 1457.41 L728.032 1452.69 Q730.856 1451.55 733.31 1450.97 Q735.764 1450.39 737.801 1450.39 Q743.171 1450.39 746.365 1453.08 Q749.56 1455.77 749.56 1460.26 Q749.56 1462.39 748.75 1464.31 Q747.963 1466.2 745.856 1468.8 Q745.278 1469.47 742.176 1472.69 Q739.074 1475.88 733.426 1481.64 Z" fill="#000000" fill-rule="nonzero" fill-opacity="1" /><path clip-path="url(#clip540)" d="M759.606 1451.02 L777.963 1451.02 L777.963 1454.96 L763.889 1454.96 L763.889 1463.43 Q764.907 1463.08 765.926 1462.92 Q766.944 1462.73 767.963 1462.73 Q773.75 1462.73 777.129 1465.9 Q780.509 1469.08 780.509 1474.49 Q780.509 1480.07 777.037 1483.17 Q773.564 1486.25 767.245 1486.25 Q765.069 1486.25 762.801 1485.88 Q760.555 1485.51 758.148 1484.77 L758.148 1480.07 Q760.231 1481.2 762.453 1481.76 Q764.676 1482.32 767.152 1482.32 Q771.157 1482.32 773.495 1480.21 Q775.833 1478.1 775.833 1474.49 Q775.833 1470.88 773.495 1468.77 Q771.157 1466.67 767.152 1466.67 Q765.277 1466.67 763.402 1467.08 Q761.551 1467.5 759.606 1468.38 L759.606 1451.02 Z" fill="#000000" fill-rule="nonzero" fill-opacity="1" /><path clip-path="url(#clip540)" d="M1176.39 1451.02 L1194.75 1451.02 L1194.75 1454.96 L1180.67 1454.96 L1180.67 1463.43 Q1181.69 1463.08 1182.71 1462.92 Q1183.73 1462.73 1184.75 1462.73 Q1190.53 1462.73 1193.91 1465.9 Q1197.29 1469.08 1197.29 1474.49 Q1197.29 1480.07 1193.82 1483.17 Q1190.35 1486.25 1184.03 1486.25 Q1181.85 1486.25 1179.59 1485.88 Q1177.34 1485.51 1174.93 1484.77 L1174.93 1480.07 Q1177.02 1481.2 1179.24 1481.76 Q1181.46 1482.32 1183.94 1482.32 Q1187.94 1482.32 1190.28 1480.21 Q1192.62 1478.1 1192.62 1474.49 Q1192.62 1470.88 1190.28 1468.77 Q1187.94 1466.67 1183.94 1466.67 Q1182.06 1466.67 1180.19 1467.08 Q1178.34 1467.5 1176.39 1468.38 L1176.39 1451.02 Z" fill="#000000" fill-rule="nonzero" fill-opacity="1" /><path clip-path="url(#clip540)" d="M1216.51 1454.1 Q1212.9 1454.1 1211.07 1457.66 Q1209.26 1461.2 1209.26 1468.33 Q1209.26 1475.44 1211.07 1479.01 Q1212.9 1482.55 1216.51 1482.55 Q1220.14 1482.55 1221.95 1479.01 Q1223.77 1475.44 1223.77 1468.33 Q1223.77 1461.2 1221.95 1457.66 Q1220.14 1454.1 1216.51 1454.1 M1216.51 1450.39 Q1222.32 1450.39 1225.37 1455 Q1228.45 1459.58 1228.45 1468.33 Q1228.45 1477.06 1225.37 1481.67 Q1222.32 1486.25 1216.51 1486.25 Q1210.7 1486.25 1207.62 1481.67 Q1204.56 1477.06 1204.56 1468.33 Q1204.56 1459.58 1207.62 1455 Q1210.7 1450.39 1216.51 1450.39 Z" fill="#000000" fill-rule="nonzero" fill-opacity="1" /><path clip-path="url(#clip540)" d="M1623.08 1451.02 L1645.3 1451.02 L1645.3 1453.01 L1632.76 1485.58 L1627.87 1485.58 L1639.68 1454.96 L1623.08 1454.96 L1623.08 1451.02 Z" fill="#000000" fill-rule="nonzero" fill-opacity="1" /><path clip-path="url(#clip540)" d="M1654.47 1451.02 L1672.83 1451.02 L1672.83 1454.96 L1658.75 1454.96 L1658.75 1463.43 Q1659.77 1463.08 1660.79 1462.92 Q1661.81 1462.73 1662.83 1462.73 Q1668.61 1462.73 1671.99 1465.9 Q1675.37 1469.08 1675.37 1474.49 Q1675.37 1480.07 1671.9 1483.17 Q1668.43 1486.25 1662.11 1486.25 Q1659.93 1486.25 1657.67 1485.88 Q1655.42 1485.51 1653.01 1484.77 L1653.01 1480.07 Q1655.1 1481.2 1657.32 1481.76 Q1659.54 1482.32 1662.02 1482.32 Q1666.02 1482.32 1668.36 1480.21 Q1670.7 1478.1 1670.7 1474.49 Q1670.7 1470.88 1668.36 1468.77 Q1666.02 1466.67 1662.02 1466.67 Q1660.14 1466.67 1658.27 1467.08 Q1656.42 1467.5 1654.47 1468.38 L1654.47 1451.02 Z" fill="#000000" fill-rule="nonzero" fill-opacity="1" /><path clip-path="url(#clip540)" d="M2056.37 1481.64 L2064.01 1481.64 L2064.01 1455.28 L2055.7 1456.95 L2055.7 1452.69 L2063.96 1451.02 L2068.64 1451.02 L2068.64 1481.64 L2076.28 1481.64 L2076.28 1485.58 L2056.37 1485.58 L2056.37 1481.64 Z" fill="#000000" fill-rule="nonzero" fill-opacity="1" /><path clip-path="url(#clip540)" d="M2095.72 1454.1 Q2092.11 1454.1 2090.28 1457.66 Q2088.48 1461.2 2088.48 1468.33 Q2088.48 1475.44 2090.28 1479.01 Q2092.11 1482.55 2095.72 1482.55 Q2099.36 1482.55 2101.16 1479.01 Q2102.99 1475.44 2102.99 1468.33 Q2102.99 1461.2 2101.16 1457.66 Q2099.36 1454.1 2095.72 1454.1 M2095.72 1450.39 Q2101.53 1450.39 2104.59 1455 Q2107.67 1459.58 2107.67 1468.33 Q2107.67 1477.06 2104.59 1481.67 Q2101.53 1486.25 2095.72 1486.25 Q2089.91 1486.25 2086.83 1481.67 Q2083.78 1477.06 2083.78 1468.33 Q2083.78 1459.58 2086.83 1455 Q2089.91 1450.39 2095.72 1450.39 Z" fill="#000000" fill-rule="nonzero" fill-opacity="1" /><path clip-path="url(#clip540)" d="M2125.89 1454.1 Q2122.27 1454.1 2120.45 1457.66 Q2118.64 1461.2 2118.64 1468.33 Q2118.64 1475.44 2120.45 1479.01 Q2122.27 1482.55 2125.89 1482.55 Q2129.52 1482.55 2131.32 1479.01 Q2133.15 1475.44 2133.15 1468.33 Q2133.15 1461.2 2131.32 1457.66 Q2129.52 1454.1 2125.89 1454.1 M2125.89 1450.39 Q2131.7 1450.39 2134.75 1455 Q2137.83 1459.58 2137.83 1468.33 Q2137.83 1477.06 2134.75 1481.67 Q2131.7 1486.25 2125.89 1486.25 Q2120.07 1486.25 2117 1481.67 Q2113.94 1477.06 2113.94 1468.33 Q2113.94 1459.58 2117 1455 Q2120.07 1450.39 2125.89 1450.39 Z" fill="#000000" fill-rule="nonzero" fill-opacity="1" /><path clip-path="url(#clip540)" d="M1211.28 1525.81 L1211.28 1543.66 L1219.36 1543.66 Q1223.85 1543.66 1226.3 1541.34 Q1228.75 1539.02 1228.75 1534.72 Q1228.75 1530.45 1226.3 1528.13 Q1223.85 1525.81 1219.36 1525.81 L1211.28 1525.81 M1204.85 1520.52 L1219.36 1520.52 Q1227.35 1520.52 1231.42 1524.15 Q1235.53 1527.75 1235.53 1534.72 Q1235.53 1541.75 1231.42 1545.35 Q1227.35 1548.95 1219.36 1548.95 L1211.28 1548.95 L1211.28 1568.04 L1204.85 1568.04 L1204.85 1520.52 Z" fill="#000000" fill-rule="nonzero" fill-opacity="1" /><path clip-path="url(#clip540)" d="M1257.17 1550.12 Q1250.07 1550.12 1247.34 1551.75 Q1244.6 1553.37 1244.6 1557.29 Q1244.6 1560.4 1246.64 1562.25 Q1248.71 1564.07 1252.24 1564.07 Q1257.11 1564.07 1260.04 1560.63 Q1263 1557.16 1263 1551.43 L1263 1550.12 L1257.17 1550.12 M1268.85 1547.71 L1268.85 1568.04 L1263 1568.04 L1263 1562.63 Q1260.99 1565.88 1258 1567.44 Q1255.01 1568.97 1250.68 1568.97 Q1245.2 1568.97 1241.96 1565.91 Q1238.74 1562.82 1238.74 1557.67 Q1238.74 1551.65 1242.75 1548.6 Q1246.8 1545.54 1254.78 1545.54 L1263 1545.54 L1263 1544.97 Q1263 1540.93 1260.32 1538.73 Q1257.68 1536.5 1252.88 1536.5 Q1249.82 1536.5 1246.92 1537.23 Q1244.03 1537.97 1241.35 1539.43 L1241.35 1534.02 Q1244.57 1532.78 1247.59 1532.17 Q1250.62 1531.54 1253.48 1531.54 Q1261.21 1531.54 1265.03 1535.55 Q1268.85 1539.56 1268.85 1547.71 Z" fill="#000000" fill-rule="nonzero" fill-opacity="1" /><path clip-path="url(#clip540)" d="M1303.64 1533.45 L1303.64 1538.98 Q1301.16 1537.71 1298.49 1537.07 Q1295.81 1536.44 1292.95 1536.44 Q1288.59 1536.44 1286.39 1537.77 Q1284.23 1539.11 1284.23 1541.79 Q1284.23 1543.82 1285.79 1545 Q1287.35 1546.15 1292.06 1547.2 L1294.06 1547.64 Q1300.3 1548.98 1302.91 1551.43 Q1305.55 1553.85 1305.55 1558.21 Q1305.55 1563.17 1301.6 1566.07 Q1297.69 1568.97 1290.81 1568.97 Q1287.95 1568.97 1284.83 1568.39 Q1281.74 1567.85 1278.31 1566.74 L1278.31 1560.69 Q1281.55 1562.38 1284.7 1563.24 Q1287.85 1564.07 1290.94 1564.07 Q1295.08 1564.07 1297.31 1562.66 Q1299.54 1561.23 1299.54 1558.65 Q1299.54 1556.27 1297.91 1554.99 Q1296.32 1553.72 1290.88 1552.54 L1288.84 1552.07 Q1283.4 1550.92 1280.98 1548.56 Q1278.56 1546.18 1278.56 1542.04 Q1278.56 1537.01 1282.13 1534.27 Q1285.69 1531.54 1292.25 1531.54 Q1295.49 1531.54 1298.36 1532.01 Q1301.22 1532.49 1303.64 1533.45 Z" fill="#000000" fill-rule="nonzero" fill-opacity="1" /><path clip-path="url(#clip540)" d="M1337.6 1533.45 L1337.6 1538.98 Q1335.12 1537.71 1332.45 1537.07 Q1329.77 1536.44 1326.91 1536.44 Q1322.55 1536.44 1320.35 1537.77 Q1318.19 1539.11 1318.19 1541.79 Q1318.19 1543.82 1319.75 1545 Q1321.31 1546.15 1326.02 1547.2 L1328.02 1547.64 Q1334.26 1548.98 1336.87 1551.43 Q1339.51 1553.85 1339.51 1558.21 Q1339.51 1563.17 1335.57 1566.07 Q1331.65 1568.97 1324.78 1568.97 Q1321.91 1568.97 1318.79 1568.39 Q1315.7 1567.85 1312.27 1566.74 L1312.27 1560.69 Q1315.51 1562.38 1318.66 1563.24 Q1321.82 1564.07 1324.9 1564.07 Q1329.04 1564.07 1331.27 1562.66 Q1333.5 1561.23 1333.5 1558.65 Q1333.5 1556.27 1331.87 1554.99 Q1330.28 1553.72 1324.84 1552.54 L1322.8 1552.07 Q1317.36 1550.92 1314.94 1548.56 Q1312.52 1546.18 1312.52 1542.04 Q1312.52 1537.01 1316.09 1534.27 Q1319.65 1531.54 1326.21 1531.54 Q1329.45 1531.54 1332.32 1532.01 Q1335.18 1532.49 1337.6 1533.45 Z" fill="#000000" fill-rule="nonzero" fill-opacity="1" /><path clip-path="url(#clip540)" d="M1362.65 1536.5 Q1357.94 1536.5 1355.2 1540.19 Q1352.47 1543.85 1352.47 1550.25 Q1352.47 1556.65 1355.17 1560.34 Q1357.91 1564 1362.65 1564 Q1367.33 1564 1370.07 1560.31 Q1372.81 1556.62 1372.81 1550.25 Q1372.81 1543.92 1370.07 1540.23 Q1367.33 1536.5 1362.65 1536.5 M1362.65 1531.54 Q1370.29 1531.54 1374.65 1536.5 Q1379.01 1541.47 1379.01 1550.25 Q1379.01 1559 1374.65 1564 Q1370.29 1568.97 1362.65 1568.97 Q1354.98 1568.97 1350.62 1564 Q1346.29 1559 1346.29 1550.25 Q1346.29 1541.47 1350.62 1536.5 Q1354.98 1531.54 1362.65 1531.54 Z" fill="#000000" fill-rule="nonzero" fill-opacity="1" /><path clip-path="url(#clip540)" d="M1411.44 1533.45 L1411.44 1538.98 Q1408.96 1537.71 1406.29 1537.07 Q1403.62 1536.44 1400.75 1536.44 Q1396.39 1536.44 1394.19 1537.77 Q1392.03 1539.11 1392.03 1541.79 Q1392.03 1543.82 1393.59 1545 Q1395.15 1546.15 1399.86 1547.2 L1401.86 1547.64 Q1408.1 1548.98 1410.71 1551.43 Q1413.35 1553.85 1413.35 1558.21 Q1413.35 1563.17 1409.41 1566.07 Q1405.49 1568.97 1398.62 1568.97 Q1395.75 1568.97 1392.63 1568.39 Q1389.55 1567.85 1386.11 1566.74 L1386.11 1560.69 Q1389.36 1562.38 1392.51 1563.24 Q1395.66 1564.07 1398.75 1564.07 Q1402.88 1564.07 1405.11 1562.66 Q1407.34 1561.23 1407.34 1558.65 Q1407.34 1556.27 1405.72 1554.99 Q1404.12 1553.72 1398.68 1552.54 L1396.64 1552.07 Q1391.2 1550.92 1388.78 1548.56 Q1386.36 1546.18 1386.36 1542.04 Q1386.36 1537.01 1389.93 1534.27 Q1393.49 1531.54 1400.05 1531.54 Q1403.3 1531.54 1406.16 1532.01 Q1409.03 1532.49 1411.44 1533.45 Z" fill="#000000" fill-rule="nonzero" fill-opacity="1" /><polyline clip-path="url(#clip542)" style="stroke:#000000; stroke-linecap:round; stroke-linejoin:round; stroke-width:2; stroke-opacity:0.1; fill:none" points="265.445,1384.38 2352.76,1384.38 "/>
<polyline clip-path="url(#clip542)" style="stroke:#000000; stroke-linecap:round; stroke-linejoin:round; stroke-width:2; stroke-opacity:0.1; fill:none" points="265.445,1103.14 2352.76,1103.14 "/>
<polyline clip-path="url(#clip542)" style="stroke:#000000; stroke-linecap:round; stroke-linejoin:round; stroke-width:2; stroke-opacity:0.1; fill:none" points="265.445,821.903 2352.76,821.903 "/>
<polyline clip-path="url(#clip542)" style="stroke:#000000; stroke-linecap:round; stroke-linejoin:round; stroke-width:2; stroke-opacity:0.1; fill:none" points="265.445,540.666 2352.76,540.666 "/>
<polyline clip-path="url(#clip542)" style="stroke:#000000; stroke-linecap:round; stroke-linejoin:round; stroke-width:2; stroke-opacity:0.1; fill:none" points="265.445,259.428 2352.76,259.428 "/>
<polyline clip-path="url(#clip540)" style="stroke:#000000; stroke-linecap:round; stroke-linejoin:round; stroke-width:4; stroke-opacity:1; fill:none" points="265.445,1423.18 265.445,47.2441 "/>
<polyline clip-path="url(#clip540)" style="stroke:#000000; stroke-linecap:round; stroke-linejoin:round; stroke-width:4; stroke-opacity:1; fill:none" points="265.445,1384.38 284.342,1384.38 "/>
<polyline clip-path="url(#clip540)" style="stroke:#000000; stroke-linecap:round; stroke-linejoin:round; stroke-width:4; stroke-opacity:1; fill:none" points="265.445,1103.14 284.342,1103.14 "/>
<polyline clip-path="url(#clip540)" style="stroke:#000000; stroke-linecap:round; stroke-linejoin:round; stroke-width:4; stroke-opacity:1; fill:none" points="265.445,821.903 284.342,821.903 "/>
<polyline clip-path="url(#clip540)" style="stroke:#000000; stroke-linecap:round; stroke-linejoin:round; stroke-width:4; stroke-opacity:1; fill:none" points="265.445,540.666 284.342,540.666 "/>
<polyline clip-path="url(#clip540)" style="stroke:#000000; stroke-linecap:round; stroke-linejoin:round; stroke-width:4; stroke-opacity:1; fill:none" points="265.445,259.428 284.342,259.428 "/>
<path clip-path="url(#clip540)" d="M217.5 1370.18 Q213.889 1370.18 212.061 1373.74 Q210.255 1377.28 210.255 1384.41 Q210.255 1391.52 212.061 1395.08 Q213.889 1398.63 217.5 1398.63 Q221.135 1398.63 222.94 1395.08 Q224.769 1391.52 224.769 1384.41 Q224.769 1377.28 222.94 1373.74 Q221.135 1370.18 217.5 1370.18 M217.5 1366.47 Q223.31 1366.47 226.366 1371.08 Q229.445 1375.66 229.445 1384.41 Q229.445 1393.14 226.366 1397.75 Q223.31 1402.33 217.5 1402.33 Q211.69 1402.33 208.612 1397.75 Q205.556 1393.14 205.556 1384.41 Q205.556 1375.66 208.612 1371.08 Q211.69 1366.47 217.5 1366.47 Z" fill="#000000" fill-rule="nonzero" fill-opacity="1" /><path clip-path="url(#clip540)" d="M121.043 1116.49 L137.362 1116.49 L137.362 1120.42 L115.418 1120.42 L115.418 1116.49 Q118.08 1113.73 122.663 1109.1 Q127.269 1104.45 128.45 1103.11 Q130.695 1100.58 131.575 1098.85 Q132.478 1097.09 132.478 1095.4 Q132.478 1092.64 130.533 1090.91 Q128.612 1089.17 125.51 1089.17 Q123.311 1089.17 120.857 1089.94 Q118.427 1090.7 115.649 1092.25 L115.649 1087.53 Q118.473 1086.39 120.927 1085.81 Q123.38 1085.24 125.418 1085.24 Q130.788 1085.24 133.982 1087.92 Q137.177 1090.61 137.177 1095.1 Q137.177 1097.23 136.367 1099.15 Q135.579 1101.05 133.473 1103.64 Q132.894 1104.31 129.792 1107.53 Q126.691 1110.72 121.043 1116.49 Z" fill="#000000" fill-rule="nonzero" fill-opacity="1" /><path clip-path="url(#clip540)" d="M157.177 1088.94 Q153.566 1088.94 151.737 1092.5 Q149.931 1096.05 149.931 1103.18 Q149.931 1110.28 151.737 1113.85 Q153.566 1117.39 157.177 1117.39 Q160.811 1117.39 162.616 1113.85 Q164.445 1110.28 164.445 1103.18 Q164.445 1096.05 162.616 1092.5 Q160.811 1088.94 157.177 1088.94 M157.177 1085.24 Q162.987 1085.24 166.042 1089.84 Q169.121 1094.43 169.121 1103.18 Q169.121 1111.9 166.042 1116.51 Q162.987 1121.09 157.177 1121.09 Q151.366 1121.09 148.288 1116.51 Q145.232 1111.9 145.232 1103.18 Q145.232 1094.43 148.288 1089.84 Q151.366 1085.24 157.177 1085.24 Z" fill="#000000" fill-rule="nonzero" fill-opacity="1" /><path clip-path="url(#clip540)" d="M187.338 1088.94 Q183.727 1088.94 181.899 1092.5 Q180.093 1096.05 180.093 1103.18 Q180.093 1110.28 181.899 1113.85 Q183.727 1117.39 187.338 1117.39 Q190.973 1117.39 192.778 1113.85 Q194.607 1110.28 194.607 1103.18 Q194.607 1096.05 192.778 1092.5 Q190.973 1088.94 187.338 1088.94 M187.338 1085.24 Q193.149 1085.24 196.204 1089.84 Q199.283 1094.43 199.283 1103.18 Q199.283 1111.9 196.204 1116.51 Q193.149 1121.09 187.338 1121.09 Q181.528 1121.09 178.45 1116.51 Q175.394 1111.9 175.394 1103.18 Q175.394 1094.43 178.45 1089.84 Q181.528 1085.24 187.338 1085.24 Z" fill="#000000" fill-rule="nonzero" fill-opacity="1" /><path clip-path="url(#clip540)" d="M217.5 1088.94 Q213.889 1088.94 212.061 1092.5 Q210.255 1096.05 210.255 1103.18 Q210.255 1110.28 212.061 1113.85 Q213.889 1117.39 217.5 1117.39 Q221.135 1117.39 222.94 1113.85 Q224.769 1110.28 224.769 1103.18 Q224.769 1096.05 222.94 1092.5 Q221.135 1088.94 217.5 1088.94 M217.5 1085.24 Q223.31 1085.24 226.366 1089.84 Q229.445 1094.43 229.445 1103.18 Q229.445 1111.9 226.366 1116.51 Q223.31 1121.09 217.5 1121.09 Q211.69 1121.09 208.612 1116.51 Q205.556 1111.9 205.556 1103.18 Q205.556 1094.43 208.612 1089.84 Q211.69 1085.24 217.5 1085.24 Z" fill="#000000" fill-rule="nonzero" fill-opacity="1" /><path clip-path="url(#clip540)" d="M129.862 808.698 L118.056 827.147 L129.862 827.147 L129.862 808.698 M128.635 804.623 L134.515 804.623 L134.515 827.147 L139.445 827.147 L139.445 831.035 L134.515 831.035 L134.515 839.183 L129.862 839.183 L129.862 831.035 L114.26 831.035 L114.26 826.522 L128.635 804.623 Z" fill="#000000" fill-rule="nonzero" fill-opacity="1" /><path clip-path="url(#clip540)" d="M157.177 807.702 Q153.566 807.702 151.737 811.267 Q149.931 814.809 149.931 821.938 Q149.931 829.045 151.737 832.609 Q153.566 836.151 157.177 836.151 Q160.811 836.151 162.616 832.609 Q164.445 829.045 164.445 821.938 Q164.445 814.809 162.616 811.267 Q160.811 807.702 157.177 807.702 M157.177 803.998 Q162.987 803.998 166.042 808.605 Q169.121 813.188 169.121 821.938 Q169.121 830.665 166.042 835.271 Q162.987 839.855 157.177 839.855 Q151.366 839.855 148.288 835.271 Q145.232 830.665 145.232 821.938 Q145.232 813.188 148.288 808.605 Q151.366 803.998 157.177 803.998 Z" fill="#000000" fill-rule="nonzero" fill-opacity="1" /><path clip-path="url(#clip540)" d="M187.338 807.702 Q183.727 807.702 181.899 811.267 Q180.093 814.809 180.093 821.938 Q180.093 829.045 181.899 832.609 Q183.727 836.151 187.338 836.151 Q190.973 836.151 192.778 832.609 Q194.607 829.045 194.607 821.938 Q194.607 814.809 192.778 811.267 Q190.973 807.702 187.338 807.702 M187.338 803.998 Q193.149 803.998 196.204 808.605 Q199.283 813.188 199.283 821.938 Q199.283 830.665 196.204 835.271 Q193.149 839.855 187.338 839.855 Q181.528 839.855 178.45 835.271 Q175.394 830.665 175.394 821.938 Q175.394 813.188 178.45 808.605 Q181.528 803.998 187.338 803.998 Z" fill="#000000" fill-rule="nonzero" fill-opacity="1" /><path clip-path="url(#clip540)" d="M217.5 807.702 Q213.889 807.702 212.061 811.267 Q210.255 814.809 210.255 821.938 Q210.255 829.045 212.061 832.609 Q213.889 836.151 217.5 836.151 Q221.135 836.151 222.94 832.609 Q224.769 829.045 224.769 821.938 Q224.769 814.809 222.94 811.267 Q221.135 807.702 217.5 807.702 M217.5 803.998 Q223.31 803.998 226.366 808.605 Q229.445 813.188 229.445 821.938 Q229.445 830.665 226.366 835.271 Q223.31 839.855 217.5 839.855 Q211.69 839.855 208.612 835.271 Q205.556 830.665 205.556 821.938 Q205.556 813.188 208.612 808.605 Q211.69 803.998 217.5 803.998 Z" fill="#000000" fill-rule="nonzero" fill-opacity="1" /><path clip-path="url(#clip540)" d="M127.593 538.802 Q124.445 538.802 122.593 540.955 Q120.765 543.108 120.765 546.858 Q120.765 550.585 122.593 552.761 Q124.445 554.913 127.593 554.913 Q130.742 554.913 132.57 552.761 Q134.422 550.585 134.422 546.858 Q134.422 543.108 132.57 540.955 Q130.742 538.802 127.593 538.802 M136.876 524.15 L136.876 528.409 Q135.117 527.576 133.311 527.136 Q131.529 526.696 129.769 526.696 Q125.14 526.696 122.686 529.821 Q120.255 532.946 119.908 539.265 Q121.274 537.251 123.334 536.187 Q125.394 535.099 127.871 535.099 Q133.08 535.099 136.089 538.27 Q139.121 541.418 139.121 546.858 Q139.121 552.182 135.973 555.4 Q132.825 558.617 127.593 558.617 Q121.598 558.617 118.427 554.034 Q115.256 549.427 115.256 540.701 Q115.256 532.506 119.144 527.645 Q123.033 522.761 129.584 522.761 Q131.343 522.761 133.126 523.108 Q134.931 523.455 136.876 524.15 Z" fill="#000000" fill-rule="nonzero" fill-opacity="1" /><path clip-path="url(#clip540)" d="M157.177 526.464 Q153.566 526.464 151.737 530.029 Q149.931 533.571 149.931 540.701 Q149.931 547.807 151.737 551.372 Q153.566 554.913 157.177 554.913 Q160.811 554.913 162.616 551.372 Q164.445 547.807 164.445 540.701 Q164.445 533.571 162.616 530.029 Q160.811 526.464 157.177 526.464 M157.177 522.761 Q162.987 522.761 166.042 527.367 Q169.121 531.951 169.121 540.701 Q169.121 549.427 166.042 554.034 Q162.987 558.617 157.177 558.617 Q151.366 558.617 148.288 554.034 Q145.232 549.427 145.232 540.701 Q145.232 531.951 148.288 527.367 Q151.366 522.761 157.177 522.761 Z" fill="#000000" fill-rule="nonzero" fill-opacity="1" /><path clip-path="url(#clip540)" d="M187.338 526.464 Q183.727 526.464 181.899 530.029 Q180.093 533.571 180.093 540.701 Q180.093 547.807 181.899 551.372 Q183.727 554.913 187.338 554.913 Q190.973 554.913 192.778 551.372 Q194.607 547.807 194.607 540.701 Q194.607 533.571 192.778 530.029 Q190.973 526.464 187.338 526.464 M187.338 522.761 Q193.149 522.761 196.204 527.367 Q199.283 531.951 199.283 540.701 Q199.283 549.427 196.204 554.034 Q193.149 558.617 187.338 558.617 Q181.528 558.617 178.45 554.034 Q175.394 549.427 175.394 540.701 Q175.394 531.951 178.45 527.367 Q181.528 522.761 187.338 522.761 Z" fill="#000000" fill-rule="nonzero" fill-opacity="1" /><path clip-path="url(#clip540)" d="M217.5 526.464 Q213.889 526.464 212.061 530.029 Q210.255 533.571 210.255 540.701 Q210.255 547.807 212.061 551.372 Q213.889 554.913 217.5 554.913 Q221.135 554.913 222.94 551.372 Q224.769 547.807 224.769 540.701 Q224.769 533.571 222.94 530.029 Q221.135 526.464 217.5 526.464 M217.5 522.761 Q223.31 522.761 226.366 527.367 Q229.445 531.951 229.445 540.701 Q229.445 549.427 226.366 554.034 Q223.31 558.617 217.5 558.617 Q211.69 558.617 208.612 554.034 Q205.556 549.427 205.556 540.701 Q205.556 531.951 208.612 527.367 Q211.69 522.761 217.5 522.761 Z" fill="#000000" fill-rule="nonzero" fill-opacity="1" /><path clip-path="url(#clip540)" d="M127.015 260.296 Q123.681 260.296 121.76 262.079 Q119.862 263.861 119.862 266.986 Q119.862 270.111 121.76 271.893 Q123.681 273.676 127.015 273.676 Q130.348 273.676 132.269 271.893 Q134.191 270.088 134.191 266.986 Q134.191 263.861 132.269 262.079 Q130.371 260.296 127.015 260.296 M122.339 258.305 Q119.33 257.565 117.64 255.505 Q115.973 253.444 115.973 250.481 Q115.973 246.338 118.913 243.93 Q121.876 241.523 127.015 241.523 Q132.177 241.523 135.117 243.93 Q138.056 246.338 138.056 250.481 Q138.056 253.444 136.367 255.505 Q134.7 257.565 131.714 258.305 Q135.093 259.092 136.968 261.384 Q138.867 263.676 138.867 266.986 Q138.867 272.009 135.788 274.694 Q132.732 277.379 127.015 277.379 Q121.297 277.379 118.218 274.694 Q115.163 272.009 115.163 266.986 Q115.163 263.676 117.061 261.384 Q118.959 259.092 122.339 258.305 M120.626 250.921 Q120.626 253.606 122.293 255.111 Q123.982 256.616 127.015 256.616 Q130.024 256.616 131.714 255.111 Q133.427 253.606 133.427 250.921 Q133.427 248.236 131.714 246.731 Q130.024 245.227 127.015 245.227 Q123.982 245.227 122.293 246.731 Q120.626 248.236 120.626 250.921 Z" fill="#000000" fill-rule="nonzero" fill-opacity="1" /><path clip-path="url(#clip540)" d="M157.177 245.227 Q153.566 245.227 151.737 248.792 Q149.931 252.333 149.931 259.463 Q149.931 266.569 151.737 270.134 Q153.566 273.676 157.177 273.676 Q160.811 273.676 162.616 270.134 Q164.445 266.569 164.445 259.463 Q164.445 252.333 162.616 248.792 Q160.811 245.227 157.177 245.227 M157.177 241.523 Q162.987 241.523 166.042 246.13 Q169.121 250.713 169.121 259.463 Q169.121 268.19 166.042 272.796 Q162.987 277.379 157.177 277.379 Q151.366 277.379 148.288 272.796 Q145.232 268.19 145.232 259.463 Q145.232 250.713 148.288 246.13 Q151.366 241.523 157.177 241.523 Z" fill="#000000" fill-rule="nonzero" fill-opacity="1" /><path clip-path="url(#clip540)" d="M187.338 245.227 Q183.727 245.227 181.899 248.792 Q180.093 252.333 180.093 259.463 Q180.093 266.569 181.899 270.134 Q183.727 273.676 187.338 273.676 Q190.973 273.676 192.778 270.134 Q194.607 266.569 194.607 259.463 Q194.607 252.333 192.778 248.792 Q190.973 245.227 187.338 245.227 M187.338 241.523 Q193.149 241.523 196.204 246.13 Q199.283 250.713 199.283 259.463 Q199.283 268.19 196.204 272.796 Q193.149 277.379 187.338 277.379 Q181.528 277.379 178.45 272.796 Q175.394 268.19 175.394 259.463 Q175.394 250.713 178.45 246.13 Q181.528 241.523 187.338 241.523 Z" fill="#000000" fill-rule="nonzero" fill-opacity="1" /><path clip-path="url(#clip540)" d="M217.5 245.227 Q213.889 245.227 212.061 248.792 Q210.255 252.333 210.255 259.463 Q210.255 266.569 212.061 270.134 Q213.889 273.676 217.5 273.676 Q221.135 273.676 222.94 270.134 Q224.769 266.569 224.769 259.463 Q224.769 252.333 222.94 248.792 Q221.135 245.227 217.5 245.227 M217.5 241.523 Q223.31 241.523 226.366 246.13 Q229.445 250.713 229.445 259.463 Q229.445 268.19 226.366 272.796 Q223.31 277.379 217.5 277.379 Q211.69 277.379 208.612 272.796 Q205.556 268.19 205.556 259.463 Q205.556 250.713 208.612 246.13 Q211.69 241.523 217.5 241.523 Z" fill="#000000" fill-rule="nonzero" fill-opacity="1" /><path clip-path="url(#clip540)" d="M64.0042 833.674 L16.4842 851.816 L16.4842 845.1 L56.4926 830.045 L16.4842 814.958 L16.4842 808.274 L64.0042 826.385 L64.0042 833.674 Z" fill="#000000" fill-rule="nonzero" fill-opacity="1" /><path clip-path="url(#clip540)" d="M46.0847 790.45 Q46.0847 797.548 47.7079 800.285 Q49.3312 803.023 53.2461 803.023 Q56.3653 803.023 58.2114 800.986 Q60.0256 798.917 60.0256 795.384 Q60.0256 790.514 56.5881 787.586 Q53.1188 784.626 47.3897 784.626 L46.0847 784.626 L46.0847 790.45 M43.6657 778.769 L64.0042 778.769 L64.0042 784.626 L58.5933 784.626 Q61.8398 786.631 63.3994 789.623 Q64.9272 792.615 64.9272 796.943 Q64.9272 802.418 61.8716 805.664 Q58.7843 808.879 53.6281 808.879 Q47.6125 808.879 44.5569 804.869 Q41.5014 800.826 41.5014 792.838 L41.5014 784.626 L40.9285 784.626 Q36.8862 784.626 34.6901 787.299 Q32.4621 789.941 32.4621 794.747 Q32.4621 797.803 33.1941 800.699 Q33.9262 803.596 35.3903 806.269 L29.9795 806.269 Q28.7381 803.054 28.1334 800.031 Q27.4968 797.007 27.4968 794.142 Q27.4968 786.408 31.5072 782.589 Q35.5176 778.769 43.6657 778.769 Z" fill="#000000" fill-rule="nonzero" fill-opacity="1" /><path clip-path="url(#clip540)" d="M14.479 766.706 L14.479 760.85 L64.0042 760.85 L64.0042 766.706 L14.479 766.706 Z" fill="#000000" fill-rule="nonzero" fill-opacity="1" /><path clip-path="url(#clip540)" d="M32.4621 734.782 Q32.4621 739.493 36.1542 742.23 Q39.8145 744.967 46.212 744.967 Q52.6095 744.967 56.3017 742.262 Q59.9619 739.525 59.9619 734.782 Q59.9619 730.103 56.2698 727.366 Q52.5777 724.629 46.212 724.629 Q39.8781 724.629 36.186 727.366 Q32.4621 730.103 32.4621 734.782 M27.4968 734.782 Q27.4968 727.143 32.4621 722.783 Q37.4273 718.422 46.212 718.422 Q54.9649 718.422 59.9619 722.783 Q64.9272 727.143 64.9272 734.782 Q64.9272 742.453 59.9619 746.813 Q54.9649 751.142 46.212 751.142 Q37.4273 751.142 32.4621 746.813 Q27.4968 742.453 27.4968 734.782 Z" fill="#000000" fill-rule="nonzero" fill-opacity="1" /><path clip-path="url(#clip540)" d="M33.8307 688.058 Q33.2578 689.045 33.0032 690.222 Q32.7167 691.368 32.7167 692.769 Q32.7167 697.734 35.9632 700.407 Q39.1779 703.049 45.2253 703.049 L64.0042 703.049 L64.0042 708.938 L28.3562 708.938 L28.3562 703.049 L33.8944 703.049 Q30.6479 701.203 29.0883 698.243 Q27.4968 695.283 27.4968 691.05 Q27.4968 690.445 27.5923 689.713 Q27.656 688.981 27.8151 688.09 L33.8307 688.058 Z" fill="#000000" fill-rule="nonzero" fill-opacity="1" /><path clip-path="url(#clip540)" d="M44.7161 652.856 L47.5806 652.856 L47.5806 679.783 Q53.6281 679.401 56.8109 676.154 Q59.9619 672.876 59.9619 667.051 Q59.9619 663.677 59.1344 660.526 Q58.3069 657.343 56.6518 654.224 L62.1899 654.224 Q63.5267 657.375 64.227 660.685 Q64.9272 663.996 64.9272 667.401 Q64.9272 675.931 59.9619 680.928 Q54.9967 685.894 46.5303 685.894 Q37.7774 685.894 32.6531 681.183 Q27.4968 676.441 27.4968 668.42 Q27.4968 661.227 32.1438 657.057 Q36.7589 652.856 44.7161 652.856 M42.9973 658.712 Q38.1912 658.776 35.3266 661.418 Q32.4621 664.027 32.4621 668.356 Q32.4621 673.258 35.2312 676.218 Q38.0002 679.146 43.0292 679.592 L42.9973 658.712 Z" fill="#000000" fill-rule="nonzero" fill-opacity="1" /><path clip-path="url(#clip540)" d="M29.4065 620.518 L34.9447 620.518 Q33.6716 623 33.035 625.674 Q32.3984 628.348 32.3984 631.212 Q32.3984 635.573 33.7352 637.769 Q35.072 639.933 37.7456 639.933 Q39.7826 639.933 40.9603 638.374 Q42.1061 636.814 43.1565 632.103 L43.6021 630.098 Q44.9389 623.86 47.3897 621.25 Q49.8086 618.608 54.1691 618.608 Q59.1344 618.608 62.0308 622.555 Q64.9272 626.47 64.9272 633.345 Q64.9272 636.209 64.3543 639.329 Q63.8132 642.416 62.6992 645.853 L56.6518 645.853 Q58.3387 642.607 59.198 639.456 Q60.0256 636.305 60.0256 633.217 Q60.0256 629.08 58.6251 626.852 Q57.1929 624.624 54.6147 624.624 Q52.2276 624.624 50.9545 626.247 Q49.6813 627.838 48.5037 633.281 L48.0262 635.318 Q46.8804 640.761 44.5251 643.18 Q42.138 645.599 38.0002 645.599 Q32.9713 645.599 30.2341 642.034 Q27.4968 638.469 27.4968 631.912 Q27.4968 628.666 27.9743 625.801 Q28.4517 622.937 29.4065 620.518 Z" fill="#000000" fill-rule="nonzero" fill-opacity="1" /><polyline clip-path="url(#clip542)" style="stroke:#008000; stroke-linecap:round; stroke-linejoin:round; stroke-width:4; stroke-opacity:1; fill:none" points="324.52,1372.85 342.421,1378.61 360.323,1366.94 378.224,1375.66 396.125,1380.02 414.027,1371.16 431.928,1377.77 449.83,1364.41 467.731,1374.39 485.633,1354.29 503.534,1369.33 521.436,1339.1 539.337,1361.74 557.239,1316.32 575.14,1350.35 593.042,1367.36 610.943,1333.19 628.845,1358.79 646.746,1371.58 664.647,1345.85 682.549,1365.11 700.45,1326.44 718.352,1355.41 736.253,1369.9 754.155,1340.79 772.056,1362.58 789.958,1318.85 807.859,1351.61 825.761,1285.95 843.662,1335.16 861.564,1359.77 879.465,1310.41 897.367,1347.4 915.268,1273.29 933.169,1328.83 951.071,1217.6 968.972,1300.99 986.874,1134.08 1004.78,1259.23 1022.68,1321.8 1040.58,1196.51 1058.48,1290.45 1076.38,1337.41 1094.28,1360.9 1112.18,1313.79 1130.09,1349.08 1147.99,1278.35 1165.89,1331.37 1183.79,1225.2 1201.69,1304.79 1219.59,1344.58 1237.49,1264.85 1255.4,1324.62 1273.3,1204.95 1291.2,1294.66 1309.1,1339.52 1327,1249.67 1344.9,1317.02 1362.8,1182.17 1380.71,1283.27 1398.61,1080.92 1416.51,1232.65 1434.41,929.055 1452.31,1156.72 1470.21,701.253 1488.11,1042.82 1506.02,359.549 1523.92,871.964 1541.82,1128.17 1559.72,1256.28 1577.62,999.927 1595.52,1192.15 1613.43,807.56 1631.33,1095.97 1649.23,519.01 1667.13,951.695 1685.03,86.1857 1702.93,735.282 1720.83,1059.83 1738.74,1222.1 1756.64,1303.24 1774.54,1140.83 1792.44,1262.6 1810.34,1323.49 1828.24,1201.57 1846.14,1292.98 1864.05,1338.68 1881.95,1247.13 1899.85,1315.76 1917.75,1350.07 1935.65,1367.22 1953.55,1375.8 1971.45,1358.51 1989.36,1371.44 2007.26,1377.91 2025.16,1381.14 2043.06,1374.54 2060.96,1379.46 2078.86,1369.47 2096.76,1376.93 2114.67,1361.88 2132.57,1373.13 2150.47,1378.75 2168.37,1381.57 2186.27,1382.97 2204.17,1383.68 2222.08,1382.13 2239.98,1383.25 2257.88,1383.82 2275.78,1384.1 2293.68,1384.24 "/>
<circle clip-path="url(#clip542)" cx="324.52" cy="1372.85" r="14.4" fill="#008000" fill-rule="evenodd" fill-opacity="1" stroke="#000000" stroke-opacity="1" stroke-width="3.2"/>
<circle clip-path="url(#clip542)" cx="342.421" cy="1378.61" r="14.4" fill="#008000" fill-rule="evenodd" fill-opacity="1" stroke="#000000" stroke-opacity="1" stroke-width="3.2"/>
<circle clip-path="url(#clip542)" cx="360.323" cy="1366.94" r="14.4" fill="#008000" fill-rule="evenodd" fill-opacity="1" stroke="#000000" stroke-opacity="1" stroke-width="3.2"/>
<circle clip-path="url(#clip542)" cx="378.224" cy="1375.66" r="14.4" fill="#008000" fill-rule="evenodd" fill-opacity="1" stroke="#000000" stroke-opacity="1" stroke-width="3.2"/>
<circle clip-path="url(#clip542)" cx="396.125" cy="1380.02" r="14.4" fill="#008000" fill-rule="evenodd" fill-opacity="1" stroke="#000000" stroke-opacity="1" stroke-width="3.2"/>
<circle clip-path="url(#clip542)" cx="414.027" cy="1371.16" r="14.4" fill="#008000" fill-rule="evenodd" fill-opacity="1" stroke="#000000" stroke-opacity="1" stroke-width="3.2"/>
<circle clip-path="url(#clip542)" cx="431.928" cy="1377.77" r="14.4" fill="#008000" fill-rule="evenodd" fill-opacity="1" stroke="#000000" stroke-opacity="1" stroke-width="3.2"/>
<circle clip-path="url(#clip542)" cx="449.83" cy="1364.41" r="14.4" fill="#008000" fill-rule="evenodd" fill-opacity="1" stroke="#000000" stroke-opacity="1" stroke-width="3.2"/>
<circle clip-path="url(#clip542)" cx="467.731" cy="1374.39" r="14.4" fill="#008000" fill-rule="evenodd" fill-opacity="1" stroke="#000000" stroke-opacity="1" stroke-width="3.2"/>
<circle clip-path="url(#clip542)" cx="485.633" cy="1354.29" r="14.4" fill="#008000" fill-rule="evenodd" fill-opacity="1" stroke="#000000" stroke-opacity="1" stroke-width="3.2"/>
<circle clip-path="url(#clip542)" cx="503.534" cy="1369.33" r="14.4" fill="#008000" fill-rule="evenodd" fill-opacity="1" stroke="#000000" stroke-opacity="1" stroke-width="3.2"/>
<circle clip-path="url(#clip542)" cx="521.436" cy="1339.1" r="14.4" fill="#008000" fill-rule="evenodd" fill-opacity="1" stroke="#000000" stroke-opacity="1" stroke-width="3.2"/>
<circle clip-path="url(#clip542)" cx="539.337" cy="1361.74" r="14.4" fill="#008000" fill-rule="evenodd" fill-opacity="1" stroke="#000000" stroke-opacity="1" stroke-width="3.2"/>
<circle clip-path="url(#clip542)" cx="557.239" cy="1316.32" r="14.4" fill="#008000" fill-rule="evenodd" fill-opacity="1" stroke="#000000" stroke-opacity="1" stroke-width="3.2"/>
<circle clip-path="url(#clip542)" cx="575.14" cy="1350.35" r="14.4" fill="#008000" fill-rule="evenodd" fill-opacity="1" stroke="#000000" stroke-opacity="1" stroke-width="3.2"/>
<circle clip-path="url(#clip542)" cx="593.042" cy="1367.36" r="14.4" fill="#008000" fill-rule="evenodd" fill-opacity="1" stroke="#000000" stroke-opacity="1" stroke-width="3.2"/>
<circle clip-path="url(#clip542)" cx="610.943" cy="1333.19" r="14.4" fill="#008000" fill-rule="evenodd" fill-opacity="1" stroke="#000000" stroke-opacity="1" stroke-width="3.2"/>
<circle clip-path="url(#clip542)" cx="628.845" cy="1358.79" r="14.4" fill="#008000" fill-rule="evenodd" fill-opacity="1" stroke="#000000" stroke-opacity="1" stroke-width="3.2"/>
<circle clip-path="url(#clip542)" cx="646.746" cy="1371.58" r="14.4" fill="#008000" fill-rule="evenodd" fill-opacity="1" stroke="#000000" stroke-opacity="1" stroke-width="3.2"/>
<circle clip-path="url(#clip542)" cx="664.647" cy="1345.85" r="14.4" fill="#008000" fill-rule="evenodd" fill-opacity="1" stroke="#000000" stroke-opacity="1" stroke-width="3.2"/>
<circle clip-path="url(#clip542)" cx="682.549" cy="1365.11" r="14.4" fill="#008000" fill-rule="evenodd" fill-opacity="1" stroke="#000000" stroke-opacity="1" stroke-width="3.2"/>
<circle clip-path="url(#clip542)" cx="700.45" cy="1326.44" r="14.4" fill="#008000" fill-rule="evenodd" fill-opacity="1" stroke="#000000" stroke-opacity="1" stroke-width="3.2"/>
<circle clip-path="url(#clip542)" cx="718.352" cy="1355.41" r="14.4" fill="#008000" fill-rule="evenodd" fill-opacity="1" stroke="#000000" stroke-opacity="1" stroke-width="3.2"/>
<circle clip-path="url(#clip542)" cx="736.253" cy="1369.9" r="14.4" fill="#008000" fill-rule="evenodd" fill-opacity="1" stroke="#000000" stroke-opacity="1" stroke-width="3.2"/>
<circle clip-path="url(#clip542)" cx="754.155" cy="1340.79" r="14.4" fill="#008000" fill-rule="evenodd" fill-opacity="1" stroke="#000000" stroke-opacity="1" stroke-width="3.2"/>
<circle clip-path="url(#clip542)" cx="772.056" cy="1362.58" r="14.4" fill="#008000" fill-rule="evenodd" fill-opacity="1" stroke="#000000" stroke-opacity="1" stroke-width="3.2"/>
<circle clip-path="url(#clip542)" cx="789.958" cy="1318.85" r="14.4" fill="#008000" fill-rule="evenodd" fill-opacity="1" stroke="#000000" stroke-opacity="1" stroke-width="3.2"/>
<circle clip-path="url(#clip542)" cx="807.859" cy="1351.61" r="14.4" fill="#008000" fill-rule="evenodd" fill-opacity="1" stroke="#000000" stroke-opacity="1" stroke-width="3.2"/>
<circle clip-path="url(#clip542)" cx="825.761" cy="1285.95" r="14.4" fill="#008000" fill-rule="evenodd" fill-opacity="1" stroke="#000000" stroke-opacity="1" stroke-width="3.2"/>
<circle clip-path="url(#clip542)" cx="843.662" cy="1335.16" r="14.4" fill="#008000" fill-rule="evenodd" fill-opacity="1" stroke="#000000" stroke-opacity="1" stroke-width="3.2"/>
<circle clip-path="url(#clip542)" cx="861.564" cy="1359.77" r="14.4" fill="#008000" fill-rule="evenodd" fill-opacity="1" stroke="#000000" stroke-opacity="1" stroke-width="3.2"/>
<circle clip-path="url(#clip542)" cx="879.465" cy="1310.41" r="14.4" fill="#008000" fill-rule="evenodd" fill-opacity="1" stroke="#000000" stroke-opacity="1" stroke-width="3.2"/>
<circle clip-path="url(#clip542)" cx="897.367" cy="1347.4" r="14.4" fill="#008000" fill-rule="evenodd" fill-opacity="1" stroke="#000000" stroke-opacity="1" stroke-width="3.2"/>
<circle clip-path="url(#clip542)" cx="915.268" cy="1273.29" r="14.4" fill="#008000" fill-rule="evenodd" fill-opacity="1" stroke="#000000" stroke-opacity="1" stroke-width="3.2"/>
<circle clip-path="url(#clip542)" cx="933.169" cy="1328.83" r="14.4" fill="#008000" fill-rule="evenodd" fill-opacity="1" stroke="#000000" stroke-opacity="1" stroke-width="3.2"/>
<circle clip-path="url(#clip542)" cx="951.071" cy="1217.6" r="14.4" fill="#008000" fill-rule="evenodd" fill-opacity="1" stroke="#000000" stroke-opacity="1" stroke-width="3.2"/>
<circle clip-path="url(#clip542)" cx="968.972" cy="1300.99" r="14.4" fill="#008000" fill-rule="evenodd" fill-opacity="1" stroke="#000000" stroke-opacity="1" stroke-width="3.2"/>
<circle clip-path="url(#clip542)" cx="986.874" cy="1134.08" r="14.4" fill="#008000" fill-rule="evenodd" fill-opacity="1" stroke="#000000" stroke-opacity="1" stroke-width="3.2"/>
<circle clip-path="url(#clip542)" cx="1004.78" cy="1259.23" r="14.4" fill="#008000" fill-rule="evenodd" fill-opacity="1" stroke="#000000" stroke-opacity="1" stroke-width="3.2"/>
<circle clip-path="url(#clip542)" cx="1022.68" cy="1321.8" r="14.4" fill="#008000" fill-rule="evenodd" fill-opacity="1" stroke="#000000" stroke-opacity="1" stroke-width="3.2"/>
<circle clip-path="url(#clip542)" cx="1040.58" cy="1196.51" r="14.4" fill="#008000" fill-rule="evenodd" fill-opacity="1" stroke="#000000" stroke-opacity="1" stroke-width="3.2"/>
<circle clip-path="url(#clip542)" cx="1058.48" cy="1290.45" r="14.4" fill="#008000" fill-rule="evenodd" fill-opacity="1" stroke="#000000" stroke-opacity="1" stroke-width="3.2"/>
<circle clip-path="url(#clip542)" cx="1076.38" cy="1337.41" r="14.4" fill="#008000" fill-rule="evenodd" fill-opacity="1" stroke="#000000" stroke-opacity="1" stroke-width="3.2"/>
<circle clip-path="url(#clip542)" cx="1094.28" cy="1360.9" r="14.4" fill="#008000" fill-rule="evenodd" fill-opacity="1" stroke="#000000" stroke-opacity="1" stroke-width="3.2"/>
<circle clip-path="url(#clip542)" cx="1112.18" cy="1313.79" r="14.4" fill="#008000" fill-rule="evenodd" fill-opacity="1" stroke="#000000" stroke-opacity="1" stroke-width="3.2"/>
<circle clip-path="url(#clip542)" cx="1130.09" cy="1349.08" r="14.4" fill="#008000" fill-rule="evenodd" fill-opacity="1" stroke="#000000" stroke-opacity="1" stroke-width="3.2"/>
<circle clip-path="url(#clip542)" cx="1147.99" cy="1278.35" r="14.4" fill="#008000" fill-rule="evenodd" fill-opacity="1" stroke="#000000" stroke-opacity="1" stroke-width="3.2"/>
<circle clip-path="url(#clip542)" cx="1165.89" cy="1331.37" r="14.4" fill="#008000" fill-rule="evenodd" fill-opacity="1" stroke="#000000" stroke-opacity="1" stroke-width="3.2"/>
<circle clip-path="url(#clip542)" cx="1183.79" cy="1225.2" r="14.4" fill="#008000" fill-rule="evenodd" fill-opacity="1" stroke="#000000" stroke-opacity="1" stroke-width="3.2"/>
<circle clip-path="url(#clip542)" cx="1201.69" cy="1304.79" r="14.4" fill="#008000" fill-rule="evenodd" fill-opacity="1" stroke="#000000" stroke-opacity="1" stroke-width="3.2"/>
<circle clip-path="url(#clip542)" cx="1219.59" cy="1344.58" r="14.4" fill="#008000" fill-rule="evenodd" fill-opacity="1" stroke="#000000" stroke-opacity="1" stroke-width="3.2"/>
<circle clip-path="url(#clip542)" cx="1237.49" cy="1264.85" r="14.4" fill="#008000" fill-rule="evenodd" fill-opacity="1" stroke="#000000" stroke-opacity="1" stroke-width="3.2"/>
<circle clip-path="url(#clip542)" cx="1255.4" cy="1324.62" r="14.4" fill="#008000" fill-rule="evenodd" fill-opacity="1" stroke="#000000" stroke-opacity="1" stroke-width="3.2"/>
<circle clip-path="url(#clip542)" cx="1273.3" cy="1204.95" r="14.4" fill="#008000" fill-rule="evenodd" fill-opacity="1" stroke="#000000" stroke-opacity="1" stroke-width="3.2"/>
<circle clip-path="url(#clip542)" cx="1291.2" cy="1294.66" r="14.4" fill="#008000" fill-rule="evenodd" fill-opacity="1" stroke="#000000" stroke-opacity="1" stroke-width="3.2"/>
<circle clip-path="url(#clip542)" cx="1309.1" cy="1339.52" r="14.4" fill="#008000" fill-rule="evenodd" fill-opacity="1" stroke="#000000" stroke-opacity="1" stroke-width="3.2"/>
<circle clip-path="url(#clip542)" cx="1327" cy="1249.67" r="14.4" fill="#008000" fill-rule="evenodd" fill-opacity="1" stroke="#000000" stroke-opacity="1" stroke-width="3.2"/>
<circle clip-path="url(#clip542)" cx="1344.9" cy="1317.02" r="14.4" fill="#008000" fill-rule="evenodd" fill-opacity="1" stroke="#000000" stroke-opacity="1" stroke-width="3.2"/>
<circle clip-path="url(#clip542)" cx="1362.8" cy="1182.17" r="14.4" fill="#008000" fill-rule="evenodd" fill-opacity="1" stroke="#000000" stroke-opacity="1" stroke-width="3.2"/>
<circle clip-path="url(#clip542)" cx="1380.71" cy="1283.27" r="14.4" fill="#008000" fill-rule="evenodd" fill-opacity="1" stroke="#000000" stroke-opacity="1" stroke-width="3.2"/>
<circle clip-path="url(#clip542)" cx="1398.61" cy="1080.92" r="14.4" fill="#008000" fill-rule="evenodd" fill-opacity="1" stroke="#000000" stroke-opacity="1" stroke-width="3.2"/>
<circle clip-path="url(#clip542)" cx="1416.51" cy="1232.65" r="14.4" fill="#008000" fill-rule="evenodd" fill-opacity="1" stroke="#000000" stroke-opacity="1" stroke-width="3.2"/>
<circle clip-path="url(#clip542)" cx="1434.41" cy="929.055" r="14.4" fill="#008000" fill-rule="evenodd" fill-opacity="1" stroke="#000000" stroke-opacity="1" stroke-width="3.2"/>
<circle clip-path="url(#clip542)" cx="1452.31" cy="1156.72" r="14.4" fill="#008000" fill-rule="evenodd" fill-opacity="1" stroke="#000000" stroke-opacity="1" stroke-width="3.2"/>
<circle clip-path="url(#clip542)" cx="1470.21" cy="701.253" r="14.4" fill="#008000" fill-rule="evenodd" fill-opacity="1" stroke="#000000" stroke-opacity="1" stroke-width="3.2"/>
<circle clip-path="url(#clip542)" cx="1488.11" cy="1042.82" r="14.4" fill="#008000" fill-rule="evenodd" fill-opacity="1" stroke="#000000" stroke-opacity="1" stroke-width="3.2"/>
<circle clip-path="url(#clip542)" cx="1506.02" cy="359.549" r="14.4" fill="#008000" fill-rule="evenodd" fill-opacity="1" stroke="#000000" stroke-opacity="1" stroke-width="3.2"/>
<circle clip-path="url(#clip542)" cx="1523.92" cy="871.964" r="14.4" fill="#008000" fill-rule="evenodd" fill-opacity="1" stroke="#000000" stroke-opacity="1" stroke-width="3.2"/>
<circle clip-path="url(#clip542)" cx="1541.82" cy="1128.17" r="14.4" fill="#008000" fill-rule="evenodd" fill-opacity="1" stroke="#000000" stroke-opacity="1" stroke-width="3.2"/>
<circle clip-path="url(#clip542)" cx="1559.72" cy="1256.28" r="14.4" fill="#008000" fill-rule="evenodd" fill-opacity="1" stroke="#000000" stroke-opacity="1" stroke-width="3.2"/>
<circle clip-path="url(#clip542)" cx="1577.62" cy="999.927" r="14.4" fill="#008000" fill-rule="evenodd" fill-opacity="1" stroke="#000000" stroke-opacity="1" stroke-width="3.2"/>
<circle clip-path="url(#clip542)" cx="1595.52" cy="1192.15" r="14.4" fill="#008000" fill-rule="evenodd" fill-opacity="1" stroke="#000000" stroke-opacity="1" stroke-width="3.2"/>
<circle clip-path="url(#clip542)" cx="1613.43" cy="807.56" r="14.4" fill="#008000" fill-rule="evenodd" fill-opacity="1" stroke="#000000" stroke-opacity="1" stroke-width="3.2"/>
<circle clip-path="url(#clip542)" cx="1631.33" cy="1095.97" r="14.4" fill="#008000" fill-rule="evenodd" fill-opacity="1" stroke="#000000" stroke-opacity="1" stroke-width="3.2"/>
<circle clip-path="url(#clip542)" cx="1649.23" cy="519.01" r="14.4" fill="#008000" fill-rule="evenodd" fill-opacity="1" stroke="#000000" stroke-opacity="1" stroke-width="3.2"/>
<circle clip-path="url(#clip542)" cx="1667.13" cy="951.695" r="14.4" fill="#008000" fill-rule="evenodd" fill-opacity="1" stroke="#000000" stroke-opacity="1" stroke-width="3.2"/>
<circle clip-path="url(#clip542)" cx="1685.03" cy="86.1857" r="14.4" fill="#008000" fill-rule="evenodd" fill-opacity="1" stroke="#000000" stroke-opacity="1" stroke-width="3.2"/>
<circle clip-path="url(#clip542)" cx="1702.93" cy="735.282" r="14.4" fill="#008000" fill-rule="evenodd" fill-opacity="1" stroke="#000000" stroke-opacity="1" stroke-width="3.2"/>
<circle clip-path="url(#clip542)" cx="1720.83" cy="1059.83" r="14.4" fill="#008000" fill-rule="evenodd" fill-opacity="1" stroke="#000000" stroke-opacity="1" stroke-width="3.2"/>
<circle clip-path="url(#clip542)" cx="1738.74" cy="1222.1" r="14.4" fill="#008000" fill-rule="evenodd" fill-opacity="1" stroke="#000000" stroke-opacity="1" stroke-width="3.2"/>
<circle clip-path="url(#clip542)" cx="1756.64" cy="1303.24" r="14.4" fill="#008000" fill-rule="evenodd" fill-opacity="1" stroke="#000000" stroke-opacity="1" stroke-width="3.2"/>
<circle clip-path="url(#clip542)" cx="1774.54" cy="1140.83" r="14.4" fill="#008000" fill-rule="evenodd" fill-opacity="1" stroke="#000000" stroke-opacity="1" stroke-width="3.2"/>
<circle clip-path="url(#clip542)" cx="1792.44" cy="1262.6" r="14.4" fill="#008000" fill-rule="evenodd" fill-opacity="1" stroke="#000000" stroke-opacity="1" stroke-width="3.2"/>
<circle clip-path="url(#clip542)" cx="1810.34" cy="1323.49" r="14.4" fill="#008000" fill-rule="evenodd" fill-opacity="1" stroke="#000000" stroke-opacity="1" stroke-width="3.2"/>
<circle clip-path="url(#clip542)" cx="1828.24" cy="1201.57" r="14.4" fill="#008000" fill-rule="evenodd" fill-opacity="1" stroke="#000000" stroke-opacity="1" stroke-width="3.2"/>
<circle clip-path="url(#clip542)" cx="1846.14" cy="1292.98" r="14.4" fill="#008000" fill-rule="evenodd" fill-opacity="1" stroke="#000000" stroke-opacity="1" stroke-width="3.2"/>
<circle clip-path="url(#clip542)" cx="1864.05" cy="1338.68" r="14.4" fill="#008000" fill-rule="evenodd" fill-opacity="1" stroke="#000000" stroke-opacity="1" stroke-width="3.2"/>
<circle clip-path="url(#clip542)" cx="1881.95" cy="1247.13" r="14.4" fill="#008000" fill-rule="evenodd" fill-opacity="1" stroke="#000000" stroke-opacity="1" stroke-width="3.2"/>
<circle clip-path="url(#clip542)" cx="1899.85" cy="1315.76" r="14.4" fill="#008000" fill-rule="evenodd" fill-opacity="1" stroke="#000000" stroke-opacity="1" stroke-width="3.2"/>
<circle clip-path="url(#clip542)" cx="1917.75" cy="1350.07" r="14.4" fill="#008000" fill-rule="evenodd" fill-opacity="1" stroke="#000000" stroke-opacity="1" stroke-width="3.2"/>
<circle clip-path="url(#clip542)" cx="1935.65" cy="1367.22" r="14.4" fill="#008000" fill-rule="evenodd" fill-opacity="1" stroke="#000000" stroke-opacity="1" stroke-width="3.2"/>
<circle clip-path="url(#clip542)" cx="1953.55" cy="1375.8" r="14.4" fill="#008000" fill-rule="evenodd" fill-opacity="1" stroke="#000000" stroke-opacity="1" stroke-width="3.2"/>
<circle clip-path="url(#clip542)" cx="1971.45" cy="1358.51" r="14.4" fill="#008000" fill-rule="evenodd" fill-opacity="1" stroke="#000000" stroke-opacity="1" stroke-width="3.2"/>
<circle clip-path="url(#clip542)" cx="1989.36" cy="1371.44" r="14.4" fill="#008000" fill-rule="evenodd" fill-opacity="1" stroke="#000000" stroke-opacity="1" stroke-width="3.2"/>
<circle clip-path="url(#clip542)" cx="2007.26" cy="1377.91" r="14.4" fill="#008000" fill-rule="evenodd" fill-opacity="1" stroke="#000000" stroke-opacity="1" stroke-width="3.2"/>
<circle clip-path="url(#clip542)" cx="2025.16" cy="1381.14" r="14.4" fill="#008000" fill-rule="evenodd" fill-opacity="1" stroke="#000000" stroke-opacity="1" stroke-width="3.2"/>
<circle clip-path="url(#clip542)" cx="2043.06" cy="1374.54" r="14.4" fill="#008000" fill-rule="evenodd" fill-opacity="1" stroke="#000000" stroke-opacity="1" stroke-width="3.2"/>
<circle clip-path="url(#clip542)" cx="2060.96" cy="1379.46" r="14.4" fill="#008000" fill-rule="evenodd" fill-opacity="1" stroke="#000000" stroke-opacity="1" stroke-width="3.2"/>
<circle clip-path="url(#clip542)" cx="2078.86" cy="1369.47" r="14.4" fill="#008000" fill-rule="evenodd" fill-opacity="1" stroke="#000000" stroke-opacity="1" stroke-width="3.2"/>
<circle clip-path="url(#clip542)" cx="2096.76" cy="1376.93" r="14.4" fill="#008000" fill-rule="evenodd" fill-opacity="1" stroke="#000000" stroke-opacity="1" stroke-width="3.2"/>
<circle clip-path="url(#clip542)" cx="2114.67" cy="1361.88" r="14.4" fill="#008000" fill-rule="evenodd" fill-opacity="1" stroke="#000000" stroke-opacity="1" stroke-width="3.2"/>
<circle clip-path="url(#clip542)" cx="2132.57" cy="1373.13" r="14.4" fill="#008000" fill-rule="evenodd" fill-opacity="1" stroke="#000000" stroke-opacity="1" stroke-width="3.2"/>
<circle clip-path="url(#clip542)" cx="2150.47" cy="1378.75" r="14.4" fill="#008000" fill-rule="evenodd" fill-opacity="1" stroke="#000000" stroke-opacity="1" stroke-width="3.2"/>
<circle clip-path="url(#clip542)" cx="2168.37" cy="1381.57" r="14.4" fill="#008000" fill-rule="evenodd" fill-opacity="1" stroke="#000000" stroke-opacity="1" stroke-width="3.2"/>
<circle clip-path="url(#clip542)" cx="2186.27" cy="1382.97" r="14.4" fill="#008000" fill-rule="evenodd" fill-opacity="1" stroke="#000000" stroke-opacity="1" stroke-width="3.2"/>
<circle clip-path="url(#clip542)" cx="2204.17" cy="1383.68" r="14.4" fill="#008000" fill-rule="evenodd" fill-opacity="1" stroke="#000000" stroke-opacity="1" stroke-width="3.2"/>
<circle clip-path="url(#clip542)" cx="2222.08" cy="1382.13" r="14.4" fill="#008000" fill-rule="evenodd" fill-opacity="1" stroke="#000000" stroke-opacity="1" stroke-width="3.2"/>
<circle clip-path="url(#clip542)" cx="2239.98" cy="1383.25" r="14.4" fill="#008000" fill-rule="evenodd" fill-opacity="1" stroke="#000000" stroke-opacity="1" stroke-width="3.2"/>
<circle clip-path="url(#clip542)" cx="2257.88" cy="1383.82" r="14.4" fill="#008000" fill-rule="evenodd" fill-opacity="1" stroke="#000000" stroke-opacity="1" stroke-width="3.2"/>
<circle clip-path="url(#clip542)" cx="2275.78" cy="1384.1" r="14.4" fill="#008000" fill-rule="evenodd" fill-opacity="1" stroke="#000000" stroke-opacity="1" stroke-width="3.2"/>
<circle clip-path="url(#clip542)" cx="2293.68" cy="1384.24" r="14.4" fill="#008000" fill-rule="evenodd" fill-opacity="1" stroke="#000000" stroke-opacity="1" stroke-width="3.2"/>
<polyline clip-path="url(#clip542)" style="stroke:#ff0000; stroke-linecap:round; stroke-linejoin:round; stroke-width:12; stroke-opacity:1; fill:none" stroke-dasharray="48, 30" points="2293.68,2799.12 2293.68,-1328.69 "/>
<polyline clip-path="url(#clip542)" style="stroke:#ff0000; stroke-linecap:round; stroke-linejoin:round; stroke-width:12; stroke-opacity:1; fill:none" stroke-dasharray="48, 30" points="2293.68,2799.12 2293.68,-1328.69 "/>
<polyline clip-path="url(#clip542)" style="stroke:#ff0000; stroke-linecap:round; stroke-linejoin:round; stroke-width:12; stroke-opacity:1; fill:none" stroke-dasharray="48, 30" points="2293.68,2799.12 2293.68,-1328.69 "/>
</svg>
