<?xml version="1.0" encoding="utf-8"?>
<svg xmlns="http://www.w3.org/2000/svg" xmlns:xlink="http://www.w3.org/1999/xlink" width="600" height="400" viewBox="0 0 2400 1600">
<defs>
  <clipPath id="clip020">
    <rect x="0" y="0" width="2400" height="1600"/>
  </clipPath>
</defs>
<path clip-path="url(#clip020)" d="M0 1600 L2400 1600 L2400 0 L0 0  Z" fill="#ffffff" fill-rule="evenodd" fill-opacity="1"/>
<defs>
  <clipPath id="clip021">
    <rect x="480" y="0" width="1681" height="1600"/>
  </clipPath>
</defs>
<path clip-path="url(#clip020)" d="M222.69 1423.18 L2352.76 1423.18 L2352.76 47.2441 L222.69 47.2441  Z" fill="#ffffff" fill-rule="evenodd" fill-opacity="1"/>
<defs>
  <clipPath id="clip022">
    <rect x="222" y="47" width="2131" height="1377"/>
  </clipPath>
</defs>
<polyline clip-path="url(#clip022)" style="stroke:#000000; stroke-linecap:round; stroke-linejoin:round; stroke-width:2; stroke-opacity:0.1; fill:none" points="574.614,1423.18 574.614,47.2441 "/>
<polyline clip-path="url(#clip022)" style="stroke:#000000; stroke-linecap:round; stroke-linejoin:round; stroke-width:2; stroke-opacity:0.1; fill:none" points="945.06,1423.18 945.06,47.2441 "/>
<polyline clip-path="url(#clip022)" style="stroke:#000000; stroke-linecap:round; stroke-linejoin:round; stroke-width:2; stroke-opacity:0.1; fill:none" points="1315.51,1423.18 1315.51,47.2441 "/>
<polyline clip-path="url(#clip022)" style="stroke:#000000; stroke-linecap:round; stroke-linejoin:round; stroke-width:2; stroke-opacity:0.1; fill:none" points="1685.95,1423.18 1685.95,47.2441 "/>
<polyline clip-path="url(#clip022)" style="stroke:#000000; stroke-linecap:round; stroke-linejoin:round; stroke-width:2; stroke-opacity:0.1; fill:none" points="2056.4,1423.18 2056.4,47.2441 "/>
<polyline clip-path="url(#clip020)" style="stroke:#000000; stroke-linecap:round; stroke-linejoin:round; stroke-width:4; stroke-opacity:1; fill:none" points="222.69,1423.18 2352.76,1423.18 "/>
<polyline clip-path="url(#clip020)" style="stroke:#000000; stroke-linecap:round; stroke-linejoin:round; stroke-width:4; stroke-opacity:1; fill:none" points="574.614,1423.18 574.614,1404.28 "/>
<polyline clip-path="url(#clip020)" style="stroke:#000000; stroke-linecap:round; stroke-linejoin:round; stroke-width:4; stroke-opacity:1; fill:none" points="945.06,1423.18 945.06,1404.28 "/>
<polyline clip-path="url(#clip020)" style="stroke:#000000; stroke-linecap:round; stroke-linejoin:round; stroke-width:4; stroke-opacity:1; fill:none" points="1315.51,1423.18 1315.51,1404.28 "/>
<polyline clip-path="url(#clip020)" style="stroke:#000000; stroke-linecap:round; stroke-linejoin:round; stroke-width:4; stroke-opacity:1; fill:none" points="1685.95,1423.18 1685.95,1404.28 "/>
<polyline clip-path="url(#clip020)" style="stroke:#000000; stroke-linecap:round; stroke-linejoin:round; stroke-width:4; stroke-opacity:1; fill:none" points="2056.4,1423.18 2056.4,1404.28 "/>
<path clip-path="url(#clip020)" d="M553.387 1481.64 L569.707 1481.64 L569.707 1485.58 L547.762 1485.58 L547.762 1481.64 Q550.425 1478.89 555.008 1474.26 Q559.614 1469.61 560.795 1468.27 Q563.04 1465.74 563.92 1464.01 Q564.823 1462.25 564.823 1460.56 Q564.823 1457.8 562.878 1456.07 Q560.957 1454.33 557.855 1454.33 Q555.656 1454.33 553.202 1455.09 Q550.772 1455.86 547.994 1457.41 L547.994 1452.69 Q550.818 1451.55 553.272 1450.97 Q555.725 1450.39 557.762 1450.39 Q563.133 1450.39 566.327 1453.08 Q569.522 1455.77 569.522 1460.26 Q569.522 1462.39 568.711 1464.31 Q567.924 1466.2 565.818 1468.8 Q565.239 1469.47 562.137 1472.69 Q559.036 1475.88 553.387 1481.64 Z" fill="#000000" fill-rule="nonzero" fill-opacity="1" /><path clip-path="url(#clip020)" d="M589.522 1454.1 Q585.91 1454.1 584.082 1457.66 Q582.276 1461.2 582.276 1468.33 Q582.276 1475.44 584.082 1479.01 Q585.91 1482.55 589.522 1482.55 Q593.156 1482.55 594.961 1479.01 Q596.79 1475.44 596.79 1468.33 Q596.79 1461.2 594.961 1457.66 Q593.156 1454.1 589.522 1454.1 M589.522 1450.39 Q595.332 1450.39 598.387 1455 Q601.466 1459.58 601.466 1468.33 Q601.466 1477.06 598.387 1481.67 Q595.332 1486.25 589.522 1486.25 Q583.711 1486.25 580.633 1481.67 Q577.577 1477.06 577.577 1468.33 Q577.577 1459.58 580.633 1455 Q583.711 1450.39 589.522 1450.39 Z" fill="#000000" fill-rule="nonzero" fill-opacity="1" /><path clip-path="url(#clip020)" d="M933.232 1455.09 L921.426 1473.54 L933.232 1473.54 L933.232 1455.09 M932.005 1451.02 L937.885 1451.02 L937.885 1473.54 L942.815 1473.54 L942.815 1477.43 L937.885 1477.43 L937.885 1485.58 L933.232 1485.58 L933.232 1477.43 L917.63 1477.43 L917.63 1472.92 L932.005 1451.02 Z" fill="#000000" fill-rule="nonzero" fill-opacity="1" /><path clip-path="url(#clip020)" d="M960.546 1454.1 Q956.935 1454.1 955.107 1457.66 Q953.301 1461.2 953.301 1468.33 Q953.301 1475.44 955.107 1479.01 Q956.935 1482.55 960.546 1482.55 Q964.181 1482.55 965.986 1479.01 Q967.815 1475.44 967.815 1468.33 Q967.815 1461.2 965.986 1457.66 Q964.181 1454.1 960.546 1454.1 M960.546 1450.39 Q966.357 1450.39 969.412 1455 Q972.491 1459.58 972.491 1468.33 Q972.491 1477.06 969.412 1481.67 Q966.357 1486.25 960.546 1486.25 Q954.736 1486.25 951.658 1481.67 Q948.602 1477.06 948.602 1468.33 Q948.602 1459.58 951.658 1455 Q954.736 1450.39 960.546 1450.39 Z" fill="#000000" fill-rule="nonzero" fill-opacity="1" /><path clip-path="url(#clip020)" d="M1300.91 1466.44 Q1297.76 1466.44 1295.91 1468.59 Q1294.08 1470.74 1294.08 1474.49 Q1294.08 1478.22 1295.91 1480.39 Q1297.76 1482.55 1300.91 1482.55 Q1304.06 1482.55 1305.89 1480.39 Q1307.74 1478.22 1307.74 1474.49 Q1307.74 1470.74 1305.89 1468.59 Q1304.06 1466.44 1300.91 1466.44 M1310.19 1451.78 L1310.19 1456.04 Q1308.43 1455.21 1306.63 1454.77 Q1304.85 1454.33 1303.09 1454.33 Q1298.46 1454.33 1296 1457.45 Q1293.57 1460.58 1293.23 1466.9 Q1294.59 1464.89 1296.65 1463.82 Q1298.71 1462.73 1301.19 1462.73 Q1306.4 1462.73 1309.41 1465.9 Q1312.44 1469.05 1312.44 1474.49 Q1312.44 1479.82 1309.29 1483.03 Q1306.14 1486.25 1300.91 1486.25 Q1294.92 1486.25 1291.75 1481.67 Q1288.57 1477.06 1288.57 1468.33 Q1288.57 1460.14 1292.46 1455.28 Q1296.35 1450.39 1302.9 1450.39 Q1304.66 1450.39 1306.44 1450.74 Q1308.25 1451.09 1310.19 1451.78 Z" fill="#000000" fill-rule="nonzero" fill-opacity="1" /><path clip-path="url(#clip020)" d="M1330.49 1454.1 Q1326.88 1454.1 1325.06 1457.66 Q1323.25 1461.2 1323.25 1468.33 Q1323.25 1475.44 1325.06 1479.01 Q1326.88 1482.55 1330.49 1482.55 Q1334.13 1482.55 1335.93 1479.01 Q1337.76 1475.44 1337.76 1468.33 Q1337.76 1461.2 1335.93 1457.66 Q1334.13 1454.1 1330.49 1454.1 M1330.49 1450.39 Q1336.31 1450.39 1339.36 1455 Q1342.44 1459.58 1342.44 1468.33 Q1342.44 1477.06 1339.36 1481.67 Q1336.31 1486.25 1330.49 1486.25 Q1324.68 1486.25 1321.61 1481.67 Q1318.55 1477.06 1318.55 1468.33 Q1318.55 1459.58 1321.61 1455 Q1324.68 1450.39 1330.49 1450.39 Z" fill="#000000" fill-rule="nonzero" fill-opacity="1" /><path clip-path="url(#clip020)" d="M1670.83 1469.17 Q1667.49 1469.17 1665.57 1470.95 Q1663.67 1472.73 1663.67 1475.86 Q1663.67 1478.98 1665.57 1480.77 Q1667.49 1482.55 1670.83 1482.55 Q1674.16 1482.55 1676.08 1480.77 Q1678 1478.96 1678 1475.86 Q1678 1472.73 1676.08 1470.95 Q1674.18 1469.17 1670.83 1469.17 M1666.15 1467.18 Q1663.14 1466.44 1661.45 1464.38 Q1659.78 1462.32 1659.78 1459.35 Q1659.78 1455.21 1662.72 1452.8 Q1665.69 1450.39 1670.83 1450.39 Q1675.99 1450.39 1678.93 1452.8 Q1681.87 1455.21 1681.87 1459.35 Q1681.87 1462.32 1680.18 1464.38 Q1678.51 1466.44 1675.52 1467.18 Q1678.9 1467.96 1680.78 1470.26 Q1682.68 1472.55 1682.68 1475.86 Q1682.68 1480.88 1679.6 1483.57 Q1676.54 1486.25 1670.83 1486.25 Q1665.11 1486.25 1662.03 1483.57 Q1658.97 1480.88 1658.97 1475.86 Q1658.97 1472.55 1660.87 1470.26 Q1662.77 1467.96 1666.15 1467.18 M1664.44 1459.79 Q1664.44 1462.48 1666.1 1463.98 Q1667.79 1465.49 1670.83 1465.49 Q1673.83 1465.49 1675.52 1463.98 Q1677.24 1462.48 1677.24 1459.79 Q1677.24 1457.11 1675.52 1455.6 Q1673.83 1454.1 1670.83 1454.1 Q1667.79 1454.1 1666.1 1455.6 Q1664.44 1457.11 1664.44 1459.79 Z" fill="#000000" fill-rule="nonzero" fill-opacity="1" /><path clip-path="url(#clip020)" d="M1700.99 1454.1 Q1697.38 1454.1 1695.55 1457.66 Q1693.74 1461.2 1693.74 1468.33 Q1693.74 1475.44 1695.55 1479.01 Q1697.38 1482.55 1700.99 1482.55 Q1704.62 1482.55 1706.43 1479.01 Q1708.26 1475.44 1708.26 1468.33 Q1708.26 1461.2 1706.43 1457.66 Q1704.62 1454.1 1700.99 1454.1 M1700.99 1450.39 Q1706.8 1450.39 1709.85 1455 Q1712.93 1459.58 1712.93 1468.33 Q1712.93 1477.06 1709.85 1481.67 Q1706.8 1486.25 1700.99 1486.25 Q1695.18 1486.25 1692.1 1481.67 Q1689.04 1477.06 1689.04 1468.33 Q1689.04 1459.58 1692.1 1455 Q1695.18 1450.39 1700.99 1450.39 Z" fill="#000000" fill-rule="nonzero" fill-opacity="1" /><path clip-path="url(#clip020)" d="M2016.01 1481.64 L2023.64 1481.64 L2023.64 1455.28 L2015.33 1456.95 L2015.33 1452.69 L2023.6 1451.02 L2028.27 1451.02 L2028.27 1481.64 L2035.91 1481.64 L2035.91 1485.58 L2016.01 1485.58 L2016.01 1481.64 Z" fill="#000000" fill-rule="nonzero" fill-opacity="1" /><path clip-path="url(#clip020)" d="M2055.36 1454.1 Q2051.75 1454.1 2049.92 1457.66 Q2048.11 1461.2 2048.11 1468.33 Q2048.11 1475.44 2049.92 1479.01 Q2051.75 1482.55 2055.36 1482.55 Q2058.99 1482.55 2060.8 1479.01 Q2062.63 1475.44 2062.63 1468.33 Q2062.63 1461.2 2060.8 1457.66 Q2058.99 1454.1 2055.36 1454.1 M2055.36 1450.39 Q2061.17 1450.39 2064.22 1455 Q2067.3 1459.58 2067.3 1468.33 Q2067.3 1477.06 2064.22 1481.67 Q2061.17 1486.25 2055.36 1486.25 Q2049.55 1486.25 2046.47 1481.67 Q2043.41 1477.06 2043.41 1468.33 Q2043.41 1459.58 2046.47 1455 Q2049.55 1450.39 2055.36 1450.39 Z" fill="#000000" fill-rule="nonzero" fill-opacity="1" /><path clip-path="url(#clip020)" d="M2085.52 1454.1 Q2081.91 1454.1 2080.08 1457.66 Q2078.27 1461.2 2078.27 1468.33 Q2078.27 1475.44 2080.08 1479.01 Q2081.91 1482.55 2085.52 1482.55 Q2089.15 1482.55 2090.96 1479.01 Q2092.79 1475.44 2092.79 1468.33 Q2092.79 1461.2 2090.96 1457.66 Q2089.15 1454.1 2085.52 1454.1 M2085.52 1450.39 Q2091.33 1450.39 2094.38 1455 Q2097.46 1459.58 2097.46 1468.33 Q2097.46 1477.06 2094.38 1481.67 Q2091.33 1486.25 2085.52 1486.25 Q2079.71 1486.25 2076.63 1481.67 Q2073.57 1477.06 2073.57 1468.33 Q2073.57 1459.58 2076.63 1455 Q2079.71 1450.39 2085.52 1450.39 Z" fill="#000000" fill-rule="nonzero" fill-opacity="1" /><path clip-path="url(#clip020)" d="M1189.9 1525.81 L1189.9 1543.66 L1197.98 1543.66 Q1202.47 1543.66 1204.92 1541.34 Q1207.37 1539.02 1207.37 1534.72 Q1207.37 1530.45 1204.92 1528.13 Q1202.47 1525.81 1197.98 1525.81 L1189.9 1525.81 M1183.47 1520.52 L1197.98 1520.52 Q1205.97 1520.52 1210.05 1524.15 Q1214.15 1527.75 1214.15 1534.72 Q1214.15 1541.75 1210.05 1545.35 Q1205.97 1548.95 1197.98 1548.95 L1189.9 1548.95 L1189.9 1568.04 L1183.47 1568.04 L1183.47 1520.52 Z" fill="#000000" fill-rule="nonzero" fill-opacity="1" /><path clip-path="url(#clip020)" d="M1235.79 1550.12 Q1228.7 1550.12 1225.96 1551.75 Q1223.22 1553.37 1223.22 1557.29 Q1223.22 1560.4 1225.26 1562.25 Q1227.33 1564.07 1230.86 1564.07 Q1235.73 1564.07 1238.66 1560.63 Q1241.62 1557.16 1241.62 1551.43 L1241.62 1550.12 L1235.79 1550.12 M1247.48 1547.71 L1247.48 1568.04 L1241.62 1568.04 L1241.62 1562.63 Q1239.61 1565.88 1236.62 1567.44 Q1233.63 1568.97 1229.3 1568.97 Q1223.83 1568.97 1220.58 1565.91 Q1217.37 1562.82 1217.37 1557.67 Q1217.37 1551.65 1221.38 1548.6 Q1225.42 1545.54 1233.41 1545.54 L1241.62 1545.54 L1241.62 1544.97 Q1241.62 1540.93 1238.95 1538.73 Q1236.3 1536.5 1231.5 1536.5 Q1228.44 1536.5 1225.55 1537.23 Q1222.65 1537.97 1219.98 1539.43 L1219.98 1534.02 Q1223.19 1532.78 1226.21 1532.17 Q1229.24 1531.54 1232.1 1531.54 Q1239.84 1531.54 1243.66 1535.55 Q1247.48 1539.56 1247.48 1547.71 Z" fill="#000000" fill-rule="nonzero" fill-opacity="1" /><path clip-path="url(#clip020)" d="M1282.26 1533.45 L1282.26 1538.98 Q1279.78 1537.71 1277.11 1537.07 Q1274.43 1536.44 1271.57 1536.44 Q1267.21 1536.44 1265.01 1537.77 Q1262.85 1539.11 1262.85 1541.79 Q1262.85 1543.82 1264.41 1545 Q1265.97 1546.15 1270.68 1547.2 L1272.68 1547.64 Q1278.92 1548.98 1281.53 1551.43 Q1284.17 1553.85 1284.17 1558.21 Q1284.17 1563.17 1280.23 1566.07 Q1276.31 1568.97 1269.44 1568.97 Q1266.57 1568.97 1263.45 1568.39 Q1260.37 1567.85 1256.93 1566.74 L1256.93 1560.69 Q1260.18 1562.38 1263.33 1563.24 Q1266.48 1564.07 1269.56 1564.07 Q1273.7 1564.07 1275.93 1562.66 Q1278.16 1561.23 1278.16 1558.65 Q1278.16 1556.27 1276.54 1554.99 Q1274.94 1553.72 1269.5 1552.54 L1267.46 1552.07 Q1262.02 1550.92 1259.6 1548.56 Q1257.18 1546.18 1257.18 1542.04 Q1257.18 1537.01 1260.75 1534.27 Q1264.31 1531.54 1270.87 1531.54 Q1274.12 1531.54 1276.98 1532.01 Q1279.85 1532.49 1282.26 1533.45 Z" fill="#000000" fill-rule="nonzero" fill-opacity="1" /><path clip-path="url(#clip020)" d="M1316.23 1533.45 L1316.23 1538.98 Q1313.74 1537.71 1311.07 1537.07 Q1308.4 1536.44 1305.53 1536.44 Q1301.17 1536.44 1298.97 1537.77 Q1296.81 1539.11 1296.81 1541.79 Q1296.81 1543.82 1298.37 1545 Q1299.93 1546.15 1304.64 1547.2 L1306.65 1547.64 Q1312.88 1548.98 1315.49 1551.43 Q1318.14 1553.85 1318.14 1558.21 Q1318.14 1563.17 1314.19 1566.07 Q1310.27 1568.97 1303.4 1568.97 Q1300.53 1568.97 1297.41 1568.39 Q1294.33 1567.85 1290.89 1566.74 L1290.89 1560.69 Q1294.14 1562.38 1297.29 1563.24 Q1300.44 1564.07 1303.53 1564.07 Q1307.66 1564.07 1309.89 1562.66 Q1312.12 1561.23 1312.12 1558.65 Q1312.12 1556.27 1310.5 1554.99 Q1308.91 1553.72 1303.46 1552.54 L1301.43 1552.07 Q1295.98 1550.92 1293.56 1548.56 Q1291.14 1546.18 1291.14 1542.04 Q1291.14 1537.01 1294.71 1534.27 Q1298.27 1531.54 1304.83 1531.54 Q1308.08 1531.54 1310.94 1532.01 Q1313.81 1532.49 1316.23 1533.45 Z" fill="#000000" fill-rule="nonzero" fill-opacity="1" /><path clip-path="url(#clip020)" d="M1341.27 1536.5 Q1336.56 1536.5 1333.83 1540.19 Q1331.09 1543.85 1331.09 1550.25 Q1331.09 1556.65 1333.79 1560.34 Q1336.53 1564 1341.27 1564 Q1345.95 1564 1348.69 1560.31 Q1351.43 1556.62 1351.43 1550.25 Q1351.43 1543.92 1348.69 1540.23 Q1345.95 1536.5 1341.27 1536.5 M1341.27 1531.54 Q1348.91 1531.54 1353.27 1536.5 Q1357.63 1541.47 1357.63 1550.25 Q1357.63 1559 1353.27 1564 Q1348.91 1568.97 1341.27 1568.97 Q1333.6 1568.97 1329.24 1564 Q1324.91 1559 1324.91 1550.25 Q1324.91 1541.47 1329.24 1536.5 Q1333.6 1531.54 1341.27 1531.54 Z" fill="#000000" fill-rule="nonzero" fill-opacity="1" /><path clip-path="url(#clip020)" d="M1390.07 1533.45 L1390.07 1538.98 Q1387.59 1537.71 1384.91 1537.07 Q1382.24 1536.44 1379.37 1536.44 Q1375.01 1536.44 1372.82 1537.77 Q1370.65 1539.11 1370.65 1541.79 Q1370.65 1543.82 1372.21 1545 Q1373.77 1546.15 1378.48 1547.2 L1380.49 1547.64 Q1386.73 1548.98 1389.34 1551.43 Q1391.98 1553.85 1391.98 1558.21 Q1391.98 1563.17 1388.03 1566.07 Q1384.12 1568.97 1377.24 1568.97 Q1374.38 1568.97 1371.26 1568.39 Q1368.17 1567.85 1364.73 1566.74 L1364.73 1560.69 Q1367.98 1562.38 1371.13 1563.24 Q1374.28 1564.07 1377.37 1564.07 Q1381.51 1564.07 1383.73 1562.66 Q1385.96 1561.23 1385.96 1558.65 Q1385.96 1556.27 1384.34 1554.99 Q1382.75 1553.72 1377.3 1552.54 L1375.27 1552.07 Q1369.82 1550.92 1367.41 1548.56 Q1364.99 1546.18 1364.99 1542.04 Q1364.99 1537.01 1368.55 1534.27 Q1372.12 1531.54 1378.67 1531.54 Q1381.92 1531.54 1384.78 1532.01 Q1387.65 1532.49 1390.07 1533.45 Z" fill="#000000" fill-rule="nonzero" fill-opacity="1" /><polyline clip-path="url(#clip022)" style="stroke:#000000; stroke-linecap:round; stroke-linejoin:round; stroke-width:2; stroke-opacity:0.1; fill:none" points="222.69,1384.24 2352.76,1384.24 "/>
<polyline clip-path="url(#clip022)" style="stroke:#000000; stroke-linecap:round; stroke-linejoin:round; stroke-width:2; stroke-opacity:0.1; fill:none" points="222.69,1071.87 2352.76,1071.87 "/>
<polyline clip-path="url(#clip022)" style="stroke:#000000; stroke-linecap:round; stroke-linejoin:round; stroke-width:2; stroke-opacity:0.1; fill:none" points="222.69,759.511 2352.76,759.511 "/>
<polyline clip-path="url(#clip022)" style="stroke:#000000; stroke-linecap:round; stroke-linejoin:round; stroke-width:2; stroke-opacity:0.1; fill:none" points="222.69,447.147 2352.76,447.147 "/>
<polyline clip-path="url(#clip022)" style="stroke:#000000; stroke-linecap:round; stroke-linejoin:round; stroke-width:2; stroke-opacity:0.1; fill:none" points="222.69,134.783 2352.76,134.783 "/>
<polyline clip-path="url(#clip020)" style="stroke:#000000; stroke-linecap:round; stroke-linejoin:round; stroke-width:4; stroke-opacity:1; fill:none" points="222.69,1423.18 222.69,47.2441 "/>
<polyline clip-path="url(#clip020)" style="stroke:#000000; stroke-linecap:round; stroke-linejoin:round; stroke-width:4; stroke-opacity:1; fill:none" points="222.69,1384.24 241.588,1384.24 "/>
<polyline clip-path="url(#clip020)" style="stroke:#000000; stroke-linecap:round; stroke-linejoin:round; stroke-width:4; stroke-opacity:1; fill:none" points="222.69,1071.87 241.588,1071.87 "/>
<polyline clip-path="url(#clip020)" style="stroke:#000000; stroke-linecap:round; stroke-linejoin:round; stroke-width:4; stroke-opacity:1; fill:none" points="222.69,759.511 241.588,759.511 "/>
<polyline clip-path="url(#clip020)" style="stroke:#000000; stroke-linecap:round; stroke-linejoin:round; stroke-width:4; stroke-opacity:1; fill:none" points="222.69,447.147 241.588,447.147 "/>
<polyline clip-path="url(#clip020)" style="stroke:#000000; stroke-linecap:round; stroke-linejoin:round; stroke-width:4; stroke-opacity:1; fill:none" points="222.69,134.783 241.588,134.783 "/>
<path clip-path="url(#clip020)" d="M115.985 1404.03 L123.624 1404.03 L123.624 1377.67 L115.313 1379.33 L115.313 1375.07 L123.577 1373.41 L128.253 1373.41 L128.253 1404.03 L135.892 1404.03 L135.892 1407.97 L115.985 1407.97 L115.985 1404.03 Z" fill="#000000" fill-rule="nonzero" fill-opacity="1" /><path clip-path="url(#clip020)" d="M155.336 1376.48 Q151.725 1376.48 149.897 1380.05 Q148.091 1383.59 148.091 1390.72 Q148.091 1397.83 149.897 1401.39 Q151.725 1404.93 155.336 1404.93 Q158.971 1404.93 160.776 1401.39 Q162.605 1397.83 162.605 1390.72 Q162.605 1383.59 160.776 1380.05 Q158.971 1376.48 155.336 1376.48 M155.336 1372.78 Q161.146 1372.78 164.202 1377.39 Q167.281 1381.97 167.281 1390.72 Q167.281 1399.45 164.202 1404.05 Q161.146 1408.64 155.336 1408.64 Q149.526 1408.64 146.447 1404.05 Q143.392 1399.45 143.392 1390.72 Q143.392 1381.97 146.447 1377.39 Q149.526 1372.78 155.336 1372.78 Z" fill="#000000" fill-rule="nonzero" fill-opacity="1" /><path clip-path="url(#clip020)" d="M176.986 1354.98 Q174.052 1354.98 172.566 1357.87 Q171.099 1360.75 171.099 1366.54 Q171.099 1372.32 172.566 1375.21 Q174.052 1378.09 176.986 1378.09 Q179.938 1378.09 181.405 1375.21 Q182.891 1372.32 182.891 1366.54 Q182.891 1360.75 181.405 1357.87 Q179.938 1354.98 176.986 1354.98 M176.986 1351.97 Q181.706 1351.97 184.189 1355.71 Q186.69 1359.43 186.69 1366.54 Q186.69 1373.63 184.189 1377.38 Q181.706 1381.1 176.986 1381.1 Q172.265 1381.1 169.763 1377.38 Q167.281 1373.63 167.281 1366.54 Q167.281 1359.43 169.763 1355.71 Q172.265 1351.97 176.986 1351.97 Z" fill="#000000" fill-rule="nonzero" fill-opacity="1" /><path clip-path="url(#clip020)" d="M118.674 1091.67 L126.313 1091.67 L126.313 1065.3 L118.003 1066.97 L118.003 1062.71 L126.267 1061.04 L130.943 1061.04 L130.943 1091.67 L138.581 1091.67 L138.581 1095.6 L118.674 1095.6 L118.674 1091.67 Z" fill="#000000" fill-rule="nonzero" fill-opacity="1" /><path clip-path="url(#clip020)" d="M158.026 1064.12 Q154.415 1064.12 152.586 1067.69 Q150.781 1071.23 150.781 1078.36 Q150.781 1085.46 152.586 1089.03 Q154.415 1092.57 158.026 1092.57 Q161.66 1092.57 163.466 1089.03 Q165.294 1085.46 165.294 1078.36 Q165.294 1071.23 163.466 1067.69 Q161.66 1064.12 158.026 1064.12 M158.026 1060.42 Q163.836 1060.42 166.892 1065.02 Q169.97 1069.61 169.97 1078.36 Q169.97 1087.08 166.892 1091.69 Q163.836 1096.27 158.026 1096.27 Q152.216 1096.27 149.137 1091.69 Q146.081 1087.08 146.081 1078.36 Q146.081 1069.61 149.137 1065.02 Q152.216 1060.42 158.026 1060.42 Z" fill="#000000" fill-rule="nonzero" fill-opacity="1" /><path clip-path="url(#clip020)" d="M170.516 1064.99 L176.722 1064.99 L176.722 1043.57 L169.97 1044.93 L169.97 1041.47 L176.685 1040.11 L180.484 1040.11 L180.484 1064.99 L186.69 1064.99 L186.69 1068.19 L170.516 1068.19 L170.516 1064.99 Z" fill="#000000" fill-rule="nonzero" fill-opacity="1" /><path clip-path="url(#clip020)" d="M117.565 779.303 L125.203 779.303 L125.203 752.937 L116.893 754.604 L116.893 750.345 L125.157 748.678 L129.833 748.678 L129.833 779.303 L137.472 779.303 L137.472 783.238 L117.565 783.238 L117.565 779.303 Z" fill="#000000" fill-rule="nonzero" fill-opacity="1" /><path clip-path="url(#clip020)" d="M156.916 751.757 Q153.305 751.757 151.476 755.322 Q149.671 758.863 149.671 765.993 Q149.671 773.099 151.476 776.664 Q153.305 780.206 156.916 780.206 Q160.55 780.206 162.356 776.664 Q164.185 773.099 164.185 765.993 Q164.185 758.863 162.356 755.322 Q160.55 751.757 156.916 751.757 M156.916 748.053 Q162.726 748.053 165.782 752.66 Q168.861 757.243 168.861 765.993 Q168.861 774.72 165.782 779.326 Q162.726 783.909 156.916 783.909 Q151.106 783.909 148.027 779.326 Q144.972 774.72 144.972 765.993 Q144.972 757.243 148.027 752.66 Q151.106 748.053 156.916 748.053 Z" fill="#000000" fill-rule="nonzero" fill-opacity="1" /><path clip-path="url(#clip020)" d="M173.431 752.63 L186.69 752.63 L186.69 755.828 L168.861 755.828 L168.861 752.63 Q171.023 750.392 174.747 746.631 Q178.49 742.85 179.449 741.76 Q181.274 739.71 181.988 738.299 Q182.722 736.87 182.722 735.497 Q182.722 733.258 181.142 731.848 Q179.581 730.437 177.061 730.437 Q175.274 730.437 173.28 731.058 Q171.306 731.679 169.049 732.939 L169.049 729.102 Q171.343 728.18 173.337 727.71 Q175.33 727.24 176.986 727.24 Q181.349 727.24 183.944 729.422 Q186.54 731.603 186.54 735.252 Q186.54 736.982 185.882 738.543 Q185.242 740.086 183.531 742.192 Q183.06 742.738 180.54 745.352 Q178.02 747.947 173.431 752.63 Z" fill="#000000" fill-rule="nonzero" fill-opacity="1" /><path clip-path="url(#clip020)" d="M116.906 466.939 L124.545 466.939 L124.545 440.574 L116.235 442.24 L116.235 437.981 L124.499 436.314 L129.175 436.314 L129.175 466.939 L136.814 466.939 L136.814 470.874 L116.906 470.874 L116.906 466.939 Z" fill="#000000" fill-rule="nonzero" fill-opacity="1" /><path clip-path="url(#clip020)" d="M156.258 439.393 Q152.647 439.393 150.818 442.958 Q149.013 446.499 149.013 453.629 Q149.013 460.736 150.818 464.3 Q152.647 467.842 156.258 467.842 Q159.892 467.842 161.698 464.3 Q163.526 460.736 163.526 453.629 Q163.526 446.499 161.698 442.958 Q159.892 439.393 156.258 439.393 M156.258 435.689 Q162.068 435.689 165.124 440.296 Q168.202 444.879 168.202 453.629 Q168.202 462.356 165.124 466.962 Q162.068 471.546 156.258 471.546 Q150.448 471.546 147.369 466.962 Q144.314 462.356 144.314 453.629 Q144.314 444.879 147.369 440.296 Q150.448 435.689 156.258 435.689 Z" fill="#000000" fill-rule="nonzero" fill-opacity="1" /><path clip-path="url(#clip020)" d="M180.898 428.324 Q183.625 428.907 185.148 430.75 Q186.69 432.593 186.69 435.301 Q186.69 439.458 183.832 441.734 Q180.973 444.009 175.707 444.009 Q173.939 444.009 172.058 443.652 Q170.196 443.313 168.202 442.618 L168.202 438.95 Q169.782 439.872 171.663 440.342 Q173.544 440.812 175.594 440.812 Q179.167 440.812 181.029 439.401 Q182.91 437.991 182.91 435.301 Q182.91 432.819 181.161 431.427 Q179.431 430.016 176.327 430.016 L173.055 430.016 L173.055 426.894 L176.478 426.894 Q179.28 426.894 180.766 425.785 Q182.252 424.656 182.252 422.55 Q182.252 420.387 180.709 419.24 Q179.186 418.073 176.327 418.073 Q174.766 418.073 172.979 418.412 Q171.193 418.751 169.049 419.465 L169.049 416.08 Q171.212 415.478 173.092 415.177 Q174.992 414.876 176.666 414.876 Q180.992 414.876 183.512 416.851 Q186.032 418.807 186.032 422.155 Q186.032 424.487 184.697 426.104 Q183.361 427.703 180.898 428.324 Z" fill="#000000" fill-rule="nonzero" fill-opacity="1" /><path clip-path="url(#clip020)" d="M114.931 154.575 L122.57 154.575 L122.57 128.21 L114.26 129.876 L114.26 125.617 L122.524 123.951 L127.2 123.951 L127.2 154.575 L134.839 154.575 L134.839 158.511 L114.931 158.511 L114.931 154.575 Z" fill="#000000" fill-rule="nonzero" fill-opacity="1" /><path clip-path="url(#clip020)" d="M154.283 127.029 Q150.672 127.029 148.843 130.594 Q147.038 134.136 147.038 141.265 Q147.038 148.372 148.843 151.936 Q150.672 155.478 154.283 155.478 Q157.917 155.478 159.723 151.936 Q161.552 148.372 161.552 141.265 Q161.552 134.136 159.723 130.594 Q157.917 127.029 154.283 127.029 M154.283 123.326 Q160.093 123.326 163.149 127.932 Q166.227 132.515 166.227 141.265 Q166.227 149.992 163.149 154.598 Q160.093 159.182 154.283 159.182 Q148.473 159.182 145.394 154.598 Q142.339 149.992 142.339 141.265 Q142.339 132.515 145.394 127.932 Q148.473 123.326 154.283 123.326 Z" fill="#000000" fill-rule="nonzero" fill-opacity="1" /><path clip-path="url(#clip020)" d="M178.904 106.33 L169.312 121.32 L178.904 121.32 L178.904 106.33 M177.907 103.02 L182.684 103.02 L182.684 121.32 L186.69 121.32 L186.69 124.48 L182.684 124.48 L182.684 131.1 L178.904 131.1 L178.904 124.48 L166.227 124.48 L166.227 120.812 L177.907 103.02 Z" fill="#000000" fill-rule="nonzero" fill-opacity="1" /><path clip-path="url(#clip020)" d="M64.0042 833.674 L16.4842 851.816 L16.4842 845.1 L56.4926 830.045 L16.4842 814.958 L16.4842 808.274 L64.0042 826.385 L64.0042 833.674 Z" fill="#000000" fill-rule="nonzero" fill-opacity="1" /><path clip-path="url(#clip020)" d="M46.0847 790.45 Q46.0847 797.548 47.7079 800.285 Q49.3312 803.023 53.2461 803.023 Q56.3653 803.023 58.2114 800.986 Q60.0256 798.917 60.0256 795.384 Q60.0256 790.514 56.5881 787.586 Q53.1188 784.626 47.3897 784.626 L46.0847 784.626 L46.0847 790.45 M43.6657 778.769 L64.0042 778.769 L64.0042 784.626 L58.5933 784.626 Q61.8398 786.631 63.3994 789.623 Q64.9272 792.615 64.9272 796.943 Q64.9272 802.418 61.8716 805.664 Q58.7843 808.879 53.6281 808.879 Q47.6125 808.879 44.5569 804.869 Q41.5014 800.826 41.5014 792.838 L41.5014 784.626 L40.9285 784.626 Q36.8862 784.626 34.6901 787.299 Q32.4621 789.941 32.4621 794.747 Q32.4621 797.803 33.1941 800.699 Q33.9262 803.596 35.3903 806.269 L29.9795 806.269 Q28.7381 803.054 28.1334 800.031 Q27.4968 797.007 27.4968 794.142 Q27.4968 786.408 31.5072 782.589 Q35.5176 778.769 43.6657 778.769 Z" fill="#000000" fill-rule="nonzero" fill-opacity="1" /><path clip-path="url(#clip020)" d="M14.479 766.706 L14.479 760.85 L64.0042 760.85 L64.0042 766.706 L14.479 766.706 Z" fill="#000000" fill-rule="nonzero" fill-opacity="1" /><path clip-path="url(#clip020)" d="M32.4621 734.782 Q32.4621 739.493 36.1542 742.23 Q39.8145 744.967 46.212 744.967 Q52.6095 744.967 56.3017 742.262 Q59.9619 739.525 59.9619 734.782 Q59.9619 730.103 56.2698 727.366 Q52.5777 724.629 46.212 724.629 Q39.8781 724.629 36.186 727.366 Q32.4621 730.103 32.4621 734.782 M27.4968 734.782 Q27.4968 727.143 32.4621 722.783 Q37.4273 718.422 46.212 718.422 Q54.9649 718.422 59.9619 722.783 Q64.9272 727.143 64.9272 734.782 Q64.9272 742.453 59.9619 746.813 Q54.9649 751.142 46.212 751.142 Q37.4273 751.142 32.4621 746.813 Q27.4968 742.453 27.4968 734.782 Z" fill="#000000" fill-rule="nonzero" fill-opacity="1" /><path clip-path="url(#clip020)" d="M33.8307 688.058 Q33.2578 689.045 33.0032 690.222 Q32.7167 691.368 32.7167 692.769 Q32.7167 697.734 35.9632 700.407 Q39.1779 703.049 45.2253 703.049 L64.0042 703.049 L64.0042 708.938 L28.3562 708.938 L28.3562 703.049 L33.8944 703.049 Q30.6479 701.203 29.0883 698.243 Q27.4968 695.283 27.4968 691.05 Q27.4968 690.445 27.5923 689.713 Q27.656 688.981 27.8151 688.09 L33.8307 688.058 Z" fill="#000000" fill-rule="nonzero" fill-opacity="1" /><path clip-path="url(#clip020)" d="M44.7161 652.856 L47.5806 652.856 L47.5806 679.783 Q53.6281 679.401 56.8109 676.154 Q59.9619 672.876 59.9619 667.051 Q59.9619 663.677 59.1344 660.526 Q58.3069 657.343 56.6518 654.224 L62.1899 654.224 Q63.5267 657.375 64.227 660.685 Q64.9272 663.996 64.9272 667.401 Q64.9272 675.931 59.9619 680.928 Q54.9967 685.894 46.5303 685.894 Q37.7774 685.894 32.6531 681.183 Q27.4968 676.441 27.4968 668.42 Q27.4968 661.227 32.1438 657.057 Q36.7589 652.856 44.7161 652.856 M42.9973 658.712 Q38.1912 658.776 35.3266 661.418 Q32.4621 664.027 32.4621 668.356 Q32.4621 673.258 35.2312 676.218 Q38.0002 679.146 43.0292 679.592 L42.9973 658.712 Z" fill="#000000" fill-rule="nonzero" fill-opacity="1" /><path clip-path="url(#clip020)" d="M29.4065 620.518 L34.9447 620.518 Q33.6716 623 33.035 625.674 Q32.3984 628.348 32.3984 631.212 Q32.3984 635.573 33.7352 637.769 Q35.072 639.933 37.7456 639.933 Q39.7826 639.933 40.9603 638.374 Q42.1061 636.814 43.1565 632.103 L43.6021 630.098 Q44.9389 623.86 47.3897 621.25 Q49.8086 618.608 54.1691 618.608 Q59.1344 618.608 62.0308 622.555 Q64.9272 626.47 64.9272 633.345 Q64.9272 636.209 64.3543 639.329 Q63.8132 642.416 62.6992 645.853 L56.6518 645.853 Q58.3387 642.607 59.198 639.456 Q60.0256 636.305 60.0256 633.217 Q60.0256 629.08 58.6251 626.852 Q57.1929 624.624 54.6147 624.624 Q52.2276 624.624 50.9545 626.247 Q49.6813 627.838 48.5037 633.281 L48.0262 635.318 Q46.8804 640.761 44.5251 643.18 Q42.138 645.599 38.0002 645.599 Q32.9713 645.599 30.2341 642.034 Q27.4968 638.469 27.4968 631.912 Q27.4968 628.666 27.9743 625.801 Q28.4517 622.937 29.4065 620.518 Z" fill="#000000" fill-rule="nonzero" fill-opacity="1" /><polyline clip-path="url(#clip022)" style="stroke:#ff0000; stroke-linecap:round; stroke-linejoin:round; stroke-width:12; stroke-opacity:1; fill:none" stroke-dasharray="48, 30" points="-1907.38,1384.24 4482.82,1384.24 "/>
<circle clip-path="url(#clip022)" cx="222.69" cy="1165.91" r="14.4" fill="#008000" fill-rule="evenodd" fill-opacity="1" stroke="#000000" stroke-opacity="1" stroke-width="3.2"/>
<circle clip-path="url(#clip022)" cx="241.213" cy="1008.11" r="14.4" fill="#008000" fill-rule="evenodd" fill-opacity="1" stroke="#000000" stroke-opacity="1" stroke-width="3.2"/>
<circle clip-path="url(#clip022)" cx="259.735" cy="1102.15" r="14.4" fill="#008000" fill-rule="evenodd" fill-opacity="1" stroke="#000000" stroke-opacity="1" stroke-width="3.2"/>
<circle clip-path="url(#clip022)" cx="278.257" cy="1196.18" r="14.4" fill="#008000" fill-rule="evenodd" fill-opacity="1" stroke="#000000" stroke-opacity="1" stroke-width="3.2"/>
<circle clip-path="url(#clip022)" cx="296.78" cy="1290.21" r="14.4" fill="#008000" fill-rule="evenodd" fill-opacity="1" stroke="#000000" stroke-opacity="1" stroke-width="3.2"/>
<circle clip-path="url(#clip022)" cx="315.302" cy="1384.24" r="14.4" fill="#008000" fill-rule="evenodd" fill-opacity="1" stroke="#000000" stroke-opacity="1" stroke-width="3.2"/>
<circle clip-path="url(#clip022)" cx="222.69" cy="182.357" r="14.4" fill="#008000" fill-rule="evenodd" fill-opacity="1" stroke="#000000" stroke-opacity="1" stroke-width="3.2"/>
<circle clip-path="url(#clip022)" cx="241.213" cy="276.388" r="14.4" fill="#008000" fill-rule="evenodd" fill-opacity="1" stroke="#000000" stroke-opacity="1" stroke-width="3.2"/>
<circle clip-path="url(#clip022)" cx="259.735" cy="127.34" r="14.4" fill="#008000" fill-rule="evenodd" fill-opacity="1" stroke="#000000" stroke-opacity="1" stroke-width="3.2"/>
<circle clip-path="url(#clip022)" cx="278.257" cy="221.371" r="14.4" fill="#008000" fill-rule="evenodd" fill-opacity="1" stroke="#000000" stroke-opacity="1" stroke-width="3.2"/>
<circle clip-path="url(#clip022)" cx="296.78" cy="315.402" r="14.4" fill="#008000" fill-rule="evenodd" fill-opacity="1" stroke="#000000" stroke-opacity="1" stroke-width="3.2"/>
<circle clip-path="url(#clip022)" cx="315.302" cy="166.349" r="14.4" fill="#008000" fill-rule="evenodd" fill-opacity="1" stroke="#000000" stroke-opacity="1" stroke-width="3.2"/>
<circle clip-path="url(#clip022)" cx="333.824" cy="260.38" r="14.4" fill="#008000" fill-rule="evenodd" fill-opacity="1" stroke="#000000" stroke-opacity="1" stroke-width="3.2"/>
<circle clip-path="url(#clip022)" cx="352.346" cy="354.411" r="14.4" fill="#008000" fill-rule="evenodd" fill-opacity="1" stroke="#000000" stroke-opacity="1" stroke-width="3.2"/>
<circle clip-path="url(#clip022)" cx="370.869" cy="205.353" r="14.4" fill="#008000" fill-rule="evenodd" fill-opacity="1" stroke="#000000" stroke-opacity="1" stroke-width="3.2"/>
<circle clip-path="url(#clip022)" cx="389.391" cy="299.383" r="14.4" fill="#008000" fill-rule="evenodd" fill-opacity="1" stroke="#000000" stroke-opacity="1" stroke-width="3.2"/>
<circle clip-path="url(#clip022)" cx="407.913" cy="393.414" r="14.4" fill="#008000" fill-rule="evenodd" fill-opacity="1" stroke="#000000" stroke-opacity="1" stroke-width="3.2"/>
<circle clip-path="url(#clip022)" cx="426.436" cy="487.445" r="14.4" fill="#008000" fill-rule="evenodd" fill-opacity="1" stroke="#000000" stroke-opacity="1" stroke-width="3.2"/>
<circle clip-path="url(#clip022)" cx="444.958" cy="338.349" r="14.4" fill="#008000" fill-rule="evenodd" fill-opacity="1" stroke="#000000" stroke-opacity="1" stroke-width="3.2"/>
<circle clip-path="url(#clip022)" cx="463.48" cy="432.38" r="14.4" fill="#008000" fill-rule="evenodd" fill-opacity="1" stroke="#000000" stroke-opacity="1" stroke-width="3.2"/>
<circle clip-path="url(#clip022)" cx="482.003" cy="283.304" r="14.4" fill="#008000" fill-rule="evenodd" fill-opacity="1" stroke="#000000" stroke-opacity="1" stroke-width="3.2"/>
<circle clip-path="url(#clip022)" cx="500.525" cy="377.335" r="14.4" fill="#008000" fill-rule="evenodd" fill-opacity="1" stroke="#000000" stroke-opacity="1" stroke-width="3.2"/>
<circle clip-path="url(#clip022)" cx="519.047" cy="228.272" r="14.4" fill="#008000" fill-rule="evenodd" fill-opacity="1" stroke="#000000" stroke-opacity="1" stroke-width="3.2"/>
<circle clip-path="url(#clip022)" cx="537.57" cy="322.303" r="14.4" fill="#008000" fill-rule="evenodd" fill-opacity="1" stroke="#000000" stroke-opacity="1" stroke-width="3.2"/>
<circle clip-path="url(#clip022)" cx="556.092" cy="416.334" r="14.4" fill="#008000" fill-rule="evenodd" fill-opacity="1" stroke="#000000" stroke-opacity="1" stroke-width="3.2"/>
<circle clip-path="url(#clip022)" cx="574.614" cy="267.263" r="14.4" fill="#008000" fill-rule="evenodd" fill-opacity="1" stroke="#000000" stroke-opacity="1" stroke-width="3.2"/>
<circle clip-path="url(#clip022)" cx="593.137" cy="361.293" r="14.4" fill="#008000" fill-rule="evenodd" fill-opacity="1" stroke="#000000" stroke-opacity="1" stroke-width="3.2"/>
<circle clip-path="url(#clip022)" cx="611.659" cy="212.234" r="14.4" fill="#008000" fill-rule="evenodd" fill-opacity="1" stroke="#000000" stroke-opacity="1" stroke-width="3.2"/>
<circle clip-path="url(#clip022)" cx="630.181" cy="306.265" r="14.4" fill="#008000" fill-rule="evenodd" fill-opacity="1" stroke="#000000" stroke-opacity="1" stroke-width="3.2"/>
<circle clip-path="url(#clip022)" cx="648.703" cy="157.213" r="14.4" fill="#008000" fill-rule="evenodd" fill-opacity="1" stroke="#000000" stroke-opacity="1" stroke-width="3.2"/>
<circle clip-path="url(#clip022)" cx="667.226" cy="251.244" r="14.4" fill="#008000" fill-rule="evenodd" fill-opacity="1" stroke="#000000" stroke-opacity="1" stroke-width="3.2"/>
<circle clip-path="url(#clip022)" cx="685.748" cy="345.275" r="14.4" fill="#008000" fill-rule="evenodd" fill-opacity="1" stroke="#000000" stroke-opacity="1" stroke-width="3.2"/>
<circle clip-path="url(#clip022)" cx="704.27" cy="196.218" r="14.4" fill="#008000" fill-rule="evenodd" fill-opacity="1" stroke="#000000" stroke-opacity="1" stroke-width="3.2"/>
<circle clip-path="url(#clip022)" cx="722.793" cy="290.249" r="14.4" fill="#008000" fill-rule="evenodd" fill-opacity="1" stroke="#000000" stroke-opacity="1" stroke-width="3.2"/>
<circle clip-path="url(#clip022)" cx="741.315" cy="141.2" r="14.4" fill="#008000" fill-rule="evenodd" fill-opacity="1" stroke="#000000" stroke-opacity="1" stroke-width="3.2"/>
<circle clip-path="url(#clip022)" cx="759.837" cy="235.231" r="14.4" fill="#008000" fill-rule="evenodd" fill-opacity="1" stroke="#000000" stroke-opacity="1" stroke-width="3.2"/>
<circle clip-path="url(#clip022)" cx="778.36" cy="86.1857" r="14.4" fill="#008000" fill-rule="evenodd" fill-opacity="1" stroke="#000000" stroke-opacity="1" stroke-width="3.2"/>
<circle clip-path="url(#clip022)" cx="796.882" cy="180.217" r="14.4" fill="#008000" fill-rule="evenodd" fill-opacity="1" stroke="#000000" stroke-opacity="1" stroke-width="3.2"/>
<circle clip-path="url(#clip022)" cx="815.404" cy="274.247" r="14.4" fill="#008000" fill-rule="evenodd" fill-opacity="1" stroke="#000000" stroke-opacity="1" stroke-width="3.2"/>
<circle clip-path="url(#clip022)" cx="833.927" cy="125.199" r="14.4" fill="#008000" fill-rule="evenodd" fill-opacity="1" stroke="#000000" stroke-opacity="1" stroke-width="3.2"/>
<circle clip-path="url(#clip022)" cx="852.449" cy="219.23" r="14.4" fill="#008000" fill-rule="evenodd" fill-opacity="1" stroke="#000000" stroke-opacity="1" stroke-width="3.2"/>
<circle clip-path="url(#clip022)" cx="870.971" cy="313.261" r="14.4" fill="#008000" fill-rule="evenodd" fill-opacity="1" stroke="#000000" stroke-opacity="1" stroke-width="3.2"/>
<circle clip-path="url(#clip022)" cx="889.493" cy="164.209" r="14.4" fill="#008000" fill-rule="evenodd" fill-opacity="1" stroke="#000000" stroke-opacity="1" stroke-width="3.2"/>
<circle clip-path="url(#clip022)" cx="908.016" cy="258.24" r="14.4" fill="#008000" fill-rule="evenodd" fill-opacity="1" stroke="#000000" stroke-opacity="1" stroke-width="3.2"/>
<circle clip-path="url(#clip022)" cx="926.538" cy="109.193" r="14.4" fill="#008000" fill-rule="evenodd" fill-opacity="1" stroke="#000000" stroke-opacity="1" stroke-width="3.2"/>
<circle clip-path="url(#clip022)" cx="945.06" cy="203.224" r="14.4" fill="#008000" fill-rule="evenodd" fill-opacity="1" stroke="#000000" stroke-opacity="1" stroke-width="3.2"/>
<circle clip-path="url(#clip022)" cx="963.583" cy="297.255" r="14.4" fill="#008000" fill-rule="evenodd" fill-opacity="1" stroke="#000000" stroke-opacity="1" stroke-width="3.2"/>
<circle clip-path="url(#clip022)" cx="982.105" cy="148.204" r="14.4" fill="#008000" fill-rule="evenodd" fill-opacity="1" stroke="#000000" stroke-opacity="1" stroke-width="3.2"/>
<circle clip-path="url(#clip022)" cx="1000.63" cy="242.235" r="14.4" fill="#008000" fill-rule="evenodd" fill-opacity="1" stroke="#000000" stroke-opacity="1" stroke-width="3.2"/>
<circle clip-path="url(#clip022)" cx="1019.15" cy="93.1899" r="14.4" fill="#008000" fill-rule="evenodd" fill-opacity="1" stroke="#000000" stroke-opacity="1" stroke-width="3.2"/>
<circle clip-path="url(#clip022)" cx="1037.67" cy="187.221" r="14.4" fill="#008000" fill-rule="evenodd" fill-opacity="1" stroke="#000000" stroke-opacity="1" stroke-width="3.2"/>
<circle clip-path="url(#clip022)" cx="1056.19" cy="281.252" r="14.4" fill="#008000" fill-rule="evenodd" fill-opacity="1" stroke="#000000" stroke-opacity="1" stroke-width="3.2"/>
<circle clip-path="url(#clip022)" cx="1074.72" cy="132.203" r="14.4" fill="#008000" fill-rule="evenodd" fill-opacity="1" stroke="#000000" stroke-opacity="1" stroke-width="3.2"/>
<circle clip-path="url(#clip022)" cx="1093.24" cy="226.234" r="14.4" fill="#008000" fill-rule="evenodd" fill-opacity="1" stroke="#000000" stroke-opacity="1" stroke-width="3.2"/>
<circle clip-path="url(#clip022)" cx="1111.76" cy="320.265" r="14.4" fill="#008000" fill-rule="evenodd" fill-opacity="1" stroke="#000000" stroke-opacity="1" stroke-width="3.2"/>
<circle clip-path="url(#clip022)" cx="1130.28" cy="414.296" r="14.4" fill="#008000" fill-rule="evenodd" fill-opacity="1" stroke="#000000" stroke-opacity="1" stroke-width="3.2"/>
<circle clip-path="url(#clip022)" cx="1148.81" cy="508.327" r="14.4" fill="#008000" fill-rule="evenodd" fill-opacity="1" stroke="#000000" stroke-opacity="1" stroke-width="3.2"/>
<circle clip-path="url(#clip022)" cx="1167.33" cy="359.22" r="14.4" fill="#008000" fill-rule="evenodd" fill-opacity="1" stroke="#000000" stroke-opacity="1" stroke-width="3.2"/>
<circle clip-path="url(#clip022)" cx="1185.85" cy="453.251" r="14.4" fill="#008000" fill-rule="evenodd" fill-opacity="1" stroke="#000000" stroke-opacity="1" stroke-width="3.2"/>
<circle clip-path="url(#clip022)" cx="1204.37" cy="547.282" r="14.4" fill="#008000" fill-rule="evenodd" fill-opacity="1" stroke="#000000" stroke-opacity="1" stroke-width="3.2"/>
<circle clip-path="url(#clip022)" cx="1222.9" cy="641.313" r="14.4" fill="#008000" fill-rule="evenodd" fill-opacity="1" stroke="#000000" stroke-opacity="1" stroke-width="3.2"/>
<circle clip-path="url(#clip022)" cx="1241.42" cy="492.088" r="14.4" fill="#008000" fill-rule="evenodd" fill-opacity="1" stroke="#000000" stroke-opacity="1" stroke-width="3.2"/>
<circle clip-path="url(#clip022)" cx="1259.94" cy="586.119" r="14.4" fill="#008000" fill-rule="evenodd" fill-opacity="1" stroke="#000000" stroke-opacity="1" stroke-width="3.2"/>
<circle clip-path="url(#clip022)" cx="1278.46" cy="436.958" r="14.4" fill="#008000" fill-rule="evenodd" fill-opacity="1" stroke="#000000" stroke-opacity="1" stroke-width="3.2"/>
<circle clip-path="url(#clip022)" cx="1296.98" cy="530.989" r="14.4" fill="#008000" fill-rule="evenodd" fill-opacity="1" stroke="#000000" stroke-opacity="1" stroke-width="3.2"/>
<circle clip-path="url(#clip022)" cx="1315.51" cy="381.869" r="14.4" fill="#008000" fill-rule="evenodd" fill-opacity="1" stroke="#000000" stroke-opacity="1" stroke-width="3.2"/>
<circle clip-path="url(#clip022)" cx="1334.03" cy="475.9" r="14.4" fill="#008000" fill-rule="evenodd" fill-opacity="1" stroke="#000000" stroke-opacity="1" stroke-width="3.2"/>
<circle clip-path="url(#clip022)" cx="1352.55" cy="326.809" r="14.4" fill="#008000" fill-rule="evenodd" fill-opacity="1" stroke="#000000" stroke-opacity="1" stroke-width="3.2"/>
<circle clip-path="url(#clip022)" cx="1371.07" cy="420.84" r="14.4" fill="#008000" fill-rule="evenodd" fill-opacity="1" stroke="#000000" stroke-opacity="1" stroke-width="3.2"/>
<circle clip-path="url(#clip022)" cx="1389.6" cy="514.871" r="14.4" fill="#008000" fill-rule="evenodd" fill-opacity="1" stroke="#000000" stroke-opacity="1" stroke-width="3.2"/>
<circle clip-path="url(#clip022)" cx="1408.12" cy="365.761" r="14.4" fill="#008000" fill-rule="evenodd" fill-opacity="1" stroke="#000000" stroke-opacity="1" stroke-width="3.2"/>
<circle clip-path="url(#clip022)" cx="1426.64" cy="459.792" r="14.4" fill="#008000" fill-rule="evenodd" fill-opacity="1" stroke="#000000" stroke-opacity="1" stroke-width="3.2"/>
<circle clip-path="url(#clip022)" cx="1445.16" cy="310.707" r="14.4" fill="#008000" fill-rule="evenodd" fill-opacity="1" stroke="#000000" stroke-opacity="1" stroke-width="3.2"/>
<circle clip-path="url(#clip022)" cx="1463.69" cy="404.738" r="14.4" fill="#008000" fill-rule="evenodd" fill-opacity="1" stroke="#000000" stroke-opacity="1" stroke-width="3.2"/>
<circle clip-path="url(#clip022)" cx="1482.21" cy="255.669" r="14.4" fill="#008000" fill-rule="evenodd" fill-opacity="1" stroke="#000000" stroke-opacity="1" stroke-width="3.2"/>
<circle clip-path="url(#clip022)" cx="1500.73" cy="349.7" r="14.4" fill="#008000" fill-rule="evenodd" fill-opacity="1" stroke="#000000" stroke-opacity="1" stroke-width="3.2"/>
<circle clip-path="url(#clip022)" cx="1519.25" cy="200.642" r="14.4" fill="#008000" fill-rule="evenodd" fill-opacity="1" stroke="#000000" stroke-opacity="1" stroke-width="3.2"/>
<circle clip-path="url(#clip022)" cx="1537.77" cy="294.673" r="14.4" fill="#008000" fill-rule="evenodd" fill-opacity="1" stroke="#000000" stroke-opacity="1" stroke-width="3.2"/>
<circle clip-path="url(#clip022)" cx="1556.3" cy="145.623" r="14.4" fill="#008000" fill-rule="evenodd" fill-opacity="1" stroke="#000000" stroke-opacity="1" stroke-width="3.2"/>
<circle clip-path="url(#clip022)" cx="1574.82" cy="239.654" r="14.4" fill="#008000" fill-rule="evenodd" fill-opacity="1" stroke="#000000" stroke-opacity="1" stroke-width="3.2"/>
<circle clip-path="url(#clip022)" cx="1593.34" cy="333.685" r="14.4" fill="#008000" fill-rule="evenodd" fill-opacity="1" stroke="#000000" stroke-opacity="1" stroke-width="3.2"/>
<circle clip-path="url(#clip022)" cx="1611.86" cy="427.716" r="14.4" fill="#008000" fill-rule="evenodd" fill-opacity="1" stroke="#000000" stroke-opacity="1" stroke-width="3.2"/>
<circle clip-path="url(#clip022)" cx="1630.39" cy="521.747" r="14.4" fill="#008000" fill-rule="evenodd" fill-opacity="1" stroke="#000000" stroke-opacity="1" stroke-width="3.2"/>
<circle clip-path="url(#clip022)" cx="1648.91" cy="372.633" r="14.4" fill="#008000" fill-rule="evenodd" fill-opacity="1" stroke="#000000" stroke-opacity="1" stroke-width="3.2"/>
<circle clip-path="url(#clip022)" cx="1667.43" cy="466.664" r="14.4" fill="#008000" fill-rule="evenodd" fill-opacity="1" stroke="#000000" stroke-opacity="1" stroke-width="3.2"/>
<circle clip-path="url(#clip022)" cx="1685.95" cy="560.695" r="14.4" fill="#008000" fill-rule="evenodd" fill-opacity="1" stroke="#000000" stroke-opacity="1" stroke-width="3.2"/>
<circle clip-path="url(#clip022)" cx="1704.48" cy="411.555" r="14.4" fill="#008000" fill-rule="evenodd" fill-opacity="1" stroke="#000000" stroke-opacity="1" stroke-width="3.2"/>
<circle clip-path="url(#clip022)" cx="1723" cy="505.586" r="14.4" fill="#008000" fill-rule="evenodd" fill-opacity="1" stroke="#000000" stroke-opacity="1" stroke-width="3.2"/>
<circle clip-path="url(#clip022)" cx="1741.52" cy="599.617" r="14.4" fill="#008000" fill-rule="evenodd" fill-opacity="1" stroke="#000000" stroke-opacity="1" stroke-width="3.2"/>
<circle clip-path="url(#clip022)" cx="1760.04" cy="450.442" r="14.4" fill="#008000" fill-rule="evenodd" fill-opacity="1" stroke="#000000" stroke-opacity="1" stroke-width="3.2"/>
<circle clip-path="url(#clip022)" cx="1778.56" cy="544.473" r="14.4" fill="#008000" fill-rule="evenodd" fill-opacity="1" stroke="#000000" stroke-opacity="1" stroke-width="3.2"/>
<circle clip-path="url(#clip022)" cx="1797.09" cy="638.504" r="14.4" fill="#008000" fill-rule="evenodd" fill-opacity="1" stroke="#000000" stroke-opacity="1" stroke-width="3.2"/>
<circle clip-path="url(#clip022)" cx="1815.61" cy="732.535" r="14.4" fill="#008000" fill-rule="evenodd" fill-opacity="1" stroke="#000000" stroke-opacity="1" stroke-width="3.2"/>
<circle clip-path="url(#clip022)" cx="1834.13" cy="826.566" r="14.4" fill="#008000" fill-rule="evenodd" fill-opacity="1" stroke="#000000" stroke-opacity="1" stroke-width="3.2"/>
<circle clip-path="url(#clip022)" cx="1852.65" cy="676.791" r="14.4" fill="#008000" fill-rule="evenodd" fill-opacity="1" stroke="#000000" stroke-opacity="1" stroke-width="3.2"/>
<circle clip-path="url(#clip022)" cx="1871.18" cy="770.822" r="14.4" fill="#008000" fill-rule="evenodd" fill-opacity="1" stroke="#000000" stroke-opacity="1" stroke-width="3.2"/>
<circle clip-path="url(#clip022)" cx="1889.7" cy="864.853" r="14.4" fill="#008000" fill-rule="evenodd" fill-opacity="1" stroke="#000000" stroke-opacity="1" stroke-width="3.2"/>
<circle clip-path="url(#clip022)" cx="1908.22" cy="958.884" r="14.4" fill="#008000" fill-rule="evenodd" fill-opacity="1" stroke="#000000" stroke-opacity="1" stroke-width="3.2"/>
<circle clip-path="url(#clip022)" cx="1926.74" cy="807.896" r="14.4" fill="#008000" fill-rule="evenodd" fill-opacity="1" stroke="#000000" stroke-opacity="1" stroke-width="3.2"/>
<circle clip-path="url(#clip022)" cx="1945.27" cy="901.927" r="14.4" fill="#008000" fill-rule="evenodd" fill-opacity="1" stroke="#000000" stroke-opacity="1" stroke-width="3.2"/>
<circle clip-path="url(#clip022)" cx="1963.79" cy="751.606" r="14.4" fill="#008000" fill-rule="evenodd" fill-opacity="1" stroke="#000000" stroke-opacity="1" stroke-width="3.2"/>
<circle clip-path="url(#clip022)" cx="1982.31" cy="845.637" r="14.4" fill="#008000" fill-rule="evenodd" fill-opacity="1" stroke="#000000" stroke-opacity="1" stroke-width="3.2"/>
<circle clip-path="url(#clip022)" cx="2000.83" cy="695.751" r="14.4" fill="#008000" fill-rule="evenodd" fill-opacity="1" stroke="#000000" stroke-opacity="1" stroke-width="3.2"/>
<circle clip-path="url(#clip022)" cx="2019.35" cy="789.782" r="14.4" fill="#008000" fill-rule="evenodd" fill-opacity="1" stroke="#000000" stroke-opacity="1" stroke-width="3.2"/>
<circle clip-path="url(#clip022)" cx="2037.88" cy="883.813" r="14.4" fill="#008000" fill-rule="evenodd" fill-opacity="1" stroke="#000000" stroke-opacity="1" stroke-width="3.2"/>
<circle clip-path="url(#clip022)" cx="2056.4" cy="977.844" r="14.4" fill="#008000" fill-rule="evenodd" fill-opacity="1" stroke="#000000" stroke-opacity="1" stroke-width="3.2"/>
<circle clip-path="url(#clip022)" cx="2074.92" cy="1071.87" r="14.4" fill="#008000" fill-rule="evenodd" fill-opacity="1" stroke="#000000" stroke-opacity="1" stroke-width="3.2"/>
<circle clip-path="url(#clip022)" cx="2093.44" cy="1165.91" r="14.4" fill="#008000" fill-rule="evenodd" fill-opacity="1" stroke="#000000" stroke-opacity="1" stroke-width="3.2"/>
<circle clip-path="url(#clip022)" cx="2111.97" cy="1008.11" r="14.4" fill="#008000" fill-rule="evenodd" fill-opacity="1" stroke="#000000" stroke-opacity="1" stroke-width="3.2"/>
<circle clip-path="url(#clip022)" cx="2130.49" cy="1102.15" r="14.4" fill="#008000" fill-rule="evenodd" fill-opacity="1" stroke="#000000" stroke-opacity="1" stroke-width="3.2"/>
<circle clip-path="url(#clip022)" cx="2149.01" cy="1196.18" r="14.4" fill="#008000" fill-rule="evenodd" fill-opacity="1" stroke="#000000" stroke-opacity="1" stroke-width="3.2"/>
<circle clip-path="url(#clip022)" cx="2167.53" cy="1290.21" r="14.4" fill="#008000" fill-rule="evenodd" fill-opacity="1" stroke="#000000" stroke-opacity="1" stroke-width="3.2"/>
<circle clip-path="url(#clip022)" cx="2186.06" cy="1384.24" r="14.4" fill="#008000" fill-rule="evenodd" fill-opacity="1" stroke="#000000" stroke-opacity="1" stroke-width="3.2"/>
</svg>
