<?xml version="1.0" encoding="utf-8"?>
<svg xmlns="http://www.w3.org/2000/svg" xmlns:xlink="http://www.w3.org/1999/xlink" width="600" height="400" viewBox="0 0 2400 1600">
<defs>
  <clipPath id="clip560">
    <rect x="0" y="0" width="2400" height="1600"/>
  </clipPath>
</defs>
<path clip-path="url(#clip560)" d="M0 1600 L2400 1600 L2400 0 L0 0  Z" fill="#ffffff" fill-rule="evenodd" fill-opacity="1"/>
<defs>
  <clipPath id="clip561">
    <rect x="480" y="0" width="1681" height="1600"/>
  </clipPath>
</defs>
<path clip-path="url(#clip560)" d="M222.69 1423.18 L2352.76 1423.18 L2352.76 47.2441 L222.69 47.2441  Z" fill="#ffffff" fill-rule="evenodd" fill-opacity="1"/>
<defs>
  <clipPath id="clip562">
    <rect x="222" y="47" width="2131" height="1377"/>
  </clipPath>
</defs>
<polyline clip-path="url(#clip562)" style="stroke:#000000; stroke-linecap:round; stroke-linejoin:round; stroke-width:2; stroke-opacity:0.1; fill:none" points="574.614,1423.18 574.614,47.2441 "/>
<polyline clip-path="url(#clip562)" style="stroke:#000000; stroke-linecap:round; stroke-linejoin:round; stroke-width:2; stroke-opacity:0.1; fill:none" points="945.06,1423.18 945.06,47.2441 "/>
<polyline clip-path="url(#clip562)" style="stroke:#000000; stroke-linecap:round; stroke-linejoin:round; stroke-width:2; stroke-opacity:0.1; fill:none" points="1315.51,1423.18 1315.51,47.2441 "/>
<polyline clip-path="url(#clip562)" style="stroke:#000000; stroke-linecap:round; stroke-linejoin:round; stroke-width:2; stroke-opacity:0.1; fill:none" points="1685.95,1423.18 1685.95,47.2441 "/>
<polyline clip-path="url(#clip562)" style="stroke:#000000; stroke-linecap:round; stroke-linejoin:round; stroke-width:2; stroke-opacity:0.1; fill:none" points="2056.4,1423.18 2056.4,47.2441 "/>
<polyline clip-path="url(#clip560)" style="stroke:#000000; stroke-linecap:round; stroke-linejoin:round; stroke-width:4; stroke-opacity:1; fill:none" points="222.69,1423.18 2352.76,1423.18 "/>
<polyline clip-path="url(#clip560)" style="stroke:#000000; stroke-linecap:round; stroke-linejoin:round; stroke-width:4; stroke-opacity:1; fill:none" points="574.614,1423.18 574.614,1404.28 "/>
<polyline clip-path="url(#clip560)" style="stroke:#000000; stroke-linecap:round; stroke-linejoin:round; stroke-width:4; stroke-opacity:1; fill:none" points="945.06,1423.18 945.06,1404.28 "/>
<polyline clip-path="url(#clip560)" style="stroke:#000000; stroke-linecap:round; stroke-linejoin:round; stroke-width:4; stroke-opacity:1; fill:none" points="1315.51,1423.18 1315.51,1404.28 "/>
<polyline clip-path="url(#clip560)" style="stroke:#000000; stroke-linecap:round; stroke-linejoin:round; stroke-width:4; stroke-opacity:1; fill:none" points="1685.95,1423.18 1685.95,1404.28 "/>
<polyline clip-path="url(#clip560)" style="stroke:#000000; stroke-linecap:round; stroke-linejoin:round; stroke-width:4; stroke-opacity:1; fill:none" points="2056.4,1423.18 2056.4,1404.28 "/>
<path clip-path="url(#clip560)" d="M553.387 1481.64 L569.707 1481.64 L569.707 1485.58 L547.762 1485.58 L547.762 1481.64 Q550.425 1478.89 555.008 1474.26 Q559.614 1469.61 560.795 1468.27 Q563.04 1465.74 563.92 1464.01 Q564.823 1462.25 564.823 1460.56 Q564.823 1457.8 562.878 1456.07 Q560.957 1454.33 557.855 1454.33 Q555.656 1454.33 553.202 1455.09 Q550.772 1455.86 547.994 1457.41 L547.994 1452.69 Q550.818 1451.55 553.272 1450.97 Q555.725 1450.39 557.762 1450.39 Q563.133 1450.39 566.327 1453.08 Q569.522 1455.77 569.522 1460.26 Q569.522 1462.39 568.711 1464.31 Q567.924 1466.2 565.818 1468.8 Q565.239 1469.47 562.137 1472.69 Q559.036 1475.88 553.387 1481.64 Z" fill="#000000" fill-rule="nonzero" fill-opacity="1" /><path clip-path="url(#clip560)" d="M589.522 1454.1 Q585.91 1454.1 584.082 1457.66 Q582.276 1461.2 582.276 1468.33 Q582.276 1475.44 584.082 1479.01 Q585.91 1482.55 589.522 1482.55 Q593.156 1482.55 594.961 1479.01 Q596.79 1475.44 596.79 1468.33 Q596.79 1461.2 594.961 1457.66 Q593.156 1454.1 589.522 1454.1 M589.522 1450.39 Q595.332 1450.39 598.387 1455 Q601.466 1459.58 601.466 1468.33 Q601.466 1477.06 598.387 1481.67 Q595.332 1486.25 589.522 1486.25 Q583.711 1486.25 580.633 1481.67 Q577.577 1477.06 577.577 1468.33 Q577.577 1459.58 580.633 1455 Q583.711 1450.39 589.522 1450.39 Z" fill="#000000" fill-rule="nonzero" fill-opacity="1" /><path clip-path="url(#clip560)" d="M933.232 1455.09 L921.426 1473.54 L933.232 1473.54 L933.232 1455.09 M932.005 1451.02 L937.885 1451.02 L937.885 1473.54 L942.815 1473.54 L942.815 1477.43 L937.885 1477.43 L937.885 1485.58 L933.232 1485.58 L933.232 1477.43 L917.63 1477.43 L917.63 1472.92 L932.005 1451.02 Z" fill="#000000" fill-rule="nonzero" fill-opacity="1" /><path clip-path="url(#clip560)" d="M960.546 1454.1 Q956.935 1454.1 955.107 1457.66 Q953.301 1461.2 953.301 1468.33 Q953.301 1475.44 955.107 1479.01 Q956.935 1482.55 960.546 1482.55 Q964.181 1482.55 965.986 1479.01 Q967.815 1475.44 967.815 1468.33 Q967.815 1461.2 965.986 1457.66 Q964.181 1454.1 960.546 1454.1 M960.546 1450.39 Q966.357 1450.39 969.412 1455 Q972.491 1459.58 972.491 1468.33 Q972.491 1477.06 969.412 1481.67 Q966.357 1486.25 960.546 1486.25 Q954.736 1486.25 951.658 1481.67 Q948.602 1477.06 948.602 1468.33 Q948.602 1459.58 951.658 1455 Q954.736 1450.39 960.546 1450.39 Z" fill="#000000" fill-rule="nonzero" fill-opacity="1" /><path clip-path="url(#clip560)" d="M1300.91 1466.44 Q1297.76 1466.44 1295.91 1468.59 Q1294.08 1470.74 1294.08 1474.49 Q1294.08 1478.22 1295.91 1480.39 Q1297.76 1482.55 1300.91 1482.55 Q1304.06 1482.55 1305.89 1480.39 Q1307.74 1478.22 1307.74 1474.49 Q1307.74 1470.74 1305.89 1468.59 Q1304.06 1466.44 1300.91 1466.44 M1310.19 1451.78 L1310.19 1456.04 Q1308.43 1455.21 1306.63 1454.77 Q1304.85 1454.33 1303.09 1454.33 Q1298.46 1454.33 1296 1457.45 Q1293.57 1460.58 1293.23 1466.9 Q1294.59 1464.89 1296.65 1463.82 Q1298.71 1462.73 1301.19 1462.73 Q1306.4 1462.73 1309.41 1465.9 Q1312.44 1469.05 1312.44 1474.49 Q1312.44 1479.82 1309.29 1483.03 Q1306.14 1486.25 1300.91 1486.25 Q1294.92 1486.25 1291.75 1481.67 Q1288.57 1477.06 1288.57 1468.33 Q1288.57 1460.14 1292.46 1455.28 Q1296.35 1450.39 1302.9 1450.39 Q1304.66 1450.39 1306.44 1450.74 Q1308.25 1451.09 1310.19 1451.78 Z" fill="#000000" fill-rule="nonzero" fill-opacity="1" /><path clip-path="url(#clip560)" d="M1330.49 1454.1 Q1326.88 1454.1 1325.06 1457.66 Q1323.25 1461.2 1323.25 1468.33 Q1323.25 1475.44 1325.06 1479.01 Q1326.88 1482.55 1330.49 1482.55 Q1334.13 1482.55 1335.93 1479.01 Q1337.76 1475.44 1337.76 1468.33 Q1337.76 1461.2 1335.93 1457.66 Q1334.13 1454.1 1330.49 1454.1 M1330.49 1450.39 Q1336.31 1450.39 1339.36 1455 Q1342.44 1459.58 1342.44 1468.33 Q1342.44 1477.06 1339.36 1481.67 Q1336.31 1486.25 1330.49 1486.25 Q1324.68 1486.25 1321.61 1481.67 Q1318.55 1477.06 1318.55 1468.33 Q1318.55 1459.58 1321.61 1455 Q1324.68 1450.39 1330.49 1450.39 Z" fill="#000000" fill-rule="nonzero" fill-opacity="1" /><path clip-path="url(#clip560)" d="M1670.83 1469.17 Q1667.49 1469.17 1665.57 1470.95 Q1663.67 1472.73 1663.67 1475.86 Q1663.67 1478.98 1665.57 1480.77 Q1667.49 1482.55 1670.83 1482.55 Q1674.16 1482.55 1676.08 1480.77 Q1678 1478.96 1678 1475.86 Q1678 1472.73 1676.08 1470.95 Q1674.18 1469.17 1670.83 1469.17 M1666.15 1467.18 Q1663.14 1466.44 1661.45 1464.38 Q1659.78 1462.32 1659.78 1459.35 Q1659.78 1455.21 1662.72 1452.8 Q1665.69 1450.39 1670.83 1450.39 Q1675.99 1450.39 1678.93 1452.8 Q1681.87 1455.21 1681.87 1459.35 Q1681.87 1462.32 1680.18 1464.38 Q1678.51 1466.44 1675.52 1467.18 Q1678.9 1467.96 1680.78 1470.26 Q1682.68 1472.55 1682.68 1475.86 Q1682.68 1480.88 1679.6 1483.57 Q1676.54 1486.25 1670.83 1486.25 Q1665.11 1486.25 1662.03 1483.57 Q1658.97 1480.88 1658.97 1475.86 Q1658.97 1472.55 1660.87 1470.26 Q1662.77 1467.96 1666.15 1467.18 M1664.44 1459.79 Q1664.44 1462.48 1666.1 1463.98 Q1667.79 1465.49 1670.83 1465.49 Q1673.83 1465.49 1675.52 1463.98 Q1677.24 1462.48 1677.24 1459.79 Q1677.24 1457.11 1675.52 1455.6 Q1673.83 1454.1 1670.83 1454.1 Q1667.79 1454.1 1666.1 1455.6 Q1664.44 1457.11 1664.44 1459.79 Z" fill="#000000" fill-rule="nonzero" fill-opacity="1" /><path clip-path="url(#clip560)" d="M1700.99 1454.1 Q1697.38 1454.1 1695.55 1457.66 Q1693.74 1461.2 1693.74 1468.33 Q1693.74 1475.44 1695.55 1479.01 Q1697.38 1482.55 1700.99 1482.55 Q1704.62 1482.55 1706.43 1479.01 Q1708.26 1475.44 1708.26 1468.33 Q1708.26 1461.2 1706.43 1457.66 Q1704.62 1454.1 1700.99 1454.1 M1700.99 1450.39 Q1706.8 1450.39 1709.85 1455 Q1712.93 1459.58 1712.93 1468.33 Q1712.93 1477.06 1709.85 1481.67 Q1706.8 1486.25 1700.99 1486.25 Q1695.18 1486.25 1692.1 1481.67 Q1689.04 1477.06 1689.04 1468.33 Q1689.04 1459.58 1692.1 1455 Q1695.18 1450.39 1700.99 1450.39 Z" fill="#000000" fill-rule="nonzero" fill-opacity="1" /><path clip-path="url(#clip560)" d="M2016.01 1481.64 L2023.64 1481.64 L2023.64 1455.28 L2015.33 1456.95 L2015.33 1452.69 L2023.6 1451.02 L2028.27 1451.02 L2028.27 1481.64 L2035.91 1481.64 L2035.91 1485.58 L2016.01 1485.58 L2016.01 1481.64 Z" fill="#000000" fill-rule="nonzero" fill-opacity="1" /><path clip-path="url(#clip560)" d="M2055.36 1454.1 Q2051.75 1454.1 2049.92 1457.66 Q2048.11 1461.2 2048.11 1468.33 Q2048.11 1475.44 2049.92 1479.01 Q2051.75 1482.55 2055.36 1482.55 Q2058.99 1482.55 2060.8 1479.01 Q2062.63 1475.44 2062.63 1468.33 Q2062.63 1461.2 2060.8 1457.66 Q2058.99 1454.1 2055.36 1454.1 M2055.36 1450.39 Q2061.17 1450.39 2064.22 1455 Q2067.3 1459.58 2067.3 1468.33 Q2067.3 1477.06 2064.22 1481.67 Q2061.17 1486.25 2055.36 1486.25 Q2049.55 1486.25 2046.47 1481.67 Q2043.41 1477.06 2043.41 1468.33 Q2043.41 1459.58 2046.47 1455 Q2049.55 1450.39 2055.36 1450.39 Z" fill="#000000" fill-rule="nonzero" fill-opacity="1" /><path clip-path="url(#clip560)" d="M2085.52 1454.1 Q2081.91 1454.1 2080.08 1457.66 Q2078.27 1461.2 2078.27 1468.33 Q2078.27 1475.44 2080.08 1479.01 Q2081.91 1482.55 2085.52 1482.55 Q2089.15 1482.55 2090.96 1479.01 Q2092.79 1475.44 2092.79 1468.33 Q2092.79 1461.2 2090.96 1457.66 Q2089.15 1454.1 2085.52 1454.1 M2085.52 1450.39 Q2091.33 1450.39 2094.38 1455 Q2097.46 1459.58 2097.46 1468.33 Q2097.46 1477.06 2094.38 1481.67 Q2091.33 1486.25 2085.52 1486.25 Q2079.71 1486.25 2076.63 1481.67 Q2073.57 1477.06 2073.57 1468.33 Q2073.57 1459.58 2076.63 1455 Q2079.71 1450.39 2085.52 1450.39 Z" fill="#000000" fill-rule="nonzero" fill-opacity="1" /><path clip-path="url(#clip560)" d="M877.533 1520.52 L886.19 1520.52 L907.261 1560.28 L907.261 1520.52 L913.499 1520.52 L913.499 1568.04 L904.842 1568.04 L883.771 1528.29 L883.771 1568.04 L877.533 1568.04 L877.533 1520.52 Z" fill="#000000" fill-rule="nonzero" fill-opacity="1" /><path clip-path="url(#clip560)" d="M925.562 1520.52 L932.023 1520.52 L932.023 1549.39 Q932.023 1557.03 934.792 1560.4 Q937.562 1563.75 943.768 1563.75 Q949.943 1563.75 952.712 1560.4 Q955.481 1557.03 955.481 1549.39 L955.481 1520.52 L961.942 1520.52 L961.942 1550.19 Q961.942 1559.48 957.327 1564.22 Q952.744 1568.97 943.768 1568.97 Q934.761 1568.97 930.145 1564.22 Q925.562 1559.48 925.562 1550.19 L925.562 1520.52 Z" fill="#000000" fill-rule="nonzero" fill-opacity="1" /><path clip-path="url(#clip560)" d="M974.005 1520.52 L983.586 1520.52 L995.712 1552.86 L1007.9 1520.52 L1017.48 1520.52 L1017.48 1568.04 L1011.21 1568.04 L1011.21 1526.32 L998.959 1558.91 L992.498 1558.91 L980.244 1526.32 L980.244 1568.04 L974.005 1568.04 L974.005 1520.52 Z" fill="#000000" fill-rule="nonzero" fill-opacity="1" /><path clip-path="url(#clip560)" d="M1030.25 1520.52 L1060.29 1520.52 L1060.29 1525.93 L1036.68 1525.93 L1036.68 1540 L1059.31 1540 L1059.31 1545.41 L1036.68 1545.41 L1036.68 1562.63 L1060.87 1562.63 L1060.87 1568.04 L1030.25 1568.04 L1030.25 1520.52 Z" fill="#000000" fill-rule="nonzero" fill-opacity="1" /><path clip-path="url(#clip560)" d="M1093.97 1545.76 Q1096.04 1546.46 1097.98 1548.76 Q1099.95 1551.05 1101.92 1555.06 L1108.45 1568.04 L1101.54 1568.04 L1095.46 1555.85 Q1093.11 1551.08 1090.88 1549.52 Q1088.68 1547.96 1084.86 1547.96 L1077.86 1547.96 L1077.86 1568.04 L1071.43 1568.04 L1071.43 1520.52 L1085.95 1520.52 Q1094.09 1520.52 1098.1 1523.93 Q1102.12 1527.34 1102.12 1534.21 Q1102.12 1538.7 1100.01 1541.66 Q1097.95 1544.62 1093.97 1545.76 M1077.86 1525.81 L1077.86 1542.68 L1085.95 1542.68 Q1090.59 1542.68 1092.95 1540.54 Q1095.34 1538.38 1095.34 1534.21 Q1095.34 1530.04 1092.95 1527.94 Q1090.59 1525.81 1085.95 1525.81 L1077.86 1525.81 Z" fill="#000000" fill-rule="nonzero" fill-opacity="1" /><path clip-path="url(#clip560)" d="M1136.01 1524.88 Q1129.01 1524.88 1124.87 1530.1 Q1120.77 1535.32 1120.77 1544.33 Q1120.77 1553.31 1124.87 1558.53 Q1129.01 1563.75 1136.01 1563.75 Q1143.01 1563.75 1147.09 1558.53 Q1151.19 1553.31 1151.19 1544.33 Q1151.19 1535.32 1147.09 1530.1 Q1143.01 1524.88 1136.01 1524.88 M1136.01 1519.66 Q1146.01 1519.66 1151.99 1526.38 Q1157.97 1533.06 1157.97 1544.33 Q1157.97 1555.57 1151.99 1562.28 Q1146.01 1568.97 1136.01 1568.97 Q1125.99 1568.97 1119.97 1562.28 Q1113.99 1555.6 1113.99 1544.33 Q1113.99 1533.06 1119.97 1526.38 Q1125.99 1519.66 1136.01 1519.66 Z" fill="#000000" fill-rule="nonzero" fill-opacity="1" /><path clip-path="url(#clip560)" d="M1196.52 1522.08 L1196.52 1528.35 Q1192.86 1526.6 1189.61 1525.74 Q1186.37 1524.88 1183.34 1524.88 Q1178.09 1524.88 1175.23 1526.92 Q1172.39 1528.96 1172.39 1532.71 Q1172.39 1535.87 1174.27 1537.49 Q1176.18 1539.08 1181.46 1540.07 L1185.35 1540.86 Q1192.54 1542.23 1195.95 1545.7 Q1199.38 1549.14 1199.38 1554.93 Q1199.38 1561.84 1194.74 1565.4 Q1190.12 1568.97 1181.18 1568.97 Q1177.8 1568.97 1173.98 1568.2 Q1170.2 1567.44 1166.12 1565.94 L1166.12 1559.32 Q1170.04 1561.52 1173.79 1562.63 Q1177.55 1563.75 1181.18 1563.75 Q1186.68 1563.75 1189.68 1561.58 Q1192.67 1559.42 1192.67 1555.41 Q1192.67 1551.91 1190.5 1549.93 Q1188.37 1547.96 1183.47 1546.97 L1179.55 1546.21 Q1172.36 1544.78 1169.15 1541.72 Q1165.93 1538.67 1165.93 1533.22 Q1165.93 1526.92 1170.36 1523.29 Q1174.81 1519.66 1182.61 1519.66 Q1185.95 1519.66 1189.42 1520.27 Q1192.89 1520.87 1196.52 1522.08 Z" fill="#000000" fill-rule="nonzero" fill-opacity="1" /><path clip-path="url(#clip560)" d="M1236.56 1525.81 L1236.56 1562.76 L1244.32 1562.76 Q1254.16 1562.76 1258.71 1558.3 Q1263.29 1553.85 1263.29 1544.24 Q1263.29 1534.69 1258.71 1530.26 Q1254.16 1525.81 1244.32 1525.81 L1236.56 1525.81 M1230.13 1520.52 L1243.34 1520.52 Q1257.15 1520.52 1263.61 1526.28 Q1270.07 1532.01 1270.07 1544.24 Q1270.07 1556.52 1263.58 1562.28 Q1257.09 1568.04 1243.34 1568.04 L1230.13 1568.04 L1230.13 1520.52 Z" fill="#000000" fill-rule="nonzero" fill-opacity="1" /><path clip-path="url(#clip560)" d="M1280.32 1520.52 L1310.37 1520.52 L1310.37 1525.93 L1286.75 1525.93 L1286.75 1540 L1309.38 1540 L1309.38 1545.41 L1286.75 1545.41 L1286.75 1562.63 L1310.94 1562.63 L1310.94 1568.04 L1280.32 1568.04 L1280.32 1520.52 Z" fill="#000000" fill-rule="nonzero" fill-opacity="1" /><path clip-path="url(#clip560)" d="M1342.23 1520.52 L1348.66 1520.52 L1348.66 1568.04 L1342.23 1568.04 L1342.23 1520.52 Z" fill="#000000" fill-rule="nonzero" fill-opacity="1" /><path clip-path="url(#clip560)" d="M1354.87 1520.52 L1395.06 1520.52 L1395.06 1525.93 L1378.2 1525.93 L1378.2 1568.04 L1371.73 1568.04 L1371.73 1525.93 L1354.87 1525.93 L1354.87 1520.52 Z" fill="#000000" fill-rule="nonzero" fill-opacity="1" /><path clip-path="url(#clip560)" d="M1401.27 1520.52 L1431.32 1520.52 L1431.32 1525.93 L1407.7 1525.93 L1407.7 1540 L1430.33 1540 L1430.33 1545.41 L1407.7 1545.41 L1407.7 1562.63 L1431.89 1562.63 L1431.89 1568.04 L1401.27 1568.04 L1401.27 1520.52 Z" fill="#000000" fill-rule="nonzero" fill-opacity="1" /><path clip-path="url(#clip560)" d="M1464.99 1545.76 Q1467.06 1546.46 1469 1548.76 Q1470.98 1551.05 1472.95 1555.06 L1479.47 1568.04 L1472.57 1568.04 L1466.49 1555.85 Q1464.13 1551.08 1461.9 1549.52 Q1459.71 1547.96 1455.89 1547.96 L1448.89 1547.96 L1448.89 1568.04 L1442.46 1568.04 L1442.46 1520.52 L1456.97 1520.52 Q1465.12 1520.52 1469.13 1523.93 Q1473.14 1527.34 1473.14 1534.21 Q1473.14 1538.7 1471.04 1541.66 Q1468.97 1544.62 1464.99 1545.76 M1448.89 1525.81 L1448.89 1542.68 L1456.97 1542.68 Q1461.62 1542.68 1463.97 1540.54 Q1466.36 1538.38 1466.36 1534.21 Q1466.36 1530.04 1463.97 1527.94 Q1461.62 1525.81 1456.97 1525.81 L1448.89 1525.81 Z" fill="#000000" fill-rule="nonzero" fill-opacity="1" /><path clip-path="url(#clip560)" d="M1500.99 1526.86 L1492.27 1550.51 L1509.74 1550.51 L1500.99 1526.86 M1497.36 1520.52 L1504.65 1520.52 L1522.76 1568.04 L1516.08 1568.04 L1511.75 1555.85 L1490.33 1555.85 L1486 1568.04 L1479.22 1568.04 L1497.36 1520.52 Z" fill="#000000" fill-rule="nonzero" fill-opacity="1" /><path clip-path="url(#clip560)" d="M1564.14 1524.18 L1564.14 1530.96 Q1560.89 1527.94 1557.2 1526.44 Q1553.54 1524.95 1549.4 1524.95 Q1541.25 1524.95 1536.92 1529.95 Q1532.6 1534.91 1532.6 1544.33 Q1532.6 1553.72 1536.92 1558.72 Q1541.25 1563.68 1549.4 1563.68 Q1553.54 1563.68 1557.2 1562.19 Q1560.89 1560.69 1564.14 1557.67 L1564.14 1564.38 Q1560.76 1566.68 1556.98 1567.82 Q1553.22 1568.97 1549.02 1568.97 Q1538.23 1568.97 1532.02 1562.38 Q1525.82 1555.76 1525.82 1544.33 Q1525.82 1532.87 1532.02 1526.28 Q1538.23 1519.66 1549.02 1519.66 Q1553.28 1519.66 1557.04 1520.81 Q1560.83 1521.92 1564.14 1524.18 M1550.71 1568.04 Q1552.46 1570.02 1553.32 1571.67 Q1554.18 1573.36 1554.18 1574.89 Q1554.18 1577.72 1552.27 1579.15 Q1550.36 1580.62 1546.6 1580.62 Q1545.14 1580.62 1543.74 1580.43 Q1542.37 1580.23 1541 1579.85 L1541 1575.68 Q1542.08 1576.22 1543.26 1576.45 Q1544.44 1576.7 1545.93 1576.7 Q1547.81 1576.7 1548.76 1575.94 Q1549.72 1575.17 1549.72 1573.71 Q1549.72 1572.75 1549.02 1571.35 Q1548.35 1569.99 1546.92 1568.04 L1550.71 1568.04 Z" fill="#000000" fill-rule="nonzero" fill-opacity="1" /><path clip-path="url(#clip560)" d="M1593.36 1524.88 Q1586.35 1524.88 1582.22 1530.1 Q1578.11 1535.32 1578.11 1544.33 Q1578.11 1553.31 1582.22 1558.53 Q1586.35 1563.75 1593.36 1563.75 Q1600.36 1563.75 1604.43 1558.53 Q1608.54 1553.31 1608.54 1544.33 Q1608.54 1535.32 1604.43 1530.1 Q1600.36 1524.88 1593.36 1524.88 M1593.36 1519.66 Q1603.35 1519.66 1609.33 1526.38 Q1615.32 1533.06 1615.32 1544.33 Q1615.32 1555.57 1609.33 1562.28 Q1603.35 1568.97 1593.36 1568.97 Q1583.33 1568.97 1577.32 1562.28 Q1571.33 1555.6 1571.33 1544.33 Q1571.33 1533.06 1577.32 1526.38 Q1583.33 1519.66 1593.36 1519.66 M1593.23 1513.62 L1591.42 1512.57 Q1590.62 1512.12 1590.11 1511.96 Q1589.63 1511.77 1589.25 1511.77 Q1588.1 1511.77 1587.47 1512.57 Q1586.83 1513.36 1586.83 1514.79 L1586.83 1514.99 L1582.85 1514.99 Q1582.85 1511.77 1584.48 1509.89 Q1586.13 1508.02 1588.87 1508.02 Q1590.01 1508.02 1590.97 1508.27 Q1591.96 1508.52 1593.48 1509.38 L1595.3 1510.34 Q1596.03 1510.75 1596.57 1510.94 Q1597.11 1511.13 1597.59 1511.13 Q1598.61 1511.13 1599.24 1510.34 Q1599.88 1509.51 1599.88 1508.21 L1599.88 1508.02 L1603.86 1508.02 Q1603.8 1511.2 1602.14 1513.11 Q1600.52 1514.99 1597.84 1514.99 Q1596.76 1514.99 1595.81 1514.73 Q1594.88 1514.48 1593.23 1513.62 Z" fill="#000000" fill-rule="nonzero" fill-opacity="1" /><path clip-path="url(#clip560)" d="M1625.38 1520.52 L1655.42 1520.52 L1655.42 1525.93 L1631.81 1525.93 L1631.81 1540 L1654.44 1540 L1654.44 1545.41 L1631.81 1545.41 L1631.81 1562.63 L1656 1562.63 L1656 1568.04 L1625.38 1568.04 L1625.38 1520.52 Z" fill="#000000" fill-rule="nonzero" fill-opacity="1" /><path clip-path="url(#clip560)" d="M1695.05 1522.08 L1695.05 1528.35 Q1691.39 1526.6 1688.14 1525.74 Q1684.9 1524.88 1681.87 1524.88 Q1676.62 1524.88 1673.76 1526.92 Q1670.92 1528.96 1670.92 1532.71 Q1670.92 1535.87 1672.8 1537.49 Q1674.71 1539.08 1679.99 1540.07 L1683.88 1540.86 Q1691.07 1542.23 1694.48 1545.7 Q1697.91 1549.14 1697.91 1554.93 Q1697.91 1561.84 1693.27 1565.4 Q1688.65 1568.97 1679.71 1568.97 Q1676.33 1568.97 1672.51 1568.2 Q1668.73 1567.44 1664.65 1565.94 L1664.65 1559.32 Q1668.57 1561.52 1672.32 1562.63 Q1676.08 1563.75 1679.71 1563.75 Q1685.21 1563.75 1688.21 1561.58 Q1691.2 1559.42 1691.2 1555.41 Q1691.2 1551.91 1689.03 1549.93 Q1686.9 1547.96 1682 1546.97 L1678.08 1546.21 Q1670.89 1544.78 1667.68 1541.72 Q1664.46 1538.67 1664.46 1533.22 Q1664.46 1526.92 1668.89 1523.29 Q1673.34 1519.66 1681.14 1519.66 Q1684.48 1519.66 1687.95 1520.27 Q1691.42 1520.87 1695.05 1522.08 Z" fill="#000000" fill-rule="nonzero" fill-opacity="1" /><polyline clip-path="url(#clip562)" style="stroke:#000000; stroke-linecap:round; stroke-linejoin:round; stroke-width:2; stroke-opacity:0.1; fill:none" points="222.69,1384.24 2352.76,1384.24 "/>
<polyline clip-path="url(#clip562)" style="stroke:#000000; stroke-linecap:round; stroke-linejoin:round; stroke-width:2; stroke-opacity:0.1; fill:none" points="222.69,1056.88 2352.76,1056.88 "/>
<polyline clip-path="url(#clip562)" style="stroke:#000000; stroke-linecap:round; stroke-linejoin:round; stroke-width:2; stroke-opacity:0.1; fill:none" points="222.69,729.532 2352.76,729.532 "/>
<polyline clip-path="url(#clip562)" style="stroke:#000000; stroke-linecap:round; stroke-linejoin:round; stroke-width:2; stroke-opacity:0.1; fill:none" points="222.69,402.178 2352.76,402.178 "/>
<polyline clip-path="url(#clip562)" style="stroke:#000000; stroke-linecap:round; stroke-linejoin:round; stroke-width:2; stroke-opacity:0.1; fill:none" points="222.69,74.8251 2352.76,74.8251 "/>
<polyline clip-path="url(#clip560)" style="stroke:#000000; stroke-linecap:round; stroke-linejoin:round; stroke-width:4; stroke-opacity:1; fill:none" points="222.69,1423.18 222.69,47.2441 "/>
<polyline clip-path="url(#clip560)" style="stroke:#000000; stroke-linecap:round; stroke-linejoin:round; stroke-width:4; stroke-opacity:1; fill:none" points="222.69,1384.24 241.588,1384.24 "/>
<polyline clip-path="url(#clip560)" style="stroke:#000000; stroke-linecap:round; stroke-linejoin:round; stroke-width:4; stroke-opacity:1; fill:none" points="222.69,1056.88 241.588,1056.88 "/>
<polyline clip-path="url(#clip560)" style="stroke:#000000; stroke-linecap:round; stroke-linejoin:round; stroke-width:4; stroke-opacity:1; fill:none" points="222.69,729.532 241.588,729.532 "/>
<polyline clip-path="url(#clip560)" style="stroke:#000000; stroke-linecap:round; stroke-linejoin:round; stroke-width:4; stroke-opacity:1; fill:none" points="222.69,402.178 241.588,402.178 "/>
<polyline clip-path="url(#clip560)" style="stroke:#000000; stroke-linecap:round; stroke-linejoin:round; stroke-width:4; stroke-opacity:1; fill:none" points="222.69,74.8251 241.588,74.8251 "/>
<path clip-path="url(#clip560)" d="M115.985 1404.03 L123.624 1404.03 L123.624 1377.67 L115.313 1379.33 L115.313 1375.07 L123.577 1373.41 L128.253 1373.41 L128.253 1404.03 L135.892 1404.03 L135.892 1407.97 L115.985 1407.97 L115.985 1404.03 Z" fill="#000000" fill-rule="nonzero" fill-opacity="1" /><path clip-path="url(#clip560)" d="M155.336 1376.48 Q151.725 1376.48 149.897 1380.05 Q148.091 1383.59 148.091 1390.72 Q148.091 1397.83 149.897 1401.39 Q151.725 1404.93 155.336 1404.93 Q158.971 1404.93 160.776 1401.39 Q162.605 1397.83 162.605 1390.72 Q162.605 1383.59 160.776 1380.05 Q158.971 1376.48 155.336 1376.48 M155.336 1372.78 Q161.146 1372.78 164.202 1377.39 Q167.281 1381.97 167.281 1390.72 Q167.281 1399.45 164.202 1404.05 Q161.146 1408.64 155.336 1408.64 Q149.526 1408.64 146.447 1404.05 Q143.392 1399.45 143.392 1390.72 Q143.392 1381.97 146.447 1377.39 Q149.526 1372.78 155.336 1372.78 Z" fill="#000000" fill-rule="nonzero" fill-opacity="1" /><path clip-path="url(#clip560)" d="M176.986 1354.98 Q174.052 1354.98 172.566 1357.87 Q171.099 1360.75 171.099 1366.54 Q171.099 1372.32 172.566 1375.21 Q174.052 1378.09 176.986 1378.09 Q179.938 1378.09 181.405 1375.21 Q182.891 1372.32 182.891 1366.54 Q182.891 1360.75 181.405 1357.87 Q179.938 1354.98 176.986 1354.98 M176.986 1351.97 Q181.706 1351.97 184.189 1355.71 Q186.69 1359.43 186.69 1366.54 Q186.69 1373.63 184.189 1377.38 Q181.706 1381.1 176.986 1381.1 Q172.265 1381.1 169.763 1377.38 Q167.281 1373.63 167.281 1366.54 Q167.281 1359.43 169.763 1355.71 Q172.265 1351.97 176.986 1351.97 Z" fill="#000000" fill-rule="nonzero" fill-opacity="1" /><path clip-path="url(#clip560)" d="M118.674 1076.68 L126.313 1076.68 L126.313 1050.31 L118.003 1051.98 L118.003 1047.72 L126.267 1046.05 L130.943 1046.05 L130.943 1076.68 L138.581 1076.68 L138.581 1080.61 L118.674 1080.61 L118.674 1076.68 Z" fill="#000000" fill-rule="nonzero" fill-opacity="1" /><path clip-path="url(#clip560)" d="M158.026 1049.13 Q154.415 1049.13 152.586 1052.7 Q150.781 1056.24 150.781 1063.37 Q150.781 1070.47 152.586 1074.04 Q154.415 1077.58 158.026 1077.58 Q161.66 1077.58 163.466 1074.04 Q165.294 1070.47 165.294 1063.37 Q165.294 1056.24 163.466 1052.7 Q161.66 1049.13 158.026 1049.13 M158.026 1045.43 Q163.836 1045.43 166.892 1050.03 Q169.97 1054.62 169.97 1063.37 Q169.97 1072.09 166.892 1076.7 Q163.836 1081.28 158.026 1081.28 Q152.216 1081.28 149.137 1076.7 Q146.081 1072.09 146.081 1063.37 Q146.081 1054.62 149.137 1050.03 Q152.216 1045.43 158.026 1045.43 Z" fill="#000000" fill-rule="nonzero" fill-opacity="1" /><path clip-path="url(#clip560)" d="M170.516 1050 L176.722 1050 L176.722 1028.58 L169.97 1029.94 L169.97 1026.48 L176.685 1025.12 L180.484 1025.12 L180.484 1050 L186.69 1050 L186.69 1053.2 L170.516 1053.2 L170.516 1050 Z" fill="#000000" fill-rule="nonzero" fill-opacity="1" /><path clip-path="url(#clip560)" d="M117.565 749.324 L125.203 749.324 L125.203 722.959 L116.893 724.625 L116.893 720.366 L125.157 718.699 L129.833 718.699 L129.833 749.324 L137.472 749.324 L137.472 753.259 L117.565 753.259 L117.565 749.324 Z" fill="#000000" fill-rule="nonzero" fill-opacity="1" /><path clip-path="url(#clip560)" d="M156.916 721.778 Q153.305 721.778 151.476 725.343 Q149.671 728.884 149.671 736.014 Q149.671 743.12 151.476 746.685 Q153.305 750.227 156.916 750.227 Q160.55 750.227 162.356 746.685 Q164.185 743.12 164.185 736.014 Q164.185 728.884 162.356 725.343 Q160.55 721.778 156.916 721.778 M156.916 718.074 Q162.726 718.074 165.782 722.681 Q168.861 727.264 168.861 736.014 Q168.861 744.741 165.782 749.347 Q162.726 753.931 156.916 753.931 Q151.106 753.931 148.027 749.347 Q144.972 744.741 144.972 736.014 Q144.972 727.264 148.027 722.681 Q151.106 718.074 156.916 718.074 Z" fill="#000000" fill-rule="nonzero" fill-opacity="1" /><path clip-path="url(#clip560)" d="M173.431 722.652 L186.69 722.652 L186.69 725.849 L168.861 725.849 L168.861 722.652 Q171.023 720.413 174.747 716.652 Q178.49 712.872 179.449 711.781 Q181.274 709.731 181.988 708.32 Q182.722 706.891 182.722 705.518 Q182.722 703.28 181.142 701.869 Q179.581 700.458 177.061 700.458 Q175.274 700.458 173.28 701.079 Q171.306 701.7 169.049 702.96 L169.049 699.123 Q171.343 698.201 173.337 697.731 Q175.33 697.261 176.986 697.261 Q181.349 697.261 183.944 699.443 Q186.54 701.624 186.54 705.273 Q186.54 707.004 185.882 708.565 Q185.242 710.107 183.531 712.213 Q183.06 712.759 180.54 715.373 Q178.02 717.968 173.431 722.652 Z" fill="#000000" fill-rule="nonzero" fill-opacity="1" /><path clip-path="url(#clip560)" d="M116.906 421.971 L124.545 421.971 L124.545 395.605 L116.235 397.272 L116.235 393.013 L124.499 391.346 L129.175 391.346 L129.175 421.971 L136.814 421.971 L136.814 425.906 L116.906 425.906 L116.906 421.971 Z" fill="#000000" fill-rule="nonzero" fill-opacity="1" /><path clip-path="url(#clip560)" d="M156.258 394.425 Q152.647 394.425 150.818 397.99 Q149.013 401.531 149.013 408.661 Q149.013 415.767 150.818 419.332 Q152.647 422.874 156.258 422.874 Q159.892 422.874 161.698 419.332 Q163.526 415.767 163.526 408.661 Q163.526 401.531 161.698 397.99 Q159.892 394.425 156.258 394.425 M156.258 390.721 Q162.068 390.721 165.124 395.327 Q168.202 399.911 168.202 408.661 Q168.202 417.388 165.124 421.994 Q162.068 426.577 156.258 426.577 Q150.448 426.577 147.369 421.994 Q144.314 417.388 144.314 408.661 Q144.314 399.911 147.369 395.327 Q150.448 390.721 156.258 390.721 Z" fill="#000000" fill-rule="nonzero" fill-opacity="1" /><path clip-path="url(#clip560)" d="M180.898 383.355 Q183.625 383.938 185.148 385.782 Q186.69 387.625 186.69 390.333 Q186.69 394.49 183.832 396.765 Q180.973 399.041 175.707 399.041 Q173.939 399.041 172.058 398.684 Q170.196 398.345 168.202 397.649 L168.202 393.982 Q169.782 394.903 171.663 395.374 Q173.544 395.844 175.594 395.844 Q179.167 395.844 181.029 394.433 Q182.91 393.023 182.91 390.333 Q182.91 387.85 181.161 386.459 Q179.431 385.048 176.327 385.048 L173.055 385.048 L173.055 381.926 L176.478 381.926 Q179.28 381.926 180.766 380.816 Q182.252 379.688 182.252 377.581 Q182.252 375.418 180.709 374.271 Q179.186 373.105 176.327 373.105 Q174.766 373.105 172.979 373.444 Q171.193 373.782 169.049 374.497 L169.049 371.112 Q171.212 370.51 173.092 370.209 Q174.992 369.908 176.666 369.908 Q180.992 369.908 183.512 371.883 Q186.032 373.839 186.032 377.186 Q186.032 379.519 184.697 381.136 Q183.361 382.735 180.898 383.355 Z" fill="#000000" fill-rule="nonzero" fill-opacity="1" /><path clip-path="url(#clip560)" d="M114.931 94.6176 L122.57 94.6176 L122.57 68.252 L114.26 69.9186 L114.26 65.6594 L122.524 63.9927 L127.2 63.9927 L127.2 94.6176 L134.839 94.6176 L134.839 98.5527 L114.931 98.5527 L114.931 94.6176 Z" fill="#000000" fill-rule="nonzero" fill-opacity="1" /><path clip-path="url(#clip560)" d="M154.283 67.0714 Q150.672 67.0714 148.843 70.6362 Q147.038 74.1779 147.038 81.3075 Q147.038 88.4139 148.843 91.9787 Q150.672 95.5203 154.283 95.5203 Q157.917 95.5203 159.723 91.9787 Q161.552 88.4139 161.552 81.3075 Q161.552 74.1779 159.723 70.6362 Q157.917 67.0714 154.283 67.0714 M154.283 63.3677 Q160.093 63.3677 163.149 67.9742 Q166.227 72.5575 166.227 81.3075 Q166.227 90.0343 163.149 94.6407 Q160.093 99.224 154.283 99.224 Q148.473 99.224 145.394 94.6407 Q142.339 90.0343 142.339 81.3075 Q142.339 72.5575 145.394 67.9742 Q148.473 63.3677 154.283 63.3677 Z" fill="#000000" fill-rule="nonzero" fill-opacity="1" /><path clip-path="url(#clip560)" d="M178.904 46.3725 L169.312 61.3623 L178.904 61.3623 L178.904 46.3725 M177.907 43.0623 L182.684 43.0623 L182.684 61.3623 L186.69 61.3623 L186.69 64.522 L182.684 64.522 L182.684 71.1423 L178.904 71.1423 L178.904 64.522 L166.227 64.522 L166.227 60.8545 L177.907 43.0623 Z" fill="#000000" fill-rule="nonzero" fill-opacity="1" /><path clip-path="url(#clip560)" d="M64.0042 864.086 L16.4842 882.228 L16.4842 875.512 L56.4926 860.457 L16.4842 845.371 L16.4842 838.687 L64.0042 856.797 L64.0042 864.086 Z" fill="#000000" fill-rule="nonzero" fill-opacity="1" /><path clip-path="url(#clip560)" d="M22.818 820.035 L46.4666 828.756 L46.4666 811.282 L22.818 820.035 M16.4842 823.663 L16.4842 816.375 L64.0042 798.264 L64.0042 804.948 L51.8138 809.277 L51.8138 830.698 L64.0042 835.026 L64.0042 841.806 L16.4842 823.663 Z" fill="#000000" fill-rule="nonzero" fill-opacity="1" /><path clip-path="url(#clip560)" d="M16.4842 791.326 L16.4842 784.896 L58.5933 784.896 L58.5933 761.757 L64.0042 761.757 L64.0042 791.326 L16.4842 791.326 Z" fill="#000000" fill-rule="nonzero" fill-opacity="1" /><path clip-path="url(#clip560)" d="M20.8447 738.045 Q20.8447 745.047 26.0645 749.185 Q31.2844 753.291 40.2919 753.291 Q49.2675 753.291 54.4874 749.185 Q59.7073 745.047 59.7073 738.045 Q59.7073 731.042 54.4874 726.968 Q49.2675 722.862 40.2919 722.862 Q31.2844 722.862 26.0645 726.968 Q20.8447 731.042 20.8447 738.045 M15.6248 738.045 Q15.6248 728.051 22.3406 722.067 Q29.0246 716.083 40.2919 716.083 Q51.5274 716.083 58.2432 722.067 Q64.9272 728.051 64.9272 738.045 Q64.9272 748.071 58.2432 754.086 Q51.5592 760.07 40.2919 760.07 Q29.0246 760.07 22.3406 754.086 Q15.6248 748.071 15.6248 738.045 Z" fill="#000000" fill-rule="nonzero" fill-opacity="1" /><path clip-path="url(#clip560)" d="M41.7242 683.491 Q42.4244 681.422 44.7161 679.48 Q47.0077 677.507 51.0181 675.533 L64.0042 669.009 L64.0042 675.915 L51.8138 681.995 Q47.0395 684.35 45.48 686.578 Q43.9204 688.774 43.9204 692.594 L43.9204 699.596 L64.0042 699.596 L64.0042 706.025 L16.4842 706.025 L16.4842 691.511 Q16.4842 683.363 19.8898 679.353 Q23.2955 675.342 30.1704 675.342 Q34.6582 675.342 37.6183 677.443 Q40.5784 679.512 41.7242 683.491 M21.7677 699.596 L38.6368 699.596 L38.6368 691.511 Q38.6368 686.864 36.5043 684.509 Q34.34 682.122 30.1704 682.122 Q26.0009 682.122 23.9002 684.509 Q21.7677 686.864 21.7677 691.511 L21.7677 699.596 Z" fill="#000000" fill-rule="nonzero" fill-opacity="1" /><path clip-path="url(#clip560)" d="M16.4842 660.733 L16.4842 630.687 L21.895 630.687 L21.895 654.304 L35.9632 654.304 L35.9632 631.674 L41.3741 631.674 L41.3741 654.304 L58.5933 654.304 L58.5933 630.114 L64.0042 630.114 L64.0042 660.733 L16.4842 660.733 Z" fill="#000000" fill-rule="nonzero" fill-opacity="1" /><path clip-path="url(#clip560)" d="M18.0438 591.061 L24.314 591.061 Q22.5634 594.721 21.704 597.967 Q20.8447 601.214 20.8447 604.238 Q20.8447 609.489 22.8817 612.354 Q24.9187 615.187 28.6745 615.187 Q31.8255 615.187 33.4488 613.309 Q35.0402 611.399 36.0269 606.115 L36.8226 602.232 Q38.1912 595.039 41.6605 591.633 Q45.098 588.196 50.8908 588.196 Q57.7976 588.196 61.3624 592.843 Q64.9272 597.458 64.9272 606.402 Q64.9272 609.776 64.1633 613.595 Q63.3994 617.383 61.9035 621.457 L55.2831 621.457 Q57.4793 617.542 58.5933 613.786 Q59.7073 610.03 59.7073 606.402 Q59.7073 600.896 57.543 597.904 Q55.3786 594.912 51.3682 594.912 Q47.8671 594.912 45.8937 597.076 Q43.9204 599.209 42.9337 604.11 L42.1698 608.025 Q40.7375 615.218 37.682 618.433 Q34.6264 621.648 29.1837 621.648 Q22.8817 621.648 19.2532 617.224 Q15.6248 612.768 15.6248 604.97 Q15.6248 601.628 16.2295 598.158 Q16.8343 594.689 18.0438 591.061 Z" fill="#000000" fill-rule="nonzero" fill-opacity="1" /><polyline clip-path="url(#clip562)" style="stroke:#008000; stroke-linecap:round; stroke-linejoin:round; stroke-width:4; stroke-opacity:1; fill:none" points="222.69,757.745 241.213,856.288 259.735,698.95 278.257,797.493 296.78,896.036 315.302,738.328 333.824,836.872 352.346,679.68 370.869,778.223 389.391,621.37 407.913,719.913 426.436,563.283 444.958,661.827 463.48,505.345 482.003,603.888 500.525,702.432 519.047,545.853 537.57,644.396 556.092,742.94 574.614,586.233 593.137,684.776 611.659,528.243 630.181,626.786 648.703,725.329 667.226,568.683 685.748,667.226 704.27,510.733 722.793,609.277 741.315,452.886 759.837,551.429 778.36,649.972 796.882,493.515 815.404,592.058 833.927,435.691 852.449,534.234 870.971,377.927 889.493,476.47 908.016,320.203 926.538,418.746 945.06,517.289 963.583,360.995 982.105,459.538 1000.63,558.082 1019.15,656.625 1037.67,500.154 1056.19,598.697 1074.72,442.321 1093.24,540.864 1111.76,384.552 1130.28,483.095 1148.81,581.638 1167.33,425.283 1185.85,523.827 1204.37,367.528 1222.9,466.071 1241.42,564.614 1259.94,408.278 1278.46,506.822 1296.98,350.536 1315.51,449.079 1334.03,292.826 1352.55,391.369 1371.07,235.138 1389.6,333.681 1408.12,177.464 1426.64,276.007 1445.16,119.801 1463.69,218.344 1482.21,316.887 1500.73,415.43 1519.25,259.191 1537.77,357.734 1556.3,201.512 1574.82,300.055 1593.34,143.845 1611.86,242.388 1630.39,86.1857 1648.91,184.729 1667.43,283.272 1685.95,381.815 1704.48,480.358 1723,324.089 1741.52,422.632 1760.04,521.175 1778.56,364.879 1797.09,463.422 1815.61,561.965 1834.13,405.632 1852.65,504.175 1871.18,602.718 1889.7,701.262 1908.22,799.805 1926.74,642.843 1945.27,741.386 1963.79,839.929 1982.31,938.472 2000.83,780.239 2019.35,878.783 2037.88,721.248 2056.4,819.791 2074.92,662.712 2093.44,761.256 2111.97,859.799 2130.49,958.342 2149.01,1056.88 2167.53,1155.43 2186.06,990.066 2204.58,1088.61 2223.1,1187.15 2241.62,1285.7 2260.14,1384.24 "/>
<circle clip-path="url(#clip562)" cx="222.69" cy="757.745" r="14.4" fill="#008000" fill-rule="evenodd" fill-opacity="1" stroke="#000000" stroke-opacity="1" stroke-width="3.2"/>
<circle clip-path="url(#clip562)" cx="241.213" cy="856.288" r="14.4" fill="#008000" fill-rule="evenodd" fill-opacity="1" stroke="#000000" stroke-opacity="1" stroke-width="3.2"/>
<circle clip-path="url(#clip562)" cx="259.735" cy="698.95" r="14.4" fill="#008000" fill-rule="evenodd" fill-opacity="1" stroke="#000000" stroke-opacity="1" stroke-width="3.2"/>
<circle clip-path="url(#clip562)" cx="278.257" cy="797.493" r="14.4" fill="#008000" fill-rule="evenodd" fill-opacity="1" stroke="#000000" stroke-opacity="1" stroke-width="3.2"/>
<circle clip-path="url(#clip562)" cx="296.78" cy="896.036" r="14.4" fill="#008000" fill-rule="evenodd" fill-opacity="1" stroke="#000000" stroke-opacity="1" stroke-width="3.2"/>
<circle clip-path="url(#clip562)" cx="315.302" cy="738.328" r="14.4" fill="#008000" fill-rule="evenodd" fill-opacity="1" stroke="#000000" stroke-opacity="1" stroke-width="3.2"/>
<circle clip-path="url(#clip562)" cx="333.824" cy="836.872" r="14.4" fill="#008000" fill-rule="evenodd" fill-opacity="1" stroke="#000000" stroke-opacity="1" stroke-width="3.2"/>
<circle clip-path="url(#clip562)" cx="352.346" cy="679.68" r="14.4" fill="#008000" fill-rule="evenodd" fill-opacity="1" stroke="#000000" stroke-opacity="1" stroke-width="3.2"/>
<circle clip-path="url(#clip562)" cx="370.869" cy="778.223" r="14.4" fill="#008000" fill-rule="evenodd" fill-opacity="1" stroke="#000000" stroke-opacity="1" stroke-width="3.2"/>
<circle clip-path="url(#clip562)" cx="389.391" cy="621.37" r="14.4" fill="#008000" fill-rule="evenodd" fill-opacity="1" stroke="#000000" stroke-opacity="1" stroke-width="3.2"/>
<circle clip-path="url(#clip562)" cx="407.913" cy="719.913" r="14.4" fill="#008000" fill-rule="evenodd" fill-opacity="1" stroke="#000000" stroke-opacity="1" stroke-width="3.2"/>
<circle clip-path="url(#clip562)" cx="426.436" cy="563.283" r="14.4" fill="#008000" fill-rule="evenodd" fill-opacity="1" stroke="#000000" stroke-opacity="1" stroke-width="3.2"/>
<circle clip-path="url(#clip562)" cx="444.958" cy="661.827" r="14.4" fill="#008000" fill-rule="evenodd" fill-opacity="1" stroke="#000000" stroke-opacity="1" stroke-width="3.2"/>
<circle clip-path="url(#clip562)" cx="463.48" cy="505.345" r="14.4" fill="#008000" fill-rule="evenodd" fill-opacity="1" stroke="#000000" stroke-opacity="1" stroke-width="3.2"/>
<circle clip-path="url(#clip562)" cx="482.003" cy="603.888" r="14.4" fill="#008000" fill-rule="evenodd" fill-opacity="1" stroke="#000000" stroke-opacity="1" stroke-width="3.2"/>
<circle clip-path="url(#clip562)" cx="500.525" cy="702.432" r="14.4" fill="#008000" fill-rule="evenodd" fill-opacity="1" stroke="#000000" stroke-opacity="1" stroke-width="3.2"/>
<circle clip-path="url(#clip562)" cx="519.047" cy="545.853" r="14.4" fill="#008000" fill-rule="evenodd" fill-opacity="1" stroke="#000000" stroke-opacity="1" stroke-width="3.2"/>
<circle clip-path="url(#clip562)" cx="537.57" cy="644.396" r="14.4" fill="#008000" fill-rule="evenodd" fill-opacity="1" stroke="#000000" stroke-opacity="1" stroke-width="3.2"/>
<circle clip-path="url(#clip562)" cx="556.092" cy="742.94" r="14.4" fill="#008000" fill-rule="evenodd" fill-opacity="1" stroke="#000000" stroke-opacity="1" stroke-width="3.2"/>
<circle clip-path="url(#clip562)" cx="574.614" cy="586.233" r="14.4" fill="#008000" fill-rule="evenodd" fill-opacity="1" stroke="#000000" stroke-opacity="1" stroke-width="3.2"/>
<circle clip-path="url(#clip562)" cx="593.137" cy="684.776" r="14.4" fill="#008000" fill-rule="evenodd" fill-opacity="1" stroke="#000000" stroke-opacity="1" stroke-width="3.2"/>
<circle clip-path="url(#clip562)" cx="611.659" cy="528.243" r="14.4" fill="#008000" fill-rule="evenodd" fill-opacity="1" stroke="#000000" stroke-opacity="1" stroke-width="3.2"/>
<circle clip-path="url(#clip562)" cx="630.181" cy="626.786" r="14.4" fill="#008000" fill-rule="evenodd" fill-opacity="1" stroke="#000000" stroke-opacity="1" stroke-width="3.2"/>
<circle clip-path="url(#clip562)" cx="648.703" cy="725.329" r="14.4" fill="#008000" fill-rule="evenodd" fill-opacity="1" stroke="#000000" stroke-opacity="1" stroke-width="3.2"/>
<circle clip-path="url(#clip562)" cx="667.226" cy="568.683" r="14.4" fill="#008000" fill-rule="evenodd" fill-opacity="1" stroke="#000000" stroke-opacity="1" stroke-width="3.2"/>
<circle clip-path="url(#clip562)" cx="685.748" cy="667.226" r="14.4" fill="#008000" fill-rule="evenodd" fill-opacity="1" stroke="#000000" stroke-opacity="1" stroke-width="3.2"/>
<circle clip-path="url(#clip562)" cx="704.27" cy="510.733" r="14.4" fill="#008000" fill-rule="evenodd" fill-opacity="1" stroke="#000000" stroke-opacity="1" stroke-width="3.2"/>
<circle clip-path="url(#clip562)" cx="722.793" cy="609.277" r="14.4" fill="#008000" fill-rule="evenodd" fill-opacity="1" stroke="#000000" stroke-opacity="1" stroke-width="3.2"/>
<circle clip-path="url(#clip562)" cx="741.315" cy="452.886" r="14.4" fill="#008000" fill-rule="evenodd" fill-opacity="1" stroke="#000000" stroke-opacity="1" stroke-width="3.2"/>
<circle clip-path="url(#clip562)" cx="759.837" cy="551.429" r="14.4" fill="#008000" fill-rule="evenodd" fill-opacity="1" stroke="#000000" stroke-opacity="1" stroke-width="3.2"/>
<circle clip-path="url(#clip562)" cx="778.36" cy="649.972" r="14.4" fill="#008000" fill-rule="evenodd" fill-opacity="1" stroke="#000000" stroke-opacity="1" stroke-width="3.2"/>
<circle clip-path="url(#clip562)" cx="796.882" cy="493.515" r="14.4" fill="#008000" fill-rule="evenodd" fill-opacity="1" stroke="#000000" stroke-opacity="1" stroke-width="3.2"/>
<circle clip-path="url(#clip562)" cx="815.404" cy="592.058" r="14.4" fill="#008000" fill-rule="evenodd" fill-opacity="1" stroke="#000000" stroke-opacity="1" stroke-width="3.2"/>
<circle clip-path="url(#clip562)" cx="833.927" cy="435.691" r="14.4" fill="#008000" fill-rule="evenodd" fill-opacity="1" stroke="#000000" stroke-opacity="1" stroke-width="3.2"/>
<circle clip-path="url(#clip562)" cx="852.449" cy="534.234" r="14.4" fill="#008000" fill-rule="evenodd" fill-opacity="1" stroke="#000000" stroke-opacity="1" stroke-width="3.2"/>
<circle clip-path="url(#clip562)" cx="870.971" cy="377.927" r="14.4" fill="#008000" fill-rule="evenodd" fill-opacity="1" stroke="#000000" stroke-opacity="1" stroke-width="3.2"/>
<circle clip-path="url(#clip562)" cx="889.493" cy="476.47" r="14.4" fill="#008000" fill-rule="evenodd" fill-opacity="1" stroke="#000000" stroke-opacity="1" stroke-width="3.2"/>
<circle clip-path="url(#clip562)" cx="908.016" cy="320.203" r="14.4" fill="#008000" fill-rule="evenodd" fill-opacity="1" stroke="#000000" stroke-opacity="1" stroke-width="3.2"/>
<circle clip-path="url(#clip562)" cx="926.538" cy="418.746" r="14.4" fill="#008000" fill-rule="evenodd" fill-opacity="1" stroke="#000000" stroke-opacity="1" stroke-width="3.2"/>
<circle clip-path="url(#clip562)" cx="945.06" cy="517.289" r="14.4" fill="#008000" fill-rule="evenodd" fill-opacity="1" stroke="#000000" stroke-opacity="1" stroke-width="3.2"/>
<circle clip-path="url(#clip562)" cx="963.583" cy="360.995" r="14.4" fill="#008000" fill-rule="evenodd" fill-opacity="1" stroke="#000000" stroke-opacity="1" stroke-width="3.2"/>
<circle clip-path="url(#clip562)" cx="982.105" cy="459.538" r="14.4" fill="#008000" fill-rule="evenodd" fill-opacity="1" stroke="#000000" stroke-opacity="1" stroke-width="3.2"/>
<circle clip-path="url(#clip562)" cx="1000.63" cy="558.082" r="14.4" fill="#008000" fill-rule="evenodd" fill-opacity="1" stroke="#000000" stroke-opacity="1" stroke-width="3.2"/>
<circle clip-path="url(#clip562)" cx="1019.15" cy="656.625" r="14.4" fill="#008000" fill-rule="evenodd" fill-opacity="1" stroke="#000000" stroke-opacity="1" stroke-width="3.2"/>
<circle clip-path="url(#clip562)" cx="1037.67" cy="500.154" r="14.4" fill="#008000" fill-rule="evenodd" fill-opacity="1" stroke="#000000" stroke-opacity="1" stroke-width="3.2"/>
<circle clip-path="url(#clip562)" cx="1056.19" cy="598.697" r="14.4" fill="#008000" fill-rule="evenodd" fill-opacity="1" stroke="#000000" stroke-opacity="1" stroke-width="3.2"/>
<circle clip-path="url(#clip562)" cx="1074.72" cy="442.321" r="14.4" fill="#008000" fill-rule="evenodd" fill-opacity="1" stroke="#000000" stroke-opacity="1" stroke-width="3.2"/>
<circle clip-path="url(#clip562)" cx="1093.24" cy="540.864" r="14.4" fill="#008000" fill-rule="evenodd" fill-opacity="1" stroke="#000000" stroke-opacity="1" stroke-width="3.2"/>
<circle clip-path="url(#clip562)" cx="1111.76" cy="384.552" r="14.4" fill="#008000" fill-rule="evenodd" fill-opacity="1" stroke="#000000" stroke-opacity="1" stroke-width="3.2"/>
<circle clip-path="url(#clip562)" cx="1130.28" cy="483.095" r="14.4" fill="#008000" fill-rule="evenodd" fill-opacity="1" stroke="#000000" stroke-opacity="1" stroke-width="3.2"/>
<circle clip-path="url(#clip562)" cx="1148.81" cy="581.638" r="14.4" fill="#008000" fill-rule="evenodd" fill-opacity="1" stroke="#000000" stroke-opacity="1" stroke-width="3.2"/>
<circle clip-path="url(#clip562)" cx="1167.33" cy="425.283" r="14.4" fill="#008000" fill-rule="evenodd" fill-opacity="1" stroke="#000000" stroke-opacity="1" stroke-width="3.2"/>
<circle clip-path="url(#clip562)" cx="1185.85" cy="523.827" r="14.4" fill="#008000" fill-rule="evenodd" fill-opacity="1" stroke="#000000" stroke-opacity="1" stroke-width="3.2"/>
<circle clip-path="url(#clip562)" cx="1204.37" cy="367.528" r="14.4" fill="#008000" fill-rule="evenodd" fill-opacity="1" stroke="#000000" stroke-opacity="1" stroke-width="3.2"/>
<circle clip-path="url(#clip562)" cx="1222.9" cy="466.071" r="14.4" fill="#008000" fill-rule="evenodd" fill-opacity="1" stroke="#000000" stroke-opacity="1" stroke-width="3.2"/>
<circle clip-path="url(#clip562)" cx="1241.42" cy="564.614" r="14.4" fill="#008000" fill-rule="evenodd" fill-opacity="1" stroke="#000000" stroke-opacity="1" stroke-width="3.2"/>
<circle clip-path="url(#clip562)" cx="1259.94" cy="408.278" r="14.4" fill="#008000" fill-rule="evenodd" fill-opacity="1" stroke="#000000" stroke-opacity="1" stroke-width="3.2"/>
<circle clip-path="url(#clip562)" cx="1278.46" cy="506.822" r="14.4" fill="#008000" fill-rule="evenodd" fill-opacity="1" stroke="#000000" stroke-opacity="1" stroke-width="3.2"/>
<circle clip-path="url(#clip562)" cx="1296.98" cy="350.536" r="14.4" fill="#008000" fill-rule="evenodd" fill-opacity="1" stroke="#000000" stroke-opacity="1" stroke-width="3.2"/>
<circle clip-path="url(#clip562)" cx="1315.51" cy="449.079" r="14.4" fill="#008000" fill-rule="evenodd" fill-opacity="1" stroke="#000000" stroke-opacity="1" stroke-width="3.2"/>
<circle clip-path="url(#clip562)" cx="1334.03" cy="292.826" r="14.4" fill="#008000" fill-rule="evenodd" fill-opacity="1" stroke="#000000" stroke-opacity="1" stroke-width="3.2"/>
<circle clip-path="url(#clip562)" cx="1352.55" cy="391.369" r="14.4" fill="#008000" fill-rule="evenodd" fill-opacity="1" stroke="#000000" stroke-opacity="1" stroke-width="3.2"/>
<circle clip-path="url(#clip562)" cx="1371.07" cy="235.138" r="14.4" fill="#008000" fill-rule="evenodd" fill-opacity="1" stroke="#000000" stroke-opacity="1" stroke-width="3.2"/>
<circle clip-path="url(#clip562)" cx="1389.6" cy="333.681" r="14.4" fill="#008000" fill-rule="evenodd" fill-opacity="1" stroke="#000000" stroke-opacity="1" stroke-width="3.2"/>
<circle clip-path="url(#clip562)" cx="1408.12" cy="177.464" r="14.4" fill="#008000" fill-rule="evenodd" fill-opacity="1" stroke="#000000" stroke-opacity="1" stroke-width="3.2"/>
<circle clip-path="url(#clip562)" cx="1426.64" cy="276.007" r="14.4" fill="#008000" fill-rule="evenodd" fill-opacity="1" stroke="#000000" stroke-opacity="1" stroke-width="3.2"/>
<circle clip-path="url(#clip562)" cx="1445.16" cy="119.801" r="14.4" fill="#008000" fill-rule="evenodd" fill-opacity="1" stroke="#000000" stroke-opacity="1" stroke-width="3.2"/>
<circle clip-path="url(#clip562)" cx="1463.69" cy="218.344" r="14.4" fill="#008000" fill-rule="evenodd" fill-opacity="1" stroke="#000000" stroke-opacity="1" stroke-width="3.2"/>
<circle clip-path="url(#clip562)" cx="1482.21" cy="316.887" r="14.4" fill="#008000" fill-rule="evenodd" fill-opacity="1" stroke="#000000" stroke-opacity="1" stroke-width="3.2"/>
<circle clip-path="url(#clip562)" cx="1500.73" cy="415.43" r="14.4" fill="#008000" fill-rule="evenodd" fill-opacity="1" stroke="#000000" stroke-opacity="1" stroke-width="3.2"/>
<circle clip-path="url(#clip562)" cx="1519.25" cy="259.191" r="14.4" fill="#008000" fill-rule="evenodd" fill-opacity="1" stroke="#000000" stroke-opacity="1" stroke-width="3.2"/>
<circle clip-path="url(#clip562)" cx="1537.77" cy="357.734" r="14.4" fill="#008000" fill-rule="evenodd" fill-opacity="1" stroke="#000000" stroke-opacity="1" stroke-width="3.2"/>
<circle clip-path="url(#clip562)" cx="1556.3" cy="201.512" r="14.4" fill="#008000" fill-rule="evenodd" fill-opacity="1" stroke="#000000" stroke-opacity="1" stroke-width="3.2"/>
<circle clip-path="url(#clip562)" cx="1574.82" cy="300.055" r="14.4" fill="#008000" fill-rule="evenodd" fill-opacity="1" stroke="#000000" stroke-opacity="1" stroke-width="3.2"/>
<circle clip-path="url(#clip562)" cx="1593.34" cy="143.845" r="14.4" fill="#008000" fill-rule="evenodd" fill-opacity="1" stroke="#000000" stroke-opacity="1" stroke-width="3.2"/>
<circle clip-path="url(#clip562)" cx="1611.86" cy="242.388" r="14.4" fill="#008000" fill-rule="evenodd" fill-opacity="1" stroke="#000000" stroke-opacity="1" stroke-width="3.2"/>
<circle clip-path="url(#clip562)" cx="1630.39" cy="86.1857" r="14.4" fill="#008000" fill-rule="evenodd" fill-opacity="1" stroke="#000000" stroke-opacity="1" stroke-width="3.2"/>
<circle clip-path="url(#clip562)" cx="1648.91" cy="184.729" r="14.4" fill="#008000" fill-rule="evenodd" fill-opacity="1" stroke="#000000" stroke-opacity="1" stroke-width="3.2"/>
<circle clip-path="url(#clip562)" cx="1667.43" cy="283.272" r="14.4" fill="#008000" fill-rule="evenodd" fill-opacity="1" stroke="#000000" stroke-opacity="1" stroke-width="3.2"/>
<circle clip-path="url(#clip562)" cx="1685.95" cy="381.815" r="14.4" fill="#008000" fill-rule="evenodd" fill-opacity="1" stroke="#000000" stroke-opacity="1" stroke-width="3.2"/>
<circle clip-path="url(#clip562)" cx="1704.48" cy="480.358" r="14.4" fill="#008000" fill-rule="evenodd" fill-opacity="1" stroke="#000000" stroke-opacity="1" stroke-width="3.2"/>
<circle clip-path="url(#clip562)" cx="1723" cy="324.089" r="14.4" fill="#008000" fill-rule="evenodd" fill-opacity="1" stroke="#000000" stroke-opacity="1" stroke-width="3.2"/>
<circle clip-path="url(#clip562)" cx="1741.52" cy="422.632" r="14.4" fill="#008000" fill-rule="evenodd" fill-opacity="1" stroke="#000000" stroke-opacity="1" stroke-width="3.2"/>
<circle clip-path="url(#clip562)" cx="1760.04" cy="521.175" r="14.4" fill="#008000" fill-rule="evenodd" fill-opacity="1" stroke="#000000" stroke-opacity="1" stroke-width="3.2"/>
<circle clip-path="url(#clip562)" cx="1778.56" cy="364.879" r="14.4" fill="#008000" fill-rule="evenodd" fill-opacity="1" stroke="#000000" stroke-opacity="1" stroke-width="3.2"/>
<circle clip-path="url(#clip562)" cx="1797.09" cy="463.422" r="14.4" fill="#008000" fill-rule="evenodd" fill-opacity="1" stroke="#000000" stroke-opacity="1" stroke-width="3.2"/>
<circle clip-path="url(#clip562)" cx="1815.61" cy="561.965" r="14.4" fill="#008000" fill-rule="evenodd" fill-opacity="1" stroke="#000000" stroke-opacity="1" stroke-width="3.2"/>
<circle clip-path="url(#clip562)" cx="1834.13" cy="405.632" r="14.4" fill="#008000" fill-rule="evenodd" fill-opacity="1" stroke="#000000" stroke-opacity="1" stroke-width="3.2"/>
<circle clip-path="url(#clip562)" cx="1852.65" cy="504.175" r="14.4" fill="#008000" fill-rule="evenodd" fill-opacity="1" stroke="#000000" stroke-opacity="1" stroke-width="3.2"/>
<circle clip-path="url(#clip562)" cx="1871.18" cy="602.718" r="14.4" fill="#008000" fill-rule="evenodd" fill-opacity="1" stroke="#000000" stroke-opacity="1" stroke-width="3.2"/>
<circle clip-path="url(#clip562)" cx="1889.7" cy="701.262" r="14.4" fill="#008000" fill-rule="evenodd" fill-opacity="1" stroke="#000000" stroke-opacity="1" stroke-width="3.2"/>
<circle clip-path="url(#clip562)" cx="1908.22" cy="799.805" r="14.4" fill="#008000" fill-rule="evenodd" fill-opacity="1" stroke="#000000" stroke-opacity="1" stroke-width="3.2"/>
<circle clip-path="url(#clip562)" cx="1926.74" cy="642.843" r="14.4" fill="#008000" fill-rule="evenodd" fill-opacity="1" stroke="#000000" stroke-opacity="1" stroke-width="3.2"/>
<circle clip-path="url(#clip562)" cx="1945.27" cy="741.386" r="14.4" fill="#008000" fill-rule="evenodd" fill-opacity="1" stroke="#000000" stroke-opacity="1" stroke-width="3.2"/>
<circle clip-path="url(#clip562)" cx="1963.79" cy="839.929" r="14.4" fill="#008000" fill-rule="evenodd" fill-opacity="1" stroke="#000000" stroke-opacity="1" stroke-width="3.2"/>
<circle clip-path="url(#clip562)" cx="1982.31" cy="938.472" r="14.4" fill="#008000" fill-rule="evenodd" fill-opacity="1" stroke="#000000" stroke-opacity="1" stroke-width="3.2"/>
<circle clip-path="url(#clip562)" cx="2000.83" cy="780.239" r="14.4" fill="#008000" fill-rule="evenodd" fill-opacity="1" stroke="#000000" stroke-opacity="1" stroke-width="3.2"/>
<circle clip-path="url(#clip562)" cx="2019.35" cy="878.783" r="14.4" fill="#008000" fill-rule="evenodd" fill-opacity="1" stroke="#000000" stroke-opacity="1" stroke-width="3.2"/>
<circle clip-path="url(#clip562)" cx="2037.88" cy="721.248" r="14.4" fill="#008000" fill-rule="evenodd" fill-opacity="1" stroke="#000000" stroke-opacity="1" stroke-width="3.2"/>
<circle clip-path="url(#clip562)" cx="2056.4" cy="819.791" r="14.4" fill="#008000" fill-rule="evenodd" fill-opacity="1" stroke="#000000" stroke-opacity="1" stroke-width="3.2"/>
<circle clip-path="url(#clip562)" cx="2074.92" cy="662.712" r="14.4" fill="#008000" fill-rule="evenodd" fill-opacity="1" stroke="#000000" stroke-opacity="1" stroke-width="3.2"/>
<circle clip-path="url(#clip562)" cx="2093.44" cy="761.256" r="14.4" fill="#008000" fill-rule="evenodd" fill-opacity="1" stroke="#000000" stroke-opacity="1" stroke-width="3.2"/>
<circle clip-path="url(#clip562)" cx="2111.97" cy="859.799" r="14.4" fill="#008000" fill-rule="evenodd" fill-opacity="1" stroke="#000000" stroke-opacity="1" stroke-width="3.2"/>
<circle clip-path="url(#clip562)" cx="2130.49" cy="958.342" r="14.4" fill="#008000" fill-rule="evenodd" fill-opacity="1" stroke="#000000" stroke-opacity="1" stroke-width="3.2"/>
<circle clip-path="url(#clip562)" cx="2149.01" cy="1056.88" r="14.4" fill="#008000" fill-rule="evenodd" fill-opacity="1" stroke="#000000" stroke-opacity="1" stroke-width="3.2"/>
<circle clip-path="url(#clip562)" cx="2167.53" cy="1155.43" r="14.4" fill="#008000" fill-rule="evenodd" fill-opacity="1" stroke="#000000" stroke-opacity="1" stroke-width="3.2"/>
<circle clip-path="url(#clip562)" cx="2186.06" cy="990.066" r="14.4" fill="#008000" fill-rule="evenodd" fill-opacity="1" stroke="#000000" stroke-opacity="1" stroke-width="3.2"/>
<circle clip-path="url(#clip562)" cx="2204.58" cy="1088.61" r="14.4" fill="#008000" fill-rule="evenodd" fill-opacity="1" stroke="#000000" stroke-opacity="1" stroke-width="3.2"/>
<circle clip-path="url(#clip562)" cx="2223.1" cy="1187.15" r="14.4" fill="#008000" fill-rule="evenodd" fill-opacity="1" stroke="#000000" stroke-opacity="1" stroke-width="3.2"/>
<circle clip-path="url(#clip562)" cx="2241.62" cy="1285.7" r="14.4" fill="#008000" fill-rule="evenodd" fill-opacity="1" stroke="#000000" stroke-opacity="1" stroke-width="3.2"/>
<circle clip-path="url(#clip562)" cx="2260.14" cy="1384.24" r="14.4" fill="#008000" fill-rule="evenodd" fill-opacity="1" stroke="#000000" stroke-opacity="1" stroke-width="3.2"/>
</svg>
